<svg version="1.1" id="Layer_1" xmlns="http://www.w3.org/2000/svg" xmlns:xlink="http://www.w3.org/1999/xlink" x="0px" y="0px"
	 width="100%" viewBox="0 0 1632 640" enable-background="new 0 0 1632 640" xml:space="preserve">
<path fill="#265AF9" opacity="1.000000" stroke="none" 
	d="
M1.000000,52.000000 
	C1.000000,37.312439 1.000000,22.624876 1.457193,7.354670 
	C3.746682,6.733306 5.578984,6.660407 7.411273,6.660740 
	C141.565598,6.685126 275.719910,6.731131 409.874237,6.741842 
	C715.346252,6.766231 1020.818237,6.780304 1326.290283,6.783206 
	C1406.782959,6.783970 1487.275757,6.746050 1567.768311,6.646083 
	C1571.629517,6.641287 1573.947754,6.999709 1573.921631,11.890272 
	C1573.740112,45.719185 1573.843994,79.549553 1573.743164,113.379120 
	C1573.735474,115.982719 1573.200073,118.704361 1572.325439,121.163246 
	C1569.732910,128.450806 1566.991089,135.693222 1564.045410,142.845383 
	C1558.978516,155.147705 1554.216431,167.613632 1548.394287,179.556458 
	C1542.196899,192.269073 1535.556763,204.860611 1527.975342,216.783478 
	C1512.958252,240.400223 1498.370605,264.448578 1481.375732,286.608429 
	C1460.680298,313.593628 1438.298950,339.367126 1415.535767,364.665009 
	C1386.247192,397.215057 1353.545166,426.290894 1319.260864,453.497467 
	C1289.610718,477.026459 1258.492188,498.531372 1225.751465,517.544312 
	C1207.743042,528.001953 1189.400146,537.949890 1170.772339,547.255005 
	C1154.193481,555.536621 1137.164429,562.976013 1120.056396,570.122070 
	C1103.726196,576.943237 1087.115234,583.119995 1070.477905,589.167908 
	C1060.037231,592.963318 1049.389648,596.238892 1038.711792,599.321167 
	C1020.843933,604.478821 1003.015015,609.887146 984.914001,614.088013 
	C967.111023,618.219727 949.086853,621.688354 930.984314,624.167297 
	C907.416016,627.394775 883.716919,630.874390 859.998718,631.533936 
	C818.039124,632.700806 776.022400,631.875610 734.030151,631.732056 
	C728.557190,631.713379 723.070862,630.930115 717.618958,630.268433 
	C700.764832,628.223022 683.903442,626.217468 667.085327,623.902649 
	C653.583191,622.044250 640.020996,620.324829 626.698303,617.529419 
	C606.393188,613.268921 586.182678,608.476257 566.099670,603.263550 
	C548.766846,598.764648 531.432983,594.042664 514.526184,588.187622 
	C494.314697,581.188171 474.284119,573.505493 454.675293,564.969788 
	C432.808380,555.451294 411.037231,545.502869 390.082428,534.156860 
	C368.294647,522.359863 347.327393,508.992859 326.371857,495.727051 
	C298.564178,478.123505 272.406799,458.200256 247.223129,437.032104 
	C205.060349,401.592163 166.664810,362.416016 131.605286,319.942963 
	C108.756721,292.263000 87.697212,263.305054 69.342171,232.455414 
	C62.425926,220.831161 56.218967,208.773315 49.980522,196.761551 
	C46.034157,189.163086 42.496700,181.342575 39.011543,173.516693 
	C34.729675,163.901810 30.400932,154.289719 26.635216,144.468307 
	C23.032284,135.071442 20.021730,125.441017 16.942310,115.851753 
	C14.114080,107.044716 11.167864,98.247421 8.963411,89.276337 
	C6.871025,80.761307 5.767355,72.007584 4.038375,63.397079 
	C3.265847,59.549809 2.027140,55.796146 1.000000,52.000000 
M568.681152,372.423767 
	C570.303772,370.998627 571.926392,369.573517 574.322449,367.911743 
	C578.069214,366.245728 576.929077,362.931213 576.835144,360.085297 
	C576.671082,355.113678 576.004700,350.147217 576.041504,345.182251 
	C576.286377,312.144836 576.782959,279.108948 576.932861,246.071350 
	C576.989258,233.646088 576.085938,221.217621 576.084534,208.790558 
	C576.083130,196.502716 576.814148,184.215210 576.848572,171.926498 
	C576.854126,169.927963 574.914551,167.923965 573.763428,165.223557 
	C571.977783,160.721024 568.093079,160.074905 563.988892,160.049118 
	C553.156677,159.981033 542.302368,160.420761 531.497620,159.865738 
	C521.930298,159.374268 517.811890,163.354080 517.991760,172.937119 
	C518.392029,194.261185 517.963745,215.599319 518.108582,236.930145 
	C518.212341,252.212723 518.714905,267.492401 518.988647,282.774261 
	C519.019165,284.474792 518.716614,286.181305 518.457275,289.165131 
	C517.136108,287.414429 516.588806,286.859497 516.239990,286.199646 
	C513.697815,281.390564 511.482452,276.381439 508.612488,271.779388 
	C504.444580,265.096069 499.772156,258.729279 495.389313,252.177719 
	C488.677887,242.145325 482.135040,231.998520 475.318024,222.038940 
	C470.756470,215.374496 465.728088,209.030777 461.118286,202.397827 
	C455.749756,194.673050 450.669739,186.748230 445.345337,178.992050 
	C442.737885,175.193771 439.162933,171.903351 437.269073,167.808151 
	C434.426849,161.662384 430.258911,158.917435 423.617828,159.139496 
	C411.804901,159.534485 399.981354,160.019241 388.169891,159.868546 
	C382.661346,159.798279 378.003998,160.744827 373.505402,165.261063 
	C372.999756,167.436310 372.064972,169.609512 372.054657,171.787109 
	C371.948181,194.280548 372.003601,216.774719 371.985260,239.268661 
	C371.979034,246.882767 371.881989,254.496750 371.843475,262.110870 
	C371.809296,268.872223 371.775513,275.633728 371.782959,282.395111 
	C371.794495,292.860352 371.960999,303.326874 371.845184,313.790466 
	C371.666809,329.907318 371.210785,346.021942 371.166626,362.138275 
	C371.162170,363.758148 373.181244,365.383575 374.579895,367.576965 
	C376.347504,371.243774 378.559143,373.913818 383.824188,371.200287 
	C384.569672,371.231323 385.315186,371.262360 386.768646,371.699493 
	C396.828491,371.557312 406.888306,371.415131 417.738861,371.138977 
	C418.800781,371.207581 419.862671,371.276184 421.238983,371.867981 
	C427.016815,372.745667 429.805695,370.050201 429.829346,363.071686 
	C429.925568,334.687225 429.876556,306.302185 429.998718,277.917908 
	C430.021454,272.639587 430.586395,267.363617 431.539917,261.674591 
	C434.008698,261.113770 436.477448,260.552948 439.073792,260.700012 
	C441.956848,264.232147 445.064117,267.606720 447.679047,271.327301 
	C454.316895,280.771698 460.771149,290.346191 467.231781,299.913940 
	C478.991302,317.329163 490.703522,334.776306 502.432373,352.212219 
	C505.194153,356.317810 508.504913,360.170593 510.566681,364.603149 
	C513.633850,371.197144 514.880005,372.580597 522.325317,373.563416 
	C523.338440,374.026489 524.348572,374.885101 525.365112,374.892731 
	C538.284241,374.989899 551.205139,375.032837 564.122803,374.869202 
	C565.465393,374.852203 566.790039,373.424652 568.681152,372.423767 
M1190.509521,347.499725 
	C1190.506714,287.524841 1190.499512,227.549942 1190.505615,167.575058 
	C1190.506592,159.111771 1188.444336,157.141083 1179.891968,157.218460 
	C1169.231079,157.314926 1158.568848,157.320496 1147.907471,157.294220 
	C1139.869995,157.274429 1138.103882,158.681839 1138.061768,166.785950 
	C1137.976685,183.107697 1138.213135,199.430908 1138.246460,215.753647 
	C1138.252441,218.738861 1138.114258,221.753738 1137.666260,224.697586 
	C1137.454834,226.087250 1136.352783,227.341354 1135.512451,228.924088 
	C1123.635132,218.282547 1110.776489,211.797455 1095.342529,211.264282 
	C1081.070190,210.771255 1067.297363,211.978394 1054.435791,219.384918 
	C1042.790771,226.090790 1033.523438,234.851624 1027.075928,246.553925 
	C1025.584106,249.261551 1024.754761,252.356964 1023.795471,255.330338 
	C1021.921509,261.139130 1019.654968,266.889069 1018.515564,272.847778 
	C1017.397278,278.696045 1017.306824,284.766510 1017.064331,290.751587 
	C1016.470703,305.403625 1018.404846,319.898560 1024.541504,333.111603 
	C1030.764893,346.511414 1039.455566,358.349518 1053.338867,365.472015 
	C1061.799561,369.812561 1070.159790,374.601807 1079.810669,374.592529 
	C1088.522339,374.584167 1097.222534,372.959351 1105.946655,372.295013 
	C1113.736938,371.701782 1120.085693,368.321228 1125.851196,363.278107 
	C1129.977417,359.668945 1134.422485,356.424377 1139.287964,352.571503 
	C1139.522339,354.749481 1139.692993,356.194336 1139.829590,357.642395 
	C1139.985962,359.299835 1140.003296,360.977875 1140.271240,362.615875 
	C1141.098755,367.675598 1144.215698,370.748627 1148.716919,370.798920 
	C1160.044556,370.925415 1171.373169,371.012299 1182.701416,371.007477 
	C1188.196045,371.005127 1190.457397,368.632385 1190.531738,362.992889 
	C1190.595581,358.162567 1190.524414,353.330475 1190.509521,347.499725 
M647.092773,220.622604 
	C641.964966,224.782944 636.556763,228.647537 631.779419,233.177429 
	C625.607788,239.029373 621.503784,245.982208 622.108887,255.096481 
	C622.396301,259.425903 623.864868,261.543793 628.374756,261.490204 
	C640.371460,261.347626 652.376160,261.545319 664.362244,261.146637 
	C666.527161,261.074677 668.754700,258.989044 670.708618,257.509766 
	C672.898621,255.851654 674.632751,253.571365 676.875916,252.007355 
	C684.185547,246.911041 692.617920,247.895874 700.566772,248.996017 
	C711.905823,250.565308 718.579956,255.097092 717.766785,268.193268 
	C717.422302,273.740356 716.156860,275.166016 710.735840,275.679108 
	C687.452393,277.882507 663.916870,278.972107 641.794373,287.518097 
	C635.432678,289.975616 629.611816,294.062683 623.912781,297.945496 
	C617.477112,302.330231 615.431763,309.681824 613.427002,316.623199 
	C609.975525,328.573303 610.996765,340.221893 617.307312,351.229828 
	C625.787170,366.021912 639.943481,371.768066 655.519470,374.287811 
	C674.560181,377.368103 692.556885,373.638123 708.704773,362.717438 
	C711.221313,361.015503 713.022522,358.279022 715.252991,356.122803 
	C716.676819,354.746368 718.281860,353.557281 719.805603,352.284180 
	C720.305969,352.495880 720.806274,352.707550 721.306641,352.919250 
	C721.306641,355.987610 721.152832,359.065338 721.339844,362.122253 
	C721.691284,367.865936 724.928589,370.920135 730.640381,370.930206 
	C742.305908,370.950775 753.972290,370.947021 765.636841,370.821167 
	C772.241882,370.749939 774.514465,366.858673 772.705078,360.429352 
	C771.290161,355.401703 770.069153,350.128418 769.994934,344.946594 
	C769.608337,317.952850 769.674255,290.953003 769.457214,263.956299 
	C769.374634,253.682297 765.131470,244.874405 759.921265,236.173523 
	C751.227356,221.654831 736.125854,217.645905 721.924561,212.959946 
	C713.801086,210.279480 704.463806,210.659943 695.681213,210.727127 
	C679.166687,210.853424 662.778992,212.345047 647.092773,220.622604 
M992.692810,312.505646 
	C993.447815,309.308380 994.687378,306.136505 994.856445,302.908539 
	C995.203125,296.291870 995.587891,289.573975 994.828003,283.028870 
	C993.896545,275.005585 992.450500,266.911133 989.993591,259.242554 
	C988.394958,254.252731 988.596008,248.314468 983.919617,244.404877 
	C982.194641,242.962662 981.159546,240.727051 979.626404,239.017792 
	C974.029602,232.778168 968.851074,226.027344 962.525757,220.627960 
	C958.691101,217.354584 953.064209,216.146194 948.191833,214.132660 
	C943.213135,212.075195 938.262207,208.772278 933.143127,208.443649 
	C914.221680,207.228958 895.693909,208.829376 879.624329,220.762711 
	C877.629333,222.244156 874.868774,222.694626 872.462952,223.622803 
	C871.662903,221.033646 870.695862,218.480606 870.125183,215.841843 
	C869.780640,214.248505 870.049438,212.522064 870.046265,210.855423 
	C870.017151,195.369476 870.035583,179.883224 869.938477,164.397705 
	C869.896851,157.748947 868.184143,156.087723 861.614258,156.043396 
	C850.114990,155.965790 838.615295,155.937805 827.115784,155.933456 
	C817.201843,155.929703 815.170166,157.977859 815.156250,167.963562 
	C815.127197,188.796722 815.107544,209.629929 815.115234,230.463104 
	C815.131531,274.462830 815.161987,318.462555 815.202454,362.462280 
	C815.208557,369.097107 817.523743,372.008942 823.275513,372.058441 
	C836.107300,372.168854 848.945312,372.223541 861.769165,371.874268 
	C863.690308,371.821930 866.231506,369.866730 867.280457,368.082977 
	C868.967834,365.213745 869.650574,361.753662 871.073303,357.628479 
	C875.769348,361.330139 879.573242,365.126556 884.085266,367.663696 
	C888.723816,370.272003 894.023132,371.736786 899.092834,373.533997 
	C901.848633,374.510925 904.763916,375.916748 907.545654,375.788971 
	C919.463013,375.241455 931.696777,378.705505 943.219604,372.357330 
	C948.155212,369.638214 954.414001,369.221619 959.160645,366.285980 
	C964.254272,363.135651 968.432068,358.408112 972.723267,354.084717 
	C976.795593,349.981750 982.374146,346.101135 983.954407,341.074097 
	C986.846741,331.872803 992.801941,323.494293 992.692810,312.505646 
M1193.103760,364.322968 
	C1193.614380,364.590485 1194.125122,364.858002 1194.635742,365.125488 
	C1194.757202,363.644440 1194.984497,362.163422 1194.984863,360.682343 
	C1195.001587,297.222107 1195.001343,233.761841 1194.980469,170.301590 
	C1194.979858,168.650894 1194.727295,167.000275 1194.592285,165.349625 
	C1194.073730,165.393661 1193.555298,165.437714 1193.036743,165.481766 
	C1193.036743,231.512665 1193.036743,297.543579 1193.103760,364.322968 
M772.020203,340.473572 
	C772.020203,344.164429 772.020203,347.855316 772.020203,351.546173 
	C772.513123,351.535126 773.005981,351.524048 773.498901,351.513000 
	C773.498901,319.504120 773.498901,287.495239 773.498901,255.486343 
	C773.006226,255.482300 772.513489,255.478256 772.020813,255.474213 
	C772.020813,283.476624 772.020813,311.479004 772.020203,340.473572 
z"/>
<path fill="#FCFDFE" opacity="1.000000" stroke="none" 
	d="
M1.000000,52.468658 
	C2.027140,55.796146 3.265847,59.549809 4.038375,63.397079 
	C5.767355,72.007584 6.871025,80.761307 8.963411,89.276337 
	C11.167864,98.247421 14.114080,107.044716 16.942310,115.851753 
	C20.021730,125.441017 23.032284,135.071442 26.635216,144.468307 
	C30.400932,154.289719 34.729675,163.901810 39.011543,173.516693 
	C42.496700,181.342575 46.034157,189.163086 49.980522,196.761551 
	C56.218967,208.773315 62.425926,220.831161 69.342171,232.455414 
	C87.697212,263.305054 108.756721,292.263000 131.605286,319.942963 
	C166.664810,362.416016 205.060349,401.592163 247.223129,437.032104 
	C272.406799,458.200256 298.564178,478.123505 326.371857,495.727051 
	C347.327393,508.992859 368.294647,522.359863 390.082428,534.156860 
	C411.037231,545.502869 432.808380,555.451294 454.675293,564.969788 
	C474.284119,573.505493 494.314697,581.188171 514.526184,588.187622 
	C531.432983,594.042664 548.766846,598.764648 566.099670,603.263550 
	C586.182678,608.476257 606.393188,613.268921 626.698303,617.529419 
	C640.020996,620.324829 653.583191,622.044250 667.085327,623.902649 
	C683.903442,626.217468 700.764832,628.223022 717.618958,630.268433 
	C723.070862,630.930115 728.557190,631.713379 734.030151,631.732056 
	C776.022400,631.875610 818.039124,632.700806 859.998718,631.533936 
	C883.716919,630.874390 907.416016,627.394775 930.984314,624.167297 
	C949.086853,621.688354 967.111023,618.219727 984.914001,614.088013 
	C1003.015015,609.887146 1020.843933,604.478821 1038.711792,599.321167 
	C1049.389648,596.238892 1060.037231,592.963318 1070.477905,589.167908 
	C1087.115234,583.119995 1103.726196,576.943237 1120.056396,570.122070 
	C1137.164429,562.976013 1154.193481,555.536621 1170.772339,547.255005 
	C1189.400146,537.949890 1207.743042,528.001953 1225.751465,517.544312 
	C1258.492188,498.531372 1289.610718,477.026459 1319.260864,453.497467 
	C1353.545166,426.290894 1386.247192,397.215057 1415.535767,364.665009 
	C1438.298950,339.367126 1460.680298,313.593628 1481.375732,286.608429 
	C1498.370605,264.448578 1512.958252,240.400223 1527.975342,216.783478 
	C1535.556763,204.860611 1542.196899,192.269073 1548.394287,179.556458 
	C1554.216431,167.613632 1558.978516,155.147705 1564.045410,142.845383 
	C1566.991089,135.693222 1569.732910,128.450806 1572.325439,121.163246 
	C1573.200073,118.704361 1573.735474,115.982719 1573.743164,113.379120 
	C1573.843994,79.549553 1573.740112,45.719185 1573.921631,11.890272 
	C1573.947754,6.999709 1571.629517,6.641287 1567.768311,6.646083 
	C1487.275757,6.746050 1406.782959,6.783970 1326.290283,6.783206 
	C1020.818237,6.780304 715.346252,6.766231 409.874237,6.741842 
	C275.719910,6.731131 141.565598,6.685126 7.411273,6.660740 
	C5.578984,6.660407 3.746682,6.733306 1.457193,6.886012 
	C1.000000,5.000195 1.000000,3.000389 1.000000,1.000438 
	C544.946899,1.000292 1088.893799,1.000292 1632.920410,1.000292 
	C1632.920410,214.259430 1632.920410,427.518921 1632.920410,640.889160 
	C1089.000000,640.889160 545.000000,640.889160 1.000004,640.884766 
	C1.000000,444.899353 1.000000,248.918335 1.000000,52.468658 
z"/>
<path fill="#FAFBFE" opacity="1.000000" stroke="none" 
	d="
M420.924591,371.344788 
	C419.862671,371.276184 418.800781,371.207581 416.987183,371.012634 
	C406.177216,371.021973 396.118958,371.157684 386.060669,371.293365 
	C385.315186,371.262360 384.569672,371.231323 383.128296,371.106659 
	C376.922760,369.379517 375.939423,365.261902 375.944977,360.138489 
	C376.011505,298.872681 375.976562,237.606735 375.942810,176.340836 
	C375.941833,174.535172 375.663452,172.729675 375.587585,170.574936 
	C375.632477,169.516449 375.604248,168.807129 375.811829,167.881714 
	C378.772308,166.124390 381.440247,163.378342 384.231293,163.246887 
	C397.525970,162.620804 410.856628,162.514267 424.168304,162.690018 
	C427.018799,162.727661 430.714813,163.928635 432.508789,165.941650 
	C436.993805,170.974304 440.719086,176.706390 444.549896,182.294449 
	C450.242798,190.598801 455.649414,199.100204 461.383301,207.375443 
	C471.268890,221.642532 481.613007,235.600891 491.200226,250.063004 
	C499.757751,262.971802 507.529480,276.400726 515.741089,289.541901 
	C516.229980,290.324219 517.547302,290.958374 518.478821,290.957855 
	C519.050110,290.957520 520.008362,289.669037 520.118164,288.866669 
	C520.432800,286.568939 520.502197,284.223755 520.494080,281.897827 
	C520.365784,245.091888 520.191162,208.286102 520.079041,171.480118 
	C520.059509,165.070831 522.957764,162.810028 529.468445,162.978806 
	C540.117188,163.254852 550.784851,163.472885 561.426575,163.141220 
	C569.870728,162.878052 571.811951,164.201050 571.818909,172.790482 
	C571.863098,227.259430 571.838440,281.728455 571.898499,336.197388 
	C571.907654,344.496948 572.239075,352.796143 572.348999,361.463043 
	C572.300354,362.827820 572.324036,363.825043 572.119995,365.044739 
	C569.649353,369.334625 566.336304,371.061005 561.609253,370.556000 
	C558.157410,370.187225 554.638184,370.300049 551.154968,370.402863 
	C542.566467,370.656311 533.981384,371.027588 525.177185,371.299744 
	C524.654846,371.223358 524.363525,371.274323 523.768921,371.224823 
	C520.586609,369.749054 516.793640,369.192291 515.039001,367.002350 
	C510.755127,361.655609 507.514984,355.485596 503.673798,349.768494 
	C495.293518,337.295502 486.814819,324.888489 478.349213,312.472992 
	C472.120209,303.337646 465.791534,294.269745 459.620026,285.095917 
	C456.679962,280.725586 454.126740,276.094757 451.179993,271.729279 
	C445.019226,262.602356 438.736572,253.557236 432.439911,244.523193 
	C431.608856,243.330902 430.402863,242.399994 429.370514,241.348038 
	C428.715973,242.702118 427.524689,244.044113 427.493927,245.412216 
	C427.292389,254.380249 427.313110,263.353912 427.314117,272.325745 
	C427.317413,301.972382 427.298279,331.619171 427.404419,361.265503 
	C427.422119,366.207458 425.378906,369.459473 420.924591,371.344788 
z"/>
<path fill="#F9FAFE" opacity="1.000000" stroke="none" 
	d="
M1190.511230,347.999451 
	C1190.524414,353.330475 1190.595581,358.162567 1190.531738,362.992889 
	C1190.457397,368.632385 1188.196045,371.005127 1182.701416,371.007477 
	C1171.373169,371.012299 1160.044556,370.925415 1148.716919,370.798920 
	C1144.215698,370.748627 1141.098755,367.675598 1140.271240,362.615875 
	C1140.003296,360.977875 1139.985962,359.299835 1139.829590,357.642395 
	C1139.692993,356.194336 1139.522339,354.749481 1139.287964,352.571503 
	C1134.422485,356.424377 1129.977417,359.668945 1125.851196,363.278107 
	C1120.085693,368.321228 1113.736938,371.701782 1105.946655,372.295013 
	C1097.222534,372.959351 1088.522339,374.584167 1079.810669,374.592529 
	C1070.159790,374.601807 1061.799561,369.812561 1053.338867,365.472015 
	C1039.455566,358.349518 1030.764893,346.511414 1024.541504,333.111603 
	C1018.404846,319.898560 1016.470703,305.403625 1017.064331,290.751587 
	C1017.306824,284.766510 1017.397278,278.696045 1018.515564,272.847778 
	C1019.654968,266.889069 1021.921509,261.139130 1023.795471,255.330338 
	C1024.754761,252.356964 1025.584106,249.261551 1027.075928,246.553925 
	C1033.523438,234.851624 1042.790771,226.090790 1054.435791,219.384918 
	C1067.297363,211.978394 1081.070190,210.771255 1095.342529,211.264282 
	C1110.776489,211.797455 1123.635132,218.282547 1135.512451,228.924088 
	C1136.352783,227.341354 1137.454834,226.087250 1137.666260,224.697586 
	C1138.114258,221.753738 1138.252441,218.738861 1138.246460,215.753647 
	C1138.213135,199.430908 1137.976685,183.107697 1138.061768,166.785950 
	C1138.103882,158.681839 1139.869995,157.274429 1147.907471,157.294220 
	C1158.568848,157.320496 1169.231079,157.314926 1179.891968,157.218460 
	C1188.444336,157.141083 1190.506592,159.111771 1190.505615,167.575058 
	C1190.499512,227.549942 1190.506714,287.524841 1190.511230,347.999451 
M1137.954102,279.764679 
	C1135.748291,275.018799 1133.977905,270.004883 1131.253418,265.578308 
	C1123.710815,253.323761 1104.772095,246.792923 1092.240356,252.785950 
	C1079.494019,258.881561 1070.915405,268.815857 1070.302368,283.754639 
	C1069.895020,293.676453 1070.068237,303.357422 1073.637451,313.161926 
	C1078.059204,325.308472 1088.731812,334.788879 1101.546997,335.252716 
	C1108.135864,335.491180 1114.574341,335.063385 1120.372559,331.736115 
	C1127.938721,327.394409 1134.187012,320.649902 1136.008301,312.741760 
	C1138.384521,302.423340 1137.528564,291.360596 1137.954102,279.764679 
z"/>
<path fill="#F8FAFE" opacity="1.000000" stroke="none" 
	d="
M647.437866,220.489929 
	C662.778992,212.345047 679.166687,210.853424 695.681213,210.727127 
	C704.463806,210.659943 713.801086,210.279480 721.924561,212.959946 
	C736.125854,217.645905 751.227356,221.654831 759.921265,236.173523 
	C765.131470,244.874405 769.374634,253.682297 769.457214,263.956299 
	C769.674255,290.953003 769.608337,317.952850 769.994934,344.946594 
	C770.069153,350.128418 771.290161,355.401703 772.705078,360.429352 
	C774.514465,366.858673 772.241882,370.749939 765.636841,370.821167 
	C753.972290,370.947021 742.305908,370.950775 730.640381,370.930206 
	C724.928589,370.920135 721.691284,367.865936 721.339844,362.122253 
	C721.152832,359.065338 721.306641,355.987610 721.306641,352.919250 
	C720.806274,352.707550 720.305969,352.495880 719.805603,352.284180 
	C718.281860,353.557281 716.676819,354.746368 715.252991,356.122803 
	C713.022522,358.279022 711.221313,361.015503 708.704773,362.717438 
	C692.556885,373.638123 674.560181,377.368103 655.519470,374.287811 
	C639.943481,371.768066 625.787170,366.021912 617.307312,351.229828 
	C610.996765,340.221893 609.975525,328.573303 613.427002,316.623199 
	C615.431763,309.681824 617.477112,302.330231 623.912781,297.945496 
	C629.611816,294.062683 635.432678,289.975616 641.794373,287.518097 
	C663.916870,278.972107 687.452393,277.882507 710.735840,275.679108 
	C716.156860,275.166016 717.422302,273.740356 717.766785,268.193268 
	C718.579956,255.097092 711.905823,250.565308 700.566772,248.996017 
	C692.617920,247.895874 684.185547,246.911041 676.875916,252.007355 
	C674.632751,253.571365 672.898621,255.851654 670.708618,257.509766 
	C668.754700,258.989044 666.527161,261.074677 664.362244,261.146637 
	C652.376160,261.545319 640.371460,261.347626 628.374756,261.490204 
	C623.864868,261.543793 622.396301,259.425903 622.108887,255.096481 
	C621.503784,245.982208 625.607788,239.029373 631.779419,233.177429 
	C636.556763,228.647537 641.964966,224.782944 647.437866,220.489929 
M678.382751,340.045380 
	C686.404968,342.459900 694.599243,341.728851 701.853516,338.463806 
	C713.347107,333.290710 720.002686,318.651886 717.479492,306.353455 
	C717.220398,305.090332 714.712036,303.268799 713.416626,303.398407 
	C702.388489,304.501831 691.324890,304.083954 680.291687,306.898651 
	C671.095581,309.244629 667.465820,315.694366 663.769104,322.525940 
	C662.653564,324.587585 663.578125,328.494965 664.808716,330.929871 
	C667.362122,335.981842 671.557495,339.419952 678.382751,340.045380 
z"/>
<path fill="#577FF8" opacity="1.000000" stroke="none" 
	d="
M992.557739,312.908447 
	C992.801941,323.494293 986.846741,331.872803 983.954407,341.074097 
	C982.374146,346.101135 976.795593,349.981750 972.723267,354.084717 
	C968.432068,358.408112 964.254272,363.135651 959.160645,366.285980 
	C954.414001,369.221619 948.155212,369.638214 943.219604,372.357330 
	C931.696777,378.705505 919.463013,375.241455 907.545654,375.788971 
	C904.763916,375.916748 901.848633,374.510925 899.092834,373.533997 
	C894.023132,371.736786 888.723816,370.272003 884.085266,367.663696 
	C879.573242,365.126556 875.769348,361.330139 871.073303,357.628479 
	C869.650574,361.753662 868.967834,365.213745 867.280457,368.082977 
	C866.231506,369.866730 863.690308,371.821930 861.769165,371.874268 
	C848.945312,372.223541 836.107300,372.168854 823.275513,372.058441 
	C817.523743,372.008942 815.208557,369.097107 815.202454,362.462280 
	C815.161987,318.462555 815.131531,274.462830 815.115234,230.463104 
	C815.107544,209.629929 815.127197,188.796722 815.156250,167.963562 
	C815.170166,157.977859 817.201843,155.929703 827.115784,155.933456 
	C838.615295,155.937805 850.114990,155.965790 861.614258,156.043396 
	C868.184143,156.087723 869.896851,157.748947 869.938477,164.397705 
	C870.035583,179.883224 870.017151,195.369476 870.046265,210.855423 
	C870.049438,212.522064 869.780640,214.248505 870.125183,215.841843 
	C870.695862,218.480606 871.662903,221.033646 872.462952,223.622803 
	C874.868774,222.694626 877.629333,222.244156 879.624329,220.762711 
	C895.693909,208.829376 914.221680,207.228958 933.143127,208.443649 
	C938.262207,208.772278 943.213135,212.075195 948.191833,214.132660 
	C953.064209,216.146194 958.691101,217.354584 962.525757,220.627960 
	C968.851074,226.027344 974.029602,232.778168 979.626404,239.017792 
	C981.159546,240.727051 982.194641,242.962662 983.919617,244.404877 
	C988.596008,248.314468 988.394958,254.252731 989.993591,259.242554 
	C992.450500,266.911133 993.896545,275.005585 994.828003,283.028870 
	C995.587891,289.573975 995.203125,296.291870 994.856445,302.908539 
	C994.687378,306.136505 993.447815,309.308380 992.557739,312.908447 
M980.335510,340.683380 
	C981.589417,337.662750 982.954407,334.682678 984.073425,331.612885 
	C986.216431,325.733978 989.548157,319.905121 990.006653,313.874542 
	C990.986633,300.984100 991.099854,287.940094 990.341858,275.031036 
	C989.650757,263.261505 985.298950,252.514053 979.160767,242.149307 
	C969.878601,226.475601 955.941833,217.320007 939.220825,213.389236 
	C919.003174,208.636490 898.895691,210.461472 881.003540,222.703140 
	C877.067017,225.396469 873.608032,228.787613 869.168091,232.492523 
	C868.850708,229.807327 868.350830,227.475647 868.334595,225.140594 
	C868.199219,205.653854 868.165161,186.166458 868.072571,166.679382 
	C868.042542,160.356339 865.458313,157.755371 859.498657,157.724640 
	C848.673462,157.668823 837.848755,157.514145 827.023499,157.458771 
	C819.904175,157.422348 816.896362,160.575439 816.932556,167.837173 
	C817.024719,186.324768 817.166504,204.812347 817.181335,223.300034 
	C817.218628,269.768463 817.191528,316.236969 817.206665,362.705444 
	C817.208191,367.429443 820.181030,370.628113 824.851746,370.649750 
	C836.510376,370.703766 848.173340,370.734985 859.824768,370.416748 
	C861.449463,370.372345 863.904968,368.621429 864.442200,367.113892 
	C865.861938,363.130066 866.366821,358.827942 867.399536,354.693390 
	C867.681396,353.565216 868.542480,352.581726 869.137756,351.531830 
	C870.151978,352.199097 871.321777,352.717896 872.138245,353.573853 
	C873.018066,354.496094 873.381042,355.925476 874.287842,356.805664 
	C886.868774,369.017609 902.554138,374.393066 919.480042,374.111450 
	C929.318237,373.947723 939.175354,370.302673 948.877808,367.682861 
	C963.259277,363.799622 971.854980,352.776733 980.335510,340.683380 
z"/>
<path fill="#577FF9" opacity="1.000000" stroke="none" 
	d="
M572.421448,361.095520 
	C572.239075,352.796143 571.907654,344.496948 571.898499,336.197388 
	C571.838440,281.728455 571.863098,227.259430 571.818909,172.790482 
	C571.811951,164.201050 569.870728,162.878052 561.426575,163.141220 
	C550.784851,163.472885 540.117188,163.254852 529.468445,162.978806 
	C522.957764,162.810028 520.059509,165.070831 520.079041,171.480118 
	C520.191162,208.286102 520.365784,245.091888 520.494080,281.897827 
	C520.502197,284.223755 520.432800,286.568939 520.118164,288.866669 
	C520.008362,289.669037 519.050110,290.957520 518.478821,290.957855 
	C517.547302,290.958374 516.229980,290.324219 515.741089,289.541901 
	C507.529480,276.400726 499.757751,262.971802 491.200226,250.063004 
	C481.613007,235.600891 471.268890,221.642532 461.383301,207.375443 
	C455.649414,199.100204 450.242798,190.598801 444.549896,182.294449 
	C440.719086,176.706390 436.993805,170.974304 432.508789,165.941650 
	C430.714813,163.928635 427.018799,162.727661 424.168304,162.690018 
	C410.856628,162.514267 397.525970,162.620804 384.231293,163.246887 
	C381.440247,163.378342 378.772308,166.124390 375.541412,167.640091 
	C374.756775,166.683182 374.478333,165.751785 374.199921,164.820404 
	C378.003998,160.744827 382.661346,159.798279 388.169891,159.868546 
	C399.981354,160.019241 411.804901,159.534485 423.617828,159.139496 
	C430.258911,158.917435 434.426849,161.662384 437.269073,167.808151 
	C439.162933,171.903351 442.737885,175.193771 445.345337,178.992050 
	C450.669739,186.748230 455.749756,194.673050 461.118286,202.397827 
	C465.728088,209.030777 470.756470,215.374496 475.318024,222.038940 
	C482.135040,231.998520 488.677887,242.145325 495.389313,252.177719 
	C499.772156,258.729279 504.444580,265.096069 508.612488,271.779388 
	C511.482452,276.381439 513.697815,281.390564 516.239990,286.199646 
	C516.588806,286.859497 517.136108,287.414429 518.457275,289.165131 
	C518.716614,286.181305 519.019165,284.474792 518.988647,282.774261 
	C518.714905,267.492401 518.212341,252.212723 518.108582,236.930145 
	C517.963745,215.599319 518.392029,194.261185 517.991760,172.937119 
	C517.811890,163.354080 521.930298,159.374268 531.497620,159.865738 
	C542.302368,160.420761 553.156677,159.981033 563.988892,160.049118 
	C568.093079,160.074905 571.977783,160.721024 573.797607,166.050247 
	C573.827209,168.706390 573.817810,170.535843 573.818848,172.365295 
	C573.851929,231.907974 573.910461,291.450684 573.855713,350.993286 
	C573.852661,354.361145 572.920959,357.728119 572.421448,361.095520 
z"/>
<path fill="#577FF9" opacity="1.000000" stroke="none" 
	d="
M421.081787,371.606384 
	C425.378906,369.459473 427.422119,366.207458 427.404419,361.265503 
	C427.298279,331.619171 427.317413,301.972382 427.314117,272.325745 
	C427.313110,263.353912 427.292389,254.380249 427.493927,245.412216 
	C427.524689,244.044113 428.715973,242.702118 429.370514,241.348038 
	C430.402863,242.399994 431.608856,243.330902 432.439911,244.523193 
	C438.736572,253.557236 445.019226,262.602356 451.179993,271.729279 
	C454.126740,276.094757 456.679962,280.725586 459.620026,285.095917 
	C465.791534,294.269745 472.120209,303.337646 478.349213,312.472992 
	C486.814819,324.888489 495.293518,337.295502 503.673798,349.768494 
	C507.514984,355.485596 510.755127,361.655609 515.039001,367.002350 
	C516.793640,369.192291 520.586609,369.749054 523.587219,371.511902 
	C523.117798,372.277679 522.513428,372.580322 521.909058,372.882935 
	C514.880005,372.580597 513.633850,371.197144 510.566681,364.603149 
	C508.504913,360.170593 505.194153,356.317810 502.432373,352.212219 
	C490.703522,334.776306 478.991302,317.329163 467.231781,299.913940 
	C460.771149,290.346191 454.316895,280.771698 447.679047,271.327301 
	C445.064117,267.606720 441.956848,264.232147 439.004028,259.980713 
	C437.325714,254.985352 435.477081,250.904068 429.538208,248.232178 
	C430.057587,253.511734 430.479370,257.799133 430.901123,262.086548 
	C430.586395,267.363617 430.021454,272.639587 429.998718,277.917908 
	C429.876556,306.302185 429.925568,334.687225 429.829346,363.071686 
	C429.805695,370.050201 427.016815,372.745667 421.081787,371.606384 
z"/>
<path fill="#194FF4" opacity="1.000000" stroke="none" 
	d="
M572.348999,361.463043 
	C572.920959,357.728119 573.852661,354.361145 573.855713,350.993286 
	C573.910461,291.450684 573.851929,231.907974 573.818848,172.365295 
	C573.817810,170.535843 573.827209,168.706390 573.852905,166.399719 
	C574.914551,167.923965 576.854126,169.927963 576.848572,171.926498 
	C576.814148,184.215210 576.083130,196.502716 576.084534,208.790558 
	C576.085938,221.217621 576.989258,233.646088 576.932861,246.071350 
	C576.782959,279.108948 576.286377,312.144836 576.041504,345.182251 
	C576.004700,350.147217 576.671082,355.113678 576.835144,360.085297 
	C576.929077,362.931213 578.069214,366.245728 573.931213,367.656006 
	C573.142578,366.540924 572.745178,365.681610 572.347778,364.822296 
	C572.324036,363.825043 572.300354,362.827820 572.348999,361.463043 
z"/>
<path fill="#1A50F5" opacity="1.000000" stroke="none" 
	d="
M373.852661,165.040741 
	C374.478333,165.751785 374.756775,166.683182 375.305603,167.856186 
	C375.604248,168.807129 375.632477,169.516449 375.294678,170.885040 
	C374.670380,173.166504 374.186432,174.788666 374.186340,176.410873 
	C374.183838,239.942734 374.225403,303.474579 374.261200,367.006439 
	C373.181244,365.383575 371.162170,363.758148 371.166626,362.138275 
	C371.210785,346.021942 371.666809,329.907318 371.845184,313.790466 
	C371.960999,303.326874 371.794495,292.860352 371.782959,282.395111 
	C371.775513,275.633728 371.809296,268.872223 371.843475,262.110870 
	C371.881989,254.496750 371.979034,246.882767 371.985260,239.268661 
	C372.003601,216.774719 371.948181,194.280548 372.054657,171.787109 
	C372.064972,169.609512 372.999756,167.436310 373.852661,165.040741 
z"/>
<path fill="#577FF9" opacity="1.000000" stroke="none" 
	d="
M374.420532,367.291687 
	C374.225403,303.474579 374.183838,239.942734 374.186340,176.410873 
	C374.186432,174.788666 374.670380,173.166504 375.221527,171.234222 
	C375.663452,172.729675 375.941833,174.535172 375.942810,176.340836 
	C375.976562,237.606735 376.011505,298.872681 375.944977,360.138489 
	C375.939423,365.261902 376.922760,369.379517 382.763062,371.191437 
	C378.559143,373.913818 376.347504,371.243774 374.420532,367.291687 
z"/>
<path fill="#1652FB" opacity="1.000000" stroke="none" 
	d="
M1193.070312,363.948730 
	C1193.036743,297.543579 1193.036743,231.512665 1193.036743,165.481766 
	C1193.555298,165.437714 1194.073730,165.393661 1194.592285,165.349625 
	C1194.727295,167.000275 1194.979858,168.650894 1194.980469,170.301590 
	C1195.001343,233.761841 1195.001587,297.222107 1194.984863,360.682343 
	C1194.984497,362.163422 1194.757202,363.644440 1194.635742,365.125488 
	C1194.125122,364.858002 1193.614380,364.590485 1193.070312,363.948730 
z"/>
<path fill="#1652F5" opacity="1.000000" stroke="none" 
	d="
M772.020508,339.977478 
	C772.020813,311.479004 772.020813,283.476624 772.020813,255.474213 
	C772.513489,255.478256 773.006226,255.482300 773.498901,255.486343 
	C773.498901,287.495239 773.498901,319.504120 773.498901,351.513000 
	C773.005981,351.524048 772.513123,351.535126 772.020203,351.546173 
	C772.020203,347.855316 772.020203,344.164429 772.020508,339.977478 
z"/>
<path fill="#1650F5" opacity="1.000000" stroke="none" 
	d="
M522.117188,373.223206 
	C522.513428,372.580322 523.117798,372.277679 523.903809,371.687958 
	C524.363525,371.274323 524.654846,371.223358 525.655029,371.498535 
	C529.497009,371.846039 532.642883,371.971375 535.789917,372.034821 
	C546.567383,372.252106 557.345276,372.447693 568.123047,372.651550 
	C566.790039,373.424652 565.465393,374.852203 564.122803,374.869202 
	C551.205139,375.032837 538.284241,374.989899 525.365112,374.892731 
	C524.348572,374.885101 523.338440,374.026489 522.117188,373.223206 
z"/>
<path fill="#577FF9" opacity="1.000000" stroke="none" 
	d="
M568.402100,372.537659 
	C557.345276,372.447693 546.567383,372.252106 535.789917,372.034821 
	C532.642883,371.971375 529.497009,371.846039 525.872803,371.550262 
	C533.981384,371.027588 542.566467,370.656311 551.154968,370.402863 
	C554.638184,370.300049 558.157410,370.187225 561.609253,370.556000 
	C566.336304,371.061005 569.649353,369.334625 572.119995,365.044739 
	C572.745178,365.681610 573.142578,366.540924 573.544495,367.774323 
	C571.926392,369.573517 570.303772,370.998627 568.402100,372.537659 
z"/>
<path fill="#1B52F0" opacity="1.000000" stroke="none" 
	d="
M431.220520,261.880554 
	C430.479370,257.799133 430.057587,253.511734 429.538208,248.232178 
	C435.477081,250.904068 437.325714,254.985352 438.940247,259.626770 
	C436.477448,260.552948 434.008698,261.113770 431.220520,261.880554 
z"/>
<path fill="#577FF9" opacity="1.000000" stroke="none" 
	d="
M386.414673,371.496429 
	C396.118958,371.157684 406.177216,371.021973 416.591827,371.079590 
	C406.888306,371.415131 396.828491,371.557312 386.414673,371.496429 
z"/>
<path fill="#2C5FFA" opacity="1.000000" stroke="none" 
	d="
M1138.008789,280.191406 
	C1137.528564,291.360596 1138.384521,302.423340 1136.008301,312.741760 
	C1134.187012,320.649902 1127.938721,327.394409 1120.372559,331.736115 
	C1114.574341,335.063385 1108.135864,335.491180 1101.546997,335.252716 
	C1088.731812,334.788879 1078.059204,325.308472 1073.637451,313.161926 
	C1070.068237,303.357422 1069.895020,293.676453 1070.302368,283.754639 
	C1070.915405,268.815857 1079.494019,258.881561 1092.240356,252.785950 
	C1104.772095,246.792923 1123.710815,253.323761 1131.253418,265.578308 
	C1133.977905,270.004883 1135.748291,275.018799 1138.008789,280.191406 
z"/>
<path fill="#2F61F8" opacity="1.000000" stroke="none" 
	d="
M677.994812,339.921875 
	C671.557495,339.419952 667.362122,335.981842 664.808716,330.929871 
	C663.578125,328.494965 662.653564,324.587585 663.769104,322.525940 
	C667.465820,315.694366 671.095581,309.244629 680.291687,306.898651 
	C691.324890,304.083954 702.388489,304.501831 713.416626,303.398407 
	C714.712036,303.268799 717.220398,305.090332 717.479492,306.353455 
	C720.002686,318.651886 713.347107,333.290710 701.853516,338.463806 
	C694.599243,341.728851 686.404968,342.459900 677.994812,339.921875 
z"/>
<path fill="#F9FAFE" opacity="1.000000" stroke="none" 
	d="
M980.161377,341.015503 
	C971.854980,352.776733 963.259277,363.799622 948.877808,367.682861 
	C939.175354,370.302673 929.318237,373.947723 919.480042,374.111450 
	C902.554138,374.393066 886.868774,369.017609 874.287842,356.805664 
	C873.381042,355.925476 873.018066,354.496094 872.138245,353.573853 
	C871.321777,352.717896 870.151978,352.199097 869.137695,351.531799 
	C868.542480,352.581726 867.681396,353.565216 867.399536,354.693390 
	C866.366821,358.827942 865.861938,363.130066 864.442200,367.113892 
	C863.904968,368.621429 861.449463,370.372345 859.824768,370.416748 
	C848.173340,370.734985 836.510376,370.703766 824.851746,370.649750 
	C820.181030,370.628113 817.208191,367.429443 817.206665,362.705444 
	C817.191528,316.236969 817.218628,269.768463 817.181335,223.300034 
	C817.166504,204.812347 817.024719,186.324768 816.932556,167.837173 
	C816.896362,160.575439 819.904175,157.422348 827.023499,157.458771 
	C837.848755,157.514145 848.673462,157.668823 859.498657,157.724640 
	C865.458313,157.755371 868.042542,160.356339 868.072571,166.679382 
	C868.165161,186.166458 868.199219,205.653854 868.334595,225.140594 
	C868.350830,227.475647 868.850708,229.807327 869.168091,232.492523 
	C873.608032,228.787613 877.067017,225.396469 881.003540,222.703140 
	C898.895691,210.461472 919.003174,208.636490 939.220825,213.389236 
	C955.941833,217.320007 969.878601,226.475601 979.160767,242.149307 
	C985.298950,252.514053 989.650757,263.261505 990.341858,275.031036 
	C991.099854,287.940094 990.986633,300.984100 990.006653,313.874542 
	C989.548157,319.905121 986.216431,325.733978 984.073425,331.612885 
	C982.954407,334.682678 981.589417,337.662750 980.161377,341.015503 
M868.713196,283.303528 
	C868.633301,288.629700 867.852966,294.063629 868.651184,299.254761 
	C869.646301,305.726105 870.733032,312.722778 873.995667,318.164246 
	C877.747864,324.422424 883.062012,329.721588 890.828247,332.617859 
	C899.016541,335.671600 907.095886,335.899353 914.653503,333.459412 
	C928.883484,328.865295 939.064148,314.078979 938.684509,298.742432 
	C938.480957,290.518036 937.600952,282.024536 935.184143,274.223083 
	C932.878784,266.781219 928.598938,259.756226 921.222046,255.602798 
	C911.567200,250.166870 901.180603,252.403320 890.979980,252.774902 
	C890.366577,252.797241 889.753296,253.255707 889.168335,253.564896 
	C877.488464,259.738708 871.421753,269.878296 868.713196,283.303528 
z"/>
<path fill="#2B5EFA" opacity="1.000000" stroke="none" 
	d="
M868.750610,282.871399 
	C871.421753,269.878296 877.488464,259.738708 889.168335,253.564896 
	C889.753296,253.255707 890.366577,252.797241 890.979980,252.774902 
	C901.180603,252.403320 911.567200,250.166870 921.222046,255.602798 
	C928.598938,259.756226 932.878784,266.781219 935.184143,274.223083 
	C937.600952,282.024536 938.480957,290.518036 938.684509,298.742432 
	C939.064148,314.078979 928.883484,328.865295 914.653503,333.459412 
	C907.095886,335.899353 899.016541,335.671600 890.828247,332.617859 
	C883.062012,329.721588 877.747864,324.422424 873.995667,318.164246 
	C870.733032,312.722778 869.646301,305.726105 868.651184,299.254761 
	C867.852966,294.063629 868.633301,288.629700 868.750610,282.871399 
z"/>
</svg>