<svg enable-background="new 0 0 500 500" viewBox="0 0 500 500" xmlns="http://www.w3.org/2000/svg" xmlns:xlink="http://www.w3.org/1999/xlink"><linearGradient id="a"><stop offset="0" stop-color="#898993"/><stop offset=".0262" stop-color="#9696a1"/><stop offset=".1268" stop-color="#c6c6d1"/><stop offset=".2037" stop-color="#e3e3ef"/><stop offset=".2472" stop-color="#eeeefa"/><stop offset=".3576" stop-color="#c3c3cf"/><stop offset=".4589" stop-color="#a3a3ae"/><stop offset=".5435" stop-color="#90909a"/><stop offset=".6009" stop-color="#898993"/><stop offset=".6094" stop-color="#9a9aa4"/><stop offset=".6258" stop-color="#b4b4bf"/><stop offset=".6446" stop-color="#c9c9d5"/><stop offset=".6667" stop-color="#dadae6"/><stop offset=".6939" stop-color="#e6e6f1"/><stop offset=".7321" stop-color="#ececf8"/><stop offset=".8382" stop-color="#eeeefa"/><stop offset=".8421" stop-color="#ececf8"/><stop offset=".9475" stop-color="#bfbfc8"/><stop offset="1" stop-color="#aeaeb6"/></linearGradient><linearGradient id="b" gradientTransform="matrix(51.6818 89.5154 -89.5154 51.6818 273980.75 -104768.875)" gradientUnits="userSpaceOnUse" x1="-444.9837" x2="-443.9837" xlink:href="#a" y1="2800.7205" y2="2800.7205"/><linearGradient id="c" gradientTransform="matrix(51.6818 89.5154 -89.5154 51.6818 273980.75 -104768.875)" gradientUnits="userSpaceOnUse" x1="-444.9837" x2="-443.9837" xlink:href="#a" y1="2801.2981" y2="2801.2981"/><linearGradient id="d" gradientTransform="matrix(51.6818 89.5154 -89.5154 51.6818 273980.75 -104768.875)" gradientUnits="userSpaceOnUse" x1="-444.9837" x2="-443.9837" xlink:href="#a" y1="2801.3391" y2="2801.3391"/><linearGradient id="e"><stop offset="0" stop-color="#eeeefa"/><stop offset=".0958" stop-color="#c3c3cf"/><stop offset=".1837" stop-color="#a3a3ae"/><stop offset=".257" stop-color="#90909a"/><stop offset=".3068" stop-color="#898993"/><stop offset=".3168" stop-color="#9a9aa4"/><stop offset=".3363" stop-color="#b4b4bf"/><stop offset=".3587" stop-color="#c9c9d5"/><stop offset=".3849" stop-color="#dadae6"/><stop offset=".4173" stop-color="#e6e6f1"/><stop offset=".4627" stop-color="#ececf8"/><stop offset=".5888" stop-color="#eeeefa"/><stop offset=".5991" stop-color="#ebebf7"/><stop offset=".6998" stop-color="#d0d0da"/><stop offset=".8006" stop-color="#bdbdc6"/><stop offset=".9009" stop-color="#b2b2ba"/><stop offset="1" stop-color="#aeaeb6"/></linearGradient><linearGradient id="f" gradientTransform="matrix(82.8901 -143.5699 143.5699 82.8901 -366298.4062 -297389.7188)" gradientUnits="userSpaceOnUse" x1="-449.7053" x2="-448.7053" xlink:href="#e" y1="2812.2734" y2="2812.2734"/><linearGradient id="g" gradientTransform="matrix(51.6818 89.5154 -89.5154 51.6818 273980.75 -104768.875)" gradientUnits="userSpaceOnUse" x1="-444.9837" x2="-443.9837" xlink:href="#a" y1="2801.2949" y2="2801.2949"/><linearGradient id="h" gradientTransform="matrix(82.8901 -143.5699 143.5699 82.8901 -366298.4062 -297389.7188)" gradientUnits="userSpaceOnUse" x1="-449.7053" x2="-448.7053" xlink:href="#e" y1="2812.2456" y2="2812.2456"/><linearGradient id="i"><stop offset="0" stop-color="#eeeefa"/><stop offset=".0964" stop-color="#c3c3ce"/><stop offset=".1839" stop-color="#a3a3ae"/><stop offset=".257" stop-color="#90909a"/><stop offset=".3068" stop-color="#898993"/><stop offset=".3168" stop-color="#9a9aa4"/><stop offset=".3363" stop-color="#b4b4bf"/><stop offset=".3587" stop-color="#c9c9d5"/><stop offset=".3849" stop-color="#dadae6"/><stop offset=".4173" stop-color="#e6e6f1"/><stop offset=".4627" stop-color="#ececf8"/><stop offset=".5888" stop-color="#eeeefa"/><stop offset=".5999" stop-color="#ebebf6"/><stop offset=".7001" stop-color="#d0d0da"/><stop offset=".8006" stop-color="#bdbdc6"/><stop offset=".9006" stop-color="#b2b2ba"/><stop offset="1" stop-color="#aeaeb6"/></linearGradient><linearGradient id="j" gradientTransform="matrix(1 0 0 -1 0 313.2756)" gradientUnits="userSpaceOnUse" x1="294.0282" x2="314.8622" xlink:href="#i" y1="109.7787" y2="73.693"/><linearGradient id="k" gradientTransform="matrix(1 0 0 -1 0 313.2756)" gradientUnits="userSpaceOnUse" x1="280.4321" x2="325.4679" xlink:href="#i" y1="55.3234" y2="133.3278"/><linearGradient id="l" gradientTransform="matrix(1 0 0 -1 0 313.2756)" gradientUnits="userSpaceOnUse" x1="333.2622" x2="350.9795" xlink:href="#i" y1="96.8917" y2="66.2043"/><linearGradient id="m" gradientTransform="matrix(1 0 0 -1 0 313.2756)" gradientUnits="userSpaceOnUse" x1="328.779" x2="355.1904" xlink:href="#i" y1="63.4339" y2="109.1799"/><linearGradient id="n" gradientUnits="userSpaceOnUse" x1="174.7" x2="250.536" xlink:href="#i" y1="207.4324" y2="207.4324"/><linearGradient id="o" gradientTransform="matrix(1 0 0 -1 0 313.2756)" gradientUnits="userSpaceOnUse" x1="246.2999" x2="271.1575" xlink:href="#i" y1="122.4087" y2="79.354"/><linearGradient id="p" gradientTransform="matrix(1 0 0 -1 0 313.2756)" gradientUnits="userSpaceOnUse" x1="232.9456" x2="281.0544" xlink:href="#i" y1="62.2122" y2="145.539"/><linearGradient id="q" gradientTransform="matrix(1 0 0 -1 0 313.2756)" gradientUnits="userSpaceOnUse" x1="336.695" x2="346.6012" xlink:href="#i" y1="82.449" y2="65.2906"/><linearGradient id="r" gradientTransform="matrix(1 0 0 -1 0 313.2756)" gradientUnits="userSpaceOnUse" x1="335.2804" x2="351.7364" xlink:href="#i" y1="60.8111" y2="89.3139"/><path d="m279.8 160 4-9.4-13.5-7.8 13.5 7.8z" fill="url(#b)"/><path d="m165.5 209.6c.1-.2.3-.4.6-.6.6-.4 1.3-.9 2-1.3 5.2-32.6 33.5-57.6 67.5-57.6 29.2 0 54.1 18.4 63.9 44.2l1.3.2c1.1.1 2.1.3 3.2.4-.5-1.6-1.1-3.1-1.8-4.6l-.3-.7.6-.4 7.5-5.6-7-12.1-8.6 3.7-.7.3-.4-.6c-4.1-5.4-8.8-10.1-14.2-14.2l-.6-.4.3-.7 3.7-8.6-12.1-7-5.6 7.5-.4.6-.7-.3c-6.1-2.6-12.7-4.3-19.4-5.2l-.7-.1-.1-.7-1.1-9.3h-14l-1.1 9.3-.1.7-.7.1c-6.7.8-13.3 2.6-19.4 5.2l-.7.3-.4-.6-5.6-7.5-12.1 7 3.7 8.6.3.7-.6.4c-5.4 4.1-10.1 8.8-14.2 14.2l-.4.6-.7-.3-8.6-3.7-7 12.1 7.5 5.6.6.4-.3.7c-2.6 6.1-4.3 12.6-5.2 19.3h.3z" fill="url(#c)"/><path d="m235.6 150.1c-34 0-62.3 25-67.5 57.6.3-.2.7-.4 1.1-.7 5.5-31.8 33.1-56 66.5-56 28.7 0 53.1 17.9 62.9 43.1l1 .1c-9.9-25.7-34.8-44.1-64-44.1z" fill="url(#d)"/><path d="m235.6 150.1c-34 0-62.3 25-67.5 57.6.3-.2.7-.4 1.1-.7 5.5-31.8 33.1-56 66.5-56 28.7 0 53.1 17.9 62.9 43.1l1 .1c-9.9-25.7-34.8-44.1-64-44.1z" fill="url(#f)"/><path d="m311.3 183.8-7.8-13.5-9.3 4c-4.1-5.4-8.9-10.3-14.4-14.4l4-9.3-13.5-7.8-6.1 8.2c-6.2-2.6-12.8-4.4-19.6-5.2l-1.2-10.1h-15.6l-1.2 10.1c-6.9.8-13.5 2.6-19.6 5.2l-6.1-8.2-13.5 7.8 4 9.3c-5.4 4.1-10.3 8.9-14.4 14.4l-9.3-4-7.8 13.5 8.2 6.1c-2.6 6.2-4.4 12.7-5.2 19.6h.9c.8-6.7 2.6-13.2 5.2-19.3l.3-.7-.6-.4-7.5-5.6 7-12.1 8.6 3.7.7.3.4-.6c4.1-5.4 8.8-10.1 14.2-14.2l.6-.4-.3-.7-3.7-8.6 12.1-7 5.6 7.5.4.6.7-.3c6.1-2.6 12.7-4.3 19.4-5.2l.7-.1.1-.7 1.1-9.3h14l1.1 9.3.1.7.7.1c6.7.8 13.3 2.6 19.4 5.2l.7.3.4-.6 5.6-7.5 12.1 7-3.7 8.6-.3.7.6.4c5.4 4.1 10.1 8.8 14.2 14.2l.4.6.7-.3 8.6-3.7 7 12.1-7.5 5.6-.6.4.3.7c.6 1.5 1.2 3.1 1.8 4.6.3 0 .7.1 1 .1-.6-1.7-1.2-3.4-1.9-5.1z" fill="url(#g)"/><path d="m311.3 183.8-7.8-13.5-9.3 4c-4.1-5.4-8.9-10.3-14.4-14.4l4-9.3-13.5-7.8-6.1 8.2c-6.2-2.6-12.8-4.4-19.6-5.2l-1.2-10.1h-15.6l-1.2 10.1c-6.9.8-13.5 2.6-19.6 5.2l-6.1-8.2-13.5 7.8 4 9.3c-5.4 4.1-10.3 8.9-14.4 14.4l-9.3-4-7.8 13.5 8.2 6.1c-2.6 6.2-4.4 12.7-5.2 19.6h.9c.8-6.7 2.6-13.2 5.2-19.3l.3-.7-.6-.4-7.5-5.6 7-12.1 8.6 3.7.7.3.4-.6c4.1-5.4 8.8-10.1 14.2-14.2l.6-.4-.3-.7-3.7-8.6 12.1-7 5.6 7.5.4.6.7-.3c6.1-2.6 12.7-4.3 19.4-5.2l.7-.1.1-.7 1.1-9.3h14l1.1 9.3.1.7.7.1c6.7.8 13.3 2.6 19.4 5.2l.7.3.4-.6 5.6-7.5 12.1 7-3.7 8.6-.3.7.6.4c5.4 4.1 10.1 8.8 14.2 14.2l.4.6.7-.3 8.6-3.7 7 12.1-7.5 5.6-.6.4.3.7c.6 1.5 1.2 3.1 1.8 4.6.3 0 .7.1 1 .1-.6-1.7-1.2-3.4-1.9-5.1z" fill="url(#h)"/><path d="m235.6 156.5c-29 0-53.4 20-60.2 46.9 1.4-.7 2.8-1.5 4.3-2.2 7.4-23.8 29.6-41.1 55.8-41.1 23 0 42.9 13.3 52.4 32.6l4.2.6c-9.5-21.7-31.3-36.8-56.5-36.8z" fill="#2f66f6"/><path d="m235.6 160.5c-25.8 0-47.8 17-55.3 40.4.2-.1.4-.2.6-.3 7.6-23 29.2-39.7 54.7-39.7 22.4 0 41.8 12.9 51.4 31.6l.5.1c-9.5-19-29.2-32.1-51.9-32.1z" fill="#2f66f6"/><path d="m235.6 155.6c-29.8 0-54.7 20.7-61.3 48.4.2-.1.4-.2.5-.3 6.7-27.3 31.4-47.7 60.7-47.7 25.5 0 47.5 15.4 57.2 37.3l.5.1c-9.6-22.3-31.8-37.8-57.6-37.8z" fill="#2f66f6"/><path d="m235.6 160.5c22.7 0 42.4 13.1 51.9 32.1l.5.1c-9.6-19.3-29.5-32.6-52.4-32.6-26.2 0-48.4 17.3-55.8 41.1.2-.1.4-.2.6-.3 7.4-23.4 29.3-40.4 55.2-40.4z" fill="#2f66f6"/><path d="m235.6 156.5c25.2 0 47 15.1 56.7 36.8l.5.1c-9.7-22-31.7-37.3-57.2-37.3-29.4 0-54 20.3-60.7 47.7.2-.1.3-.2.5-.3 6.8-27 31.2-47 60.2-47z" fill="#2f66f6"/><path d="m82.9 241.7c2.4-2.4 5.1-4.7 8.1-7 3.9-3 8.2-5.8 12.8-8.3 4.9-2.6 9.6-4.7 14.1-6.1 1.9-.7 3.8-1.2 5.7-1.7.6-.1 1.2-.3 1.7-.4 2.4-.5 5-1 7.6-1.4 5.8-.8 12.1-1.2 19.3-1.2 3.4 0 7.2.1 11.5.3 4.1.2 8.2.4 12.2.7 5.9.4 12.1.7 18.1.9 4.4.2 8.9.3 13.6.3 17.1 0 34-1.4 46.8-2.6 18-1.7 36.3-3.7 55.8-6.1-16.7 3.9-34.9 7.2-55.4 10-10.6 1.5-20.6 2.5-30.4 3.2-6.1.4-12.5.6-19 .6-3.8 0-7.7-.1-11.6-.2-7.1-.3-14.3-.8-21.3-1.3-3-.2-6.1-.4-9.1-.6-4.9-.4-10-.6-15-.6-5.8 0-10.5.2-15 .6-2.4.2-4.8.6-7.4 1-.7.1-1.3.3-2 .4-1.8.4-3.6.7-5.3 1.3-4.3 1.1-8.9 2.8-14.1 5.1-4.3 1.9-8.7 4.3-13.3 7.2-2.9 1.8-5.8 3.9-8.4 5.9z" fill="#2f66f6"/><path d="m305.3 209.9c-15.4 3.4-32 6.3-50.5 8.8-10.7 1.5-20.6 2.5-30.3 3.2-6.1.4-12.5.6-19 .6-3.8 0-7.7-.1-11.6-.2-7.1-.3-14.3-.8-21.3-1.3-3-.2-6.1-.4-9.1-.6-4.9-.4-10-.6-15.1-.6-5.8 0-10.5.2-15 .6-2.4.2-4.8.6-7.4 1-.6.1-1.3.3-1.9.4-1.8.4-3.6.7-5.3 1.3-4.4 1.1-9 2.8-14.1 5.1-4.3 1.9-8.7 4.3-13.3 7.2-1.6 1.1-3.2 2.1-4.7 3.1 1.4-1.2 2.8-2.4 4.4-3.6 3.9-3 8.2-5.8 12.8-8.3 4.9-2.6 9.5-4.6 14.1-6.1 1.8-.7 3.8-1.2 5.7-1.7.6-.1 1.2-.3 1.7-.4 2.4-.5 5-1 7.6-1.4 5.8-.8 12.1-1.2 19.2-1.2 3.4 0 7.2.1 11.4.3 4.1.2 8.2.4 12.2.7 5.9.4 12.1.7 18.1.9 4.4.2 9 .3 13.6.3 17.1 0 34-1.4 46.8-2.6 16.6-1.6 33.3-3.4 51-5.5m9.5-1.7c-20.1 2.5-40.3 4.8-60.4 6.7-15.6 1.5-31.2 2.6-46.8 2.6-4.5 0-9-.1-13.6-.3-10.1-.3-20.1-1.1-30.3-1.6-3.8-.2-7.6-.3-11.5-.3-6.4 0-12.9.3-19.3 1.2-2.6.3-5.1.9-7.7 1.4-2.5.7-5.1 1.2-7.5 2.1-4.9 1.6-9.6 3.7-14.2 6.2-4.5 2.5-8.8 5.2-12.9 8.4-4.1 3.1-7.9 6.5-11.3 10.3 3.8-3.4 7.9-6.3 12.2-9 4.2-2.7 8.6-5.1 13.2-7.2 4.5-2.1 9.2-3.9 14-5.1 2.4-.7 4.8-1.1 7.2-1.7 2.4-.4 4.9-.8 7.3-1 5-.5 9.9-.6 14.9-.6 5 .1 10 .3 15 .6 10 .7 20.2 1.5 30.4 1.9 3.9.1 7.8.2 11.6.2 6.3 0 12.7-.2 19-.6 10.2-.7 20.3-1.8 30.4-3.2 20.5-2.7 40.6-6.2 60.3-11z" fill="#2f66f6"/><path d="m224.8 225.4c13.1-1.1 26.2-2.4 39.2-4.1 6.5-.8 13-1.7 19.4-2.8 6.5-1 12.9-2.3 19.2-3.6l9.6-2.2 4.8-1.1c1.6-.4 3.3-.6 4.9-.9 6.5-1.2 13.1-2 19.8-2.4l5-.3h5c3.3 0 6.6.2 10 .5 6.6.6 13.2 1.6 19.4 4-6.5-1.1-13-1.3-19.5-1.2s-13 .5-19.5 1.2c-6.4.8-12.9 1.6-19.3 2.9-6.4 1.2-12.7 2.6-19.2 4-13 2.6-26.1 4.2-39.3 5.2-13.2.8-26.3 1.2-39.5.8z" style="stroke-width:.75;stroke-linecap:round;stroke-linejoin:round;stroke-miterlimit:10;fill:url(#j);stroke:url(#k)"/><path d="m289.1 226.5c8.9-2.2 17.8-4.3 26.7-6.2 4.4-1 8.9-2 13.5-2.8 4.5-.8 9.1-1.5 13.7-2 9.2-.9 18.6-1.2 27.9.7 4.6.9 9.2 2.5 13.2 5.3 4 2.7 6.9 7 7.5 11.6-1.7-4.3-4.9-7.7-8.8-9.6-3.9-2-8.2-3-12.6-3.6-4.4-.5-8.9-.7-13.3-.5-4.5.1-9 .4-13.5.9-9 .9-17.9 2.4-27 3.8-9 1.1-18.1 2.1-27.3 2.4z" style="stroke-width:.75;stroke-linecap:round;stroke-linejoin:round;stroke-miterlimit:10;fill:url(#l);stroke:url(#m)"/><path d="m240.8 200.8c-16.5-1.6-43.7 1.8-65.1 12.9 0 0 33 2.5 69.3-1.7 0-.1 12.6-9.6-4.2-11.2z" style="fill:none;stroke-width:2;stroke-linecap:round;stroke-linejoin:round;stroke-miterlimit:10;stroke:url(#n)"/><path d="m169.5 214c6.2-4.2 12.9-7.6 19.8-10.6 6.9-2.9 14.1-5.3 21.4-7 7.3-1.8 14.9-2.8 22.5-3.1 3.8-.1 7.6-.1 11.4.3 3.8.3 7.4.7 11.2 1.1 7.4.8 14.8 1.8 22.2 2.7l22.1 3.1c14.7 2 29.5 3.2 44.4 4.3-14.9.9-29.9.7-44.8-.6-14.9-1.2-29.7-3.3-44.4-4.8-3.7-.4-7.4-.8-11.1-1.2-3.6-.4-7.3-.4-10.9-.4-7.3.1-14.6.9-21.8 2.2-14.5 2.6-28.7 7.4-42 14z" style="stroke-width:.75;stroke-linecap:round;stroke-linejoin:round;stroke-miterlimit:10;fill:url(#o);stroke:url(#p)"/><path d="m101.8 233.5c2.2-1.4 4.6-2.4 7-3.3 3.2-1.2 6.7-2.2 10.8-3 6.6-1.3 13.7-2 22.3-2.2h.9c6.3 0 13.3.3 21.4 1l22.1 1.5c5 .3 10.1.6 15.1.9 2.4.1 4.7.3 7.1.4 7.5.3 14.7.6 22.1.8 2.7.1 5.4.1 8.2.1 10 0 20.4-.4 31.7-1.2-12.8 2.3-26.2 3.7-39.9 4.1-3.6.1-7.3.2-11.1.2-9.9 0-20.6-.3-33.5-1.1-7.5-.4-14.9-1-22.2-1.6-1.9-.1-3.8-.3-5.7-.5-5.4-.4-10.9-.9-16.4-1.1-1.9-.1-3.9-.1-5.7-.1-5.8 0-11.1.3-16.3.8-3.4.4-7.2.9-10.8 1.9-2.2.7-4.7 1.4-7.1 2.4z" fill="#2f66f6"/><path d="m142.8 225.3c6.3 0 13.3.3 21.4 1l22.1 1.5c5 .3 10.1.6 15.1.9 2.4.1 4.7.3 7.1.4 7.5.3 14.8.6 22.1.8 2.7.1 5.4.1 8.2.1 8.5 0 17.4-.3 26.8-.9-11.3 1.8-23 2.9-35 3.2-3.6.1-7.3.2-11.1.2-9.9 0-20.6-.4-33.5-1.1-7.5-.4-14.9-1-22.2-1.6-1.9-.1-3.8-.3-5.6-.5-5.4-.4-10.9-.9-16.4-1.1-1.9-.1-3.9-.1-5.7-.1-5.8 0-11.1.3-16.3.8-3.4.4-7.2.9-10.9 1.9-1.2.3-2.4.6-3.6 1 1.1-.5 2.3-1 3.5-1.4 3.2-1.2 6.7-2.2 10.8-3 6.6-1.3 13.6-2 22.3-2.2zm0-.5c-.3 0-.6 0-.9 0-7.5.2-15 .8-22.4 2.2-3.7.8-7.3 1.7-10.8 3s-7 2.9-9.8 5.3c3.2-1.9 6.7-3 10.3-3.9 3.5-.9 7.2-1.4 10.8-1.9 5.4-.6 10.8-.8 16.2-.8 1.9 0 3.8 0 5.7.1 7.3.2 14.6.9 22 1.5s14.8 1.2 22.2 1.6c11.1.6 22.3 1.1 33.5 1.1 3.7 0 7.4 0 11.1-.2 14.9-.4 29.8-2 44.3-4.9-12.1.9-24.1 1.5-36.1 1.5-2.7 0-5.4 0-8.2-.1-7.4-.1-14.8-.5-22.1-.8-7.4-.4-14.8-.8-22.1-1.3l-22.1-1.5c-7.2-.5-14.4-.9-21.6-.9z" fill="#2f66f6"/><path d="m121.8 242.7c1.8-3.2 4.6-6 8.1-8.1 3.8-2.2 8.3-3.4 12.9-3.4 4.7 0 9.2 1.2 13 3.3 3.6 2 6.4 4.8 8.2 8-2.7-2.6-5.8-4.6-9.2-6-3.8-1.5-7.7-2.3-11.7-2.3h-.4c-4 0-8 .8-11.8 2.4-3.4 1.5-6.4 3.5-9.1 6.1z" fill="#2f66f6"/><path d="m142.9 231.5c4.7 0 9.1 1.1 12.8 3.3 2.9 1.6 5.4 3.8 7.1 6.3-2.4-2-5-3.6-7.9-4.8-3.8-1.6-7.8-2.3-11.8-2.3h-.3-.1c-4 0-8.1.8-11.9 2.5-2.8 1.2-5.5 2.9-7.8 4.9 1.7-2.5 4.1-4.7 7-6.4 3.8-2.3 8.2-3.5 12.9-3.5m0-.6c-4.6 0-9.1 1.2-13.1 3.5-3.9 2.2-7.2 5.6-9 9.7 2.9-3.2 6.4-5.6 10.2-7.3 3.7-1.6 7.7-2.4 11.7-2.4h.1.3c3.9 0 7.9.8 11.6 2.3 3.8 1.6 7.3 3.9 10.3 7.1-1.8-4-5.1-7.4-9.1-9.5-3.9-2.3-8.5-3.3-13-3.4z" fill="#2f66f6"/><path d="m316 240.9c1.9-5 5.6-9.5 10.2-12.6s10.3-4.8 15.9-4.8 11.3 1.6 16 4.6 8.4 7.4 10.4 12.4c-3.4-4.1-7.5-7.4-12-9.6s-9.4-3.4-14.4-3.3c-4.9 0-9.9 1.2-14.3 3.5-4.5 2.3-8.5 5.6-11.8 9.8z" style="stroke-width:.75;stroke-linecap:round;stroke-linejoin:round;stroke-miterlimit:10;fill:url(#q);stroke:url(#r)"/><g fill="#2f66f6"><path d="m187.9 275.7c-.9-.8-2.3-1.9-4.3-3.2-2.1-1.3-3.4-2.2-3.9-2.5-1.5-1.2-2.2-2.5-2.2-3.8 0-1.2.5-2.1 1.3-2.8.8-.6 1.8-.9 3-.9 1.4 0 2.7.4 3.9 1.3.6.5.6 0 .5-.6-.2-.4-.5-.9-.7-1-1.3-.5-2.7-.7-3.9-.7-1.3 0-2.5.2-3.5.7-2.3 1.1-3.4 2.7-3.4 4.9 0 1.6.7 3.1 2.1 4.5.8.8 2.2 1.8 4.2 3.1s3.4 2.2 3.9 2.7c1.5 1.3 2.2 2.6 2.2 3.9 0 1.4-.5 2.6-1.7 3.4-1 .8-2.3 1.2-3.7 1.2-1.6 0-3.1-.5-4.3-1.6-1.2-1-.2 2 .6 1.9s3.1.7 4 .7c2.1 0 3.9-.6 5.5-1.7 1.7-1.2 2.5-2.9 2.5-5 0-1.5-.7-3.1-2.1-4.5z"/><path d="m235.7 280.6c-.3 1.2-.7 2-1 2.7-.7 1.2-1.8 1.7-3.5 1.7h-6c-.8 0-1.4-.1-1.7-.5-.3-.3-.5-.9-.5-1.7v-8.3h6.6c1 0 1.7.3 2.1.8.3.4.5 1.2.6 2.3h.7v-7.4h-.7c-.1.9-.2 1.6-.5 2-.4.6-1 .9-1.8.9h-7v-9.6h8.2c1.5 0 2.5 1.3 2.9 4h.7l-.3-5.4h-18.7v.7h.9c.9 0 1.5.1 2 .3.8.4 1.1 1.3 1.1 2.8v16.5c0 .8-.1 1.5-.3 1.9-.4.9-1.5 1.3-3.4 1.3l-1.1.7h20.7l.6-5.8h-.6z"/><path d="m212.3 280.6c-.3 1.2-.7 2-1 2.7-.7 1.2-1.8 1.7-3.5 1.7h-6c-.8 0-1.4-.1-1.7-.5-.3-.3-.5-.9-.5-1.7v-8.3h6.6c1 0 1.7.3 2.1.8.3.4.5 1.2.6 2.3h.7v-7.4h-.7c-.1.9-.2 1.6-.5 2-.4.6-1 .9-1.8.9h-7v-9.6h8.2c1.5 0 2.5 1.3 2.9 4h.7l-.3-5.4h-18.7v.7h.9c.9 0 1.5.1 2 .3.8.4 1.1 1.3 1.1 2.8v16.5c0 .8-.1 1.5-.3 1.9-.4.9-1.5 1.3-3.4 1.3l-1.1.7h20.7l.6-5.8h-.6z"/><path d="m266.4 285.5c-1.6-.6-3.2-1.7-4.9-3.3l-3.1-3.1c-1.8-1.8-3.3-3.1-4.5-4.1 1.5-.4 2.8-1.2 3.7-2.3 1-1.2 1.5-2.5 1.5-4 0-2.1-.8-3.8-2.5-5-1.8-1.3-4.4-1.9-7.9-1.9-1.6 0-3.3 0-4.9.1-.6 0-1 0-1.5.1-1.8.1-2.9.2-3.4.2v.7h.8c1.2 0 1.9.2 2.3.7s.6 1.3.6 2.4v16.4c0 1.2-.2 2.1-.6 2.5-.4.5-1.3.7-2.5.7h-.7v.7h11v-.7h-.8c-.8 0-1.4-.1-1.8-.2-.9-.3-1.3-1.2-1.3-2.7v-6.6c.8 0 1.5.1 2 .1s1.4 0 2.6-.1c1 .6 2.3 1.8 4 3.5l2.6 2.6c1.9 1.9 3.5 3.2 4.9 3.8s3.2.9 5.6.9h1.6v-.7c-1-.2-1.9-.4-2.8-.7zm-18.1-10c-1.2 0-2 0-2.4-.1v-12.8c.5 0 1.1-.1 1.9-.1 1.9 0 3.4.3 4.6.8 2 1 3.1 2.9 3.1 5.6 0 4.4-2.4 6.6-7.2 6.6z"/><path d="m289.3 281.1c-.3 1.2-.7 2-1 2.7-.7 1.2-1.8 1.7-3.5 1.7h-6c-.8 0-1.4-.1-1.7-.5-.3-.3-.4-.9-.4-1.7v-8.3h6.6c1 0 1.7.3 2.1.8.3.4.5 1.2.6 2.3h.7v-7.4h-.7c-.1.9-.2 1.6-.5 2-.4.6-.9.9-1.8.9h-7v-9.6h8.2c1.5 0 2.5 1.3 2.9 4h.7l-.3-5.4h-18.7v.7h.9c.9 0 1.5.1 2 .3.8.4 1.1 1.3 1.1 2.8v16.5c0 .8-.1 1.5-.3 1.9-.4.9-1.5 1.3-3.4 1.3h-1.1v.7h20.7l.6-5.8h-.7z"/><path d="m218.8 297.5-.5 2.5c-.4-.4-.9-.7-1.4-.7-.9 0-2.1.4-3.3 1.3s-1.9 1.8-1.9 2.8c0 .8.7 1.3 2.1 1.6l2.6.5c1 .2 1.6.6 1.6 1.1 0 .9-.2 1.7-.6 2.3-.6 1-2 1.9-4.3 2.9s-4.3 1.4-6.1 1.4c-1.9 0-3.5-.4-4.6-1.3s-1.7-2-1.7-3.5c0-1.2.3-2.5.9-3.8.3-.7.8-2.8 1.8-4.4l.5 1.2c-1.3 2.4-1.9 4.2-1.9 5.4s.5 2.2 1.6 2.9 2.4 1.1 4.1 1.1 3.7-.4 5.9-1.2c2.1-.8 3.2-1.4 3.2-1.8 0-.3-.3-.5-.9-.6l-2.5-.3c-2-.3-3-1.1-3-2.4 0-1.1.9-2.6 2.7-4.6 1.6-1.7 3.1-2.5 4.6-2.5.3-.1.7-.1 1.1.1zm-7.4 17.8-1.2 1.8-1.8-1.2-1 1.7-1.9-1.2 1.1-1.9 1.8 1.2 1-1.6z"/><path d="m228.2 303.6c0 .2-.1.3-.2.4s-.3.2-.4.3-.4.1-.6.2-.5.1-.7.1h-.5c-.3 2.4-1 4.3-2.1 5.8s-2.4 2.2-4 2.2c-.8 0-2-.3-3.8-.8l.3-.3c.5.1.8.1 1.1.1 1.6 0 3.2-.6 4.7-1.8s2.5-2.7 3-4.4l-1.4-2.2.9-1.9c.7.8 1.3 1.2 1.8 1.2h.7c.3 0 .6.1.8.2s.4.3.4.6z"/><path d="m230.1 303.6c0 .3-.2.5-.5.7s-.8.2-1.4.2h-1.9l.7-2.1h1.9c.3 0 .6.1.8.2s.4.3.4.6z"/><path d="m232.1 303.6c0 .3-.2.5-.5.7s-.8.2-1.4.2h-1.9l.7-2.1h1.9c.3 0 .6.1.8.2s.4.3.4.6z"/><path d="m234 303.6c0 .3-.2.5-.5.7s-.8.2-1.4.2h-1.9l.7-2.1h1.9c.3 0 .6.1.8.2s.4.3.4.6z"/><path d="m240.7 303.6c0 .2-.1.3-.2.4s-.3.2-.5.3-.4.1-.6.1-.4 0-.6 0c-.6 0-1.2-.2-1.6-.6s-.8-.9-.9-1.6h-.1c-.5.8-1.1 1.4-1.8 1.7s-1.4.5-2.3.5l.7-2.1c.4 0 .7 0 1.1-.1s.7-.2 1-.4.7-.5 1-.8.7-.8 1-1.4l.2.1c.1.4.2.7.3 1s.2.6.4.8.4.4.7.6.6.2 1 .2c.1 0 .2 0 .4.1s.3.1.4.2.2.2.3.2.1.2.1.3zm-1.5 4.4-1.2 1.9-1.8-1.3-1 1.6-1.8-1.4 1.1-1.8 1.8 1.3 1.1-1.7z"/><path d="m242.6 303.6c0 .3-.2.5-.5.7s-.8.2-1.4.2h-1.9l.7-2.1h1.9c.3 0 .6.1.8.2s.4.3.4.6z"/><path d="m244.5 303.6c0 .3-.2.5-.5.7s-.8.2-1.4.2h-1.9l.7-2.1h1.9c.3 0 .6.1.8.2s.4.3.4.6z"/><path d="m246.5 303.6c0 .3-.2.5-.5.7s-.8.2-1.4.2h-1.9l.7-2.1h1.9c.3 0 .6.1.8.2s.4.3.4.6z"/><path d="m260.4 299.2c0 1.2-.2 2.2-.7 3s-1.1 1.1-1.8 1.1-1.6-.5-2.4-1.4h-.1c-.9 1.8-2.2 2.6-3.9 2.6-.3 0-.6 0-.9-.1s-.5-.2-.7-.4c-.1-.1-.3-.3-.4-.5s-.3-.5-.5-.9c-.3.4-.6.7-.9 1s-.7.5-1 .6-.7.2-1.2.3-.9.1-1.4.1l.7-2.1c.5 0 .9 0 1.3-.1s.8-.2 1.1-.4.7-.4 1-.8.7-.7 1-1.2l.2.1c.1.5.1.8.2 1.1s.2.5.2.7c.2.4.6.6 1.1.6 2.4 0 3.9-1.2 4.5-3.7h.2c.2 1.5 1.1 2.2 2.8 2.2.4 0 .7-.1.7-.4 0-.1-.3-.5-.9-.9l.7-2.2c.7.2 1.1.9 1.1 1.7z"/></g><path d="m203.4 297.8c-.7-4.2-4.4-6.4-8.1-6.7-4.1-.4-13 6.5-16.2 3.9-3.1-2.6 3.7-1.8 2.4-4.2-1.4-2.4-4-5.2-3.8-5.3s.1.5.1.5" fill="none" stroke="#2f66f6" stroke-miterlimit="10" stroke-width="1.1"/><path d="m203.4 301.2c.6-1 1.4-2.8 2.3-3.5.5-.4 1.1-.8 1.7-.6.4.1.7.4 1 .8.2.3.4.7.3 1.1-.2.5-.7.7-1.2.7-.3.1-.7.1-1 .1-.5 0-.9-.2-1.3-.4s-.4-.1-.8-.3c-.4-.3-.9-1.1-1-1.5" fill="none" stroke="#2f66f6" stroke-miterlimit="10" stroke-width="1.1"/><path d="m186.7 262.3-.5 1.6-.5-1.6" fill="#2f66f6"/><path d="m177.2 285.4c-.1-.8-.3-1.7-.5-2.5-.2-.6-.3-1.3-.7-1.8s-1-.9-1.7-.8c-.3 0-.5.2-.7.4-.1.2-.2.4-.2.7 0 .9.6 1.6 1.2 2.3.2.2.3.4.5.6.3.2.6.4.9.5 1 .5 2.1 1 3.2 1.3" fill="none" stroke="#2f66f6" stroke-miterlimit="10" stroke-width="1.1"/></svg>