<svg width="32" height="37" viewBox="0 0 32 37" fill="none" xmlns="http://www.w3.org/2000/svg">
<path d="M12.4 19L10 21.4C10 21.4 9.90002 21.5 9.90002 21.6C9.90002 21.7 9.90002 21.7 10 21.8L11.1 22.9C11.2 23 11.4 23 11.5 22.9L13.9 20.5C15.6 21.6 18 21.4 19.5 19.9C21.3 18.1 21.3 15.3 19.5 13.5C17.7 11.7 14.9 11.7 13.1 13.5C11.5 14.9 11.3 17.2 12.4 19Z" fill="#2F66F6"/>
<path d="M14.5001 14.6C15.5001 13.6 17.1001 13.6 18.0001 14.6C19.0001 15.6 19.0001 17.2 18.0001 18.1C17.0001 19.1 15.4001 19.1 14.5001 18.1C13.6001 17.1 13.5001 15.6 14.5001 14.6Z" fill="white"/>
<path d="M26.9 7.4L16.3 3.8C16.2 3.8 16 3.7 15.8 3.7C15.6 3.7 15.5 3.7 15.3 3.8L4.70005 7.4C4.50005 7.5 4.30005 7.8 4.30005 8V23.1C4.30005 23.4 4.50005 23.7 4.70005 23.9L15.5 32.3C15.6 32.4 15.7 32.4 15.9 32.4C16 32.4 16.2 32.4 16.3 32.3L27 23.9C27.2001 23.7 27.4 23.4 27.4 23.1V8C27.4 7.8 27.2 7.5 26.9 7.4ZM25.1 22.5L15.8 29.8L6.50005 22.5V9.1L15.8 6L25.1 9.2V22.5Z" fill="black"/>
</svg>
