<svg width="73" height="64" viewBox="0 0 73 64" fill="none" xmlns="http://www.w3.org/2000/svg">
<path d="M29.1264 22.3717C29.1264 22.6699 28.8899 22.9063 28.5917 22.9063C28.2936 22.9063 28.0571 22.6699 28.0571 22.3717C28.0571 22.0735 28.3039 21.8268 28.5917 21.8268C28.8796 21.8268 29.1264 22.0735 29.1264 22.3717Z" fill="#2F66F6"/>
<path d="M47.0978 27.7487C46.2342 27.7487 45.5351 28.4479 45.5351 29.3115C45.5351 30.1751 46.2342 30.8742 47.0978 30.8742C47.9614 30.8742 48.6605 30.1751 48.6605 29.3115C48.6605 28.4479 47.9614 27.7487 47.0978 27.7487ZM47.0978 27.7487C46.2342 27.7487 45.5351 28.4479 45.5351 29.3115C45.5351 30.1751 46.2342 30.8742 47.0978 30.8742C47.9614 30.8742 48.6605 30.1751 48.6605 29.3115C48.6605 28.4479 47.9614 27.7487 47.0978 27.7487ZM42.8928 37.2691C40.0449 35.7577 38.1018 32.7556 38.1018 29.3115C38.1018 26.4328 39.4589 23.8625 41.5768 22.2175L34.5034 20.665C34.6679 21.2099 34.7502 21.7754 34.7502 22.3717C34.7502 25.7645 31.9948 28.5301 28.5918 28.5301C28.2525 28.5301 27.9132 28.4993 27.5945 28.4479L29.5993 35.1203C30.4835 34.4417 31.5836 34.0305 32.7865 34.0305C35.6652 34.0305 37.999 36.3746 37.999 39.2533L42.8928 37.2691ZM32.7865 38.986C32.6322 38.986 32.5192 39.0991 32.5192 39.2533C32.5192 39.3972 32.6425 39.5206 32.7865 39.5206C32.9304 39.5206 33.0435 39.3972 33.0435 39.2533C33.0435 39.0991 32.9304 38.986 32.7865 38.986ZM47.0978 27.7487C46.2342 27.7487 45.5351 28.4479 45.5351 29.3115C45.5351 30.1751 46.2342 30.8742 47.0978 30.8742C47.9614 30.8742 48.6605 30.1751 48.6605 29.3115C48.6605 28.4479 47.9614 27.7487 47.0978 27.7487ZM47.0978 27.7487C46.2342 27.7487 45.5351 28.4479 45.5351 29.3115C45.5351 30.1751 46.2342 30.8742 47.0978 30.8742C47.9614 30.8742 48.6605 30.1751 48.6605 29.3115C48.6605 28.4479 47.9614 27.7487 47.0978 27.7487ZM42.8928 37.2691C40.0449 35.7577 38.1018 32.7556 38.1018 29.3115C38.1018 26.4328 39.4589 23.8625 41.5768 22.2175L34.5034 20.665C34.6679 21.2099 34.7502 21.7754 34.7502 22.3717C34.7502 25.7645 31.9948 28.5301 28.5918 28.5301C28.2525 28.5301 27.9132 28.4993 27.5945 28.4479L29.5993 35.1203C30.4835 34.4417 31.5836 34.0305 32.7865 34.0305C35.6652 34.0305 37.999 36.3746 37.999 39.2533L42.8928 37.2691ZM32.7865 38.986C32.6322 38.986 32.5192 39.0991 32.5192 39.2533C32.5192 39.3972 32.6425 39.5206 32.7865 39.5206C32.9304 39.5206 33.0435 39.3972 33.0435 39.2533C33.0435 39.0991 32.9304 38.986 32.7865 38.986ZM32.7865 38.986C32.6322 38.986 32.5192 39.0991 32.5192 39.2533C32.5192 39.3972 32.6425 39.5206 32.7865 39.5206C32.9304 39.5206 33.0435 39.3972 33.0435 39.2533C33.0435 39.0991 32.9304 38.986 32.7865 38.986ZM42.8928 37.2691C40.0449 35.7577 38.1018 32.7556 38.1018 29.3115C38.1018 26.4328 39.4589 23.8625 41.5768 22.2175L34.5034 20.665C34.6679 21.2099 34.7502 21.7754 34.7502 22.3717C34.7502 25.7645 31.9948 28.5301 28.5918 28.5301C28.2525 28.5301 27.9132 28.4993 27.5945 28.4479L29.5993 35.1203C30.4835 34.4417 31.5836 34.0305 32.7865 34.0305C35.6652 34.0305 37.999 36.3746 37.999 39.2533L42.8928 37.2691ZM47.0978 27.7487C46.2342 27.7487 45.5351 28.4479 45.5351 29.3115C45.5351 30.1751 46.2342 30.8742 47.0978 30.8742C47.9614 30.8742 48.6605 30.1751 48.6605 29.3115C48.6605 28.4479 47.9614 27.7487 47.0978 27.7487ZM47.0978 27.7487C46.2342 27.7487 45.5351 28.4479 45.5351 29.3115C45.5351 30.1751 46.2342 30.8742 47.0978 30.8742C47.9614 30.8742 48.6605 30.1751 48.6605 29.3115C48.6605 28.4479 47.9614 27.7487 47.0978 27.7487ZM42.8928 37.2691C40.0449 35.7577 38.1018 32.7556 38.1018 29.3115C38.1018 26.4328 39.4589 23.8625 41.5768 22.2175L34.5034 20.665C34.6679 21.2099 34.7502 21.7754 34.7502 22.3717C34.7502 25.7645 31.9948 28.5301 28.5918 28.5301C28.2525 28.5301 27.9132 28.4993 27.5945 28.4479L29.5993 35.1203C30.4835 34.4417 31.5836 34.0305 32.7865 34.0305C35.6652 34.0305 37.999 36.3746 37.999 39.2533L42.8928 37.2691ZM32.7865 38.986C32.6322 38.986 32.5192 39.0991 32.5192 39.2533C32.5192 39.3972 32.6425 39.5206 32.7865 39.5206C32.9304 39.5206 33.0435 39.3972 33.0435 39.2533C33.0435 39.0991 32.9304 38.986 32.7865 38.986ZM32.7865 38.986C32.6322 38.986 32.5192 39.0991 32.5192 39.2533C32.5192 39.3972 32.6425 39.5206 32.7865 39.5206C32.9304 39.5206 33.0435 39.3972 33.0435 39.2533C33.0435 39.0991 32.9304 38.986 32.7865 38.986ZM42.8928 37.2691C40.0449 35.7577 38.1018 32.7556 38.1018 29.3115C38.1018 26.4328 39.4589 23.8625 41.5768 22.2175L34.5034 20.665C34.6679 21.2099 34.7502 21.7754 34.7502 22.3717C34.7502 25.7645 31.9948 28.5301 28.5918 28.5301C28.2525 28.5301 27.9132 28.4993 27.5945 28.4479L29.5993 35.1203C30.4835 34.4417 31.5836 34.0305 32.7865 34.0305C35.6652 34.0305 37.999 36.3746 37.999 39.2533L42.8928 37.2691ZM47.0978 27.7487C46.2342 27.7487 45.5351 28.4479 45.5351 29.3115C45.5351 30.1751 46.2342 30.8742 47.0978 30.8742C47.9614 30.8742 48.6605 30.1751 48.6605 29.3115C48.6605 28.4479 47.9614 27.7487 47.0978 27.7487ZM46.1828 11.9466L45.3294 11.3709L45.4117 11.2578H33.4547L33.537 11.3709L32.4575 12.1111L25.713 16.7788L25.785 16.8816C26.6281 16.4498 27.5739 16.203 28.5918 16.203C29.5376 16.203 30.4424 16.4189 31.234 16.7993L47.3857 20.3258C52.2178 20.4697 56.0938 24.4382 56.0938 29.3115C56.0938 33.1155 53.7291 36.3746 50.3877 37.7009L50.1924 37.7728L46.3678 39.2019L35.8502 43.4686C34.9969 44.106 33.9277 44.4761 32.7865 44.4761C29.9077 44.4761 27.5637 42.132 27.5637 39.2533C27.5637 39.1916 27.5637 39.1402 27.5637 39.0785L23.6465 26.0524C22.8652 25.0242 22.4128 23.7494 22.4128 22.3717C22.4128 20.6548 23.1119 19.1023 24.2531 17.9919L24.1606 17.8583L17.1694 22.7007L21.7651 34.452L29.1778 53.4104H49.6681L57.0808 34.452L61.6764 22.711L46.1725 11.9466H46.1828ZM48.6605 29.3115C48.6605 28.4479 47.9614 27.7487 47.0978 27.7487C46.2342 27.7487 45.5351 28.4479 45.5351 29.3115C45.5351 30.1751 46.2342 30.8742 47.0978 30.8742C47.9614 30.8742 48.6605 30.1751 48.6605 29.3115ZM28.5918 28.5301C28.2525 28.5301 27.9132 28.4993 27.5945 28.4479L29.5993 35.1203C30.4835 34.4417 31.5836 34.0305 32.7865 34.0305C35.6652 34.0305 37.999 36.3746 37.999 39.2533L42.8928 37.2691C40.0449 35.7577 38.1018 32.7556 38.1018 29.3115C38.1018 26.4328 39.4589 23.8625 41.5768 22.2175L34.5034 20.665C34.6679 21.2099 34.7502 21.7754 34.7502 22.3717C34.7502 25.7645 31.9948 28.5301 28.5918 28.5301ZM32.5192 39.2533C32.5192 39.3972 32.6425 39.5206 32.7865 39.5206C32.9304 39.5206 33.0435 39.3972 33.0435 39.2533C33.0435 39.0991 32.9304 38.986 32.7865 38.986C32.6322 38.986 32.5192 39.0991 32.5192 39.2533ZM47.0978 27.7487C46.2342 27.7487 45.5351 28.4479 45.5351 29.3115C45.5351 30.1751 46.2342 30.8742 47.0978 30.8742C47.9614 30.8742 48.6605 30.1751 48.6605 29.3115C48.6605 28.4479 47.9614 27.7487 47.0978 27.7487ZM42.8928 37.2691C40.0449 35.7577 38.1018 32.7556 38.1018 29.3115C38.1018 26.4328 39.4589 23.8625 41.5768 22.2175L34.5034 20.665C34.6679 21.2099 34.7502 21.7754 34.7502 22.3717C34.7502 25.7645 31.9948 28.5301 28.5918 28.5301C28.2525 28.5301 27.9132 28.4993 27.5945 28.4479L29.5993 35.1203C30.4835 34.4417 31.5836 34.0305 32.7865 34.0305C35.6652 34.0305 37.999 36.3746 37.999 39.2533L42.8928 37.2691ZM32.7865 38.986C32.6322 38.986 32.5192 39.0991 32.5192 39.2533C32.5192 39.3972 32.6425 39.5206 32.7865 39.5206C32.9304 39.5206 33.0435 39.3972 33.0435 39.2533C33.0435 39.0991 32.9304 38.986 32.7865 38.986ZM32.7865 38.986C32.6322 38.986 32.5192 39.0991 32.5192 39.2533C32.5192 39.3972 32.6425 39.5206 32.7865 39.5206C32.9304 39.5206 33.0435 39.3972 33.0435 39.2533C33.0435 39.0991 32.9304 38.986 32.7865 38.986ZM42.8928 37.2691C40.0449 35.7577 38.1018 32.7556 38.1018 29.3115C38.1018 26.4328 39.4589 23.8625 41.5768 22.2175L34.5034 20.665C34.6679 21.2099 34.7502 21.7754 34.7502 22.3717C34.7502 25.7645 31.9948 28.5301 28.5918 28.5301C28.2525 28.5301 27.9132 28.4993 27.5945 28.4479L29.5993 35.1203C30.4835 34.4417 31.5836 34.0305 32.7865 34.0305C35.6652 34.0305 37.999 36.3746 37.999 39.2533L42.8928 37.2691ZM47.0978 27.7487C46.2342 27.7487 45.5351 28.4479 45.5351 29.3115C45.5351 30.1751 46.2342 30.8742 47.0978 30.8742C47.9614 30.8742 48.6605 30.1751 48.6605 29.3115C48.6605 28.4479 47.9614 27.7487 47.0978 27.7487ZM47.0978 27.7487C46.2342 27.7487 45.5351 28.4479 45.5351 29.3115C45.5351 30.1751 46.2342 30.8742 47.0978 30.8742C47.9614 30.8742 48.6605 30.1751 48.6605 29.3115C48.6605 28.4479 47.9614 27.7487 47.0978 27.7487ZM42.8928 37.2691C40.0449 35.7577 38.1018 32.7556 38.1018 29.3115C38.1018 26.4328 39.4589 23.8625 41.5768 22.2175L34.5034 20.665C34.6679 21.2099 34.7502 21.7754 34.7502 22.3717C34.7502 25.7645 31.9948 28.5301 28.5918 28.5301C28.2525 28.5301 27.9132 28.4993 27.5945 28.4479L29.5993 35.1203C30.4835 34.4417 31.5836 34.0305 32.7865 34.0305C35.6652 34.0305 37.999 36.3746 37.999 39.2533L42.8928 37.2691ZM32.7865 38.986C32.6322 38.986 32.5192 39.0991 32.5192 39.2533C32.5192 39.3972 32.6425 39.5206 32.7865 39.5206C32.9304 39.5206 33.0435 39.3972 33.0435 39.2533C33.0435 39.0991 32.9304 38.986 32.7865 38.986ZM42.8928 37.2691C40.0449 35.7577 38.1018 32.7556 38.1018 29.3115C38.1018 26.4328 39.4589 23.8625 41.5768 22.2175L34.5034 20.665C34.6679 21.2099 34.7502 21.7754 34.7502 22.3717C34.7502 25.7645 31.9948 28.5301 28.5918 28.5301C28.2525 28.5301 27.9132 28.4993 27.5945 28.4479L29.5993 35.1203C30.4835 34.4417 31.5836 34.0305 32.7865 34.0305C35.6652 34.0305 37.999 36.3746 37.999 39.2533L42.8928 37.2691ZM47.0978 27.7487C46.2342 27.7487 45.5351 28.4479 45.5351 29.3115C45.5351 30.1751 46.2342 30.8742 47.0978 30.8742C47.9614 30.8742 48.6605 30.1751 48.6605 29.3115C48.6605 28.4479 47.9614 27.7487 47.0978 27.7487ZM47.0978 27.7487C46.2342 27.7487 45.5351 28.4479 45.5351 29.3115C45.5351 30.1751 46.2342 30.8742 47.0978 30.8742C47.9614 30.8742 48.6605 30.1751 48.6605 29.3115C48.6605 28.4479 47.9614 27.7487 47.0978 27.7487ZM42.8928 37.2691C40.0449 35.7577 38.1018 32.7556 38.1018 29.3115C38.1018 26.4328 39.4589 23.8625 41.5768 22.2175L34.5034 20.665C34.6679 21.2099 34.7502 21.7754 34.7502 22.3717C34.7502 25.7645 31.9948 28.5301 28.5918 28.5301C28.2525 28.5301 27.9132 28.4993 27.5945 28.4479L29.5993 35.1203C30.4835 34.4417 31.5836 34.0305 32.7865 34.0305C35.6652 34.0305 37.999 36.3746 37.999 39.2533L42.8928 37.2691ZM47.0978 27.7487C46.2342 27.7487 45.5351 28.4479 45.5351 29.3115C45.5351 30.1751 46.2342 30.8742 47.0978 30.8742C47.9614 30.8742 48.6605 30.1751 48.6605 29.3115C48.6605 28.4479 47.9614 27.7487 47.0978 27.7487ZM47.0978 27.7487C46.2342 27.7487 45.5351 28.4479 45.5351 29.3115C45.5351 30.1751 46.2342 30.8742 47.0978 30.8742C47.9614 30.8742 48.6605 30.1751 48.6605 29.3115C48.6605 28.4479 47.9614 27.7487 47.0978 27.7487ZM32.7865 38.986C32.6322 38.986 32.5192 39.0991 32.5192 39.2533C32.5192 39.3972 32.6425 39.5206 32.7865 39.5206C32.9304 39.5206 33.0435 39.3972 33.0435 39.2533C33.0435 39.0991 32.9304 38.986 32.7865 38.986ZM42.8928 37.2691C40.0449 35.7577 38.1018 32.7556 38.1018 29.3115C38.1018 26.4328 39.4589 23.8625 41.5768 22.2175L34.5034 20.665C34.6679 21.2099 34.7502 21.7754 34.7502 22.3717C34.7502 25.7645 31.9948 28.5301 28.5918 28.5301C28.2525 28.5301 27.9132 28.4993 27.5945 28.4479L29.5993 35.1203C30.4835 34.4417 31.5836 34.0305 32.7865 34.0305C35.6652 34.0305 37.999 36.3746 37.999 39.2533L42.8928 37.2691ZM47.0978 27.7487C46.2342 27.7487 45.5351 28.4479 45.5351 29.3115C45.5351 30.1751 46.2342 30.8742 47.0978 30.8742C47.9614 30.8742 48.6605 30.1751 48.6605 29.3115C48.6605 28.4479 47.9614 27.7487 47.0978 27.7487Z" fill="#2F66F6"/>
<path d="M45.9771 38.2458L37.3718 41.7414C37.5877 41.3404 37.7522 40.9086 37.855 40.4459L44.2293 37.8448C44.7845 38.0402 45.3705 38.1738 45.9771 38.2458Z" fill="#2F66F6"/>
<path d="M44.4042 20.7267C43.8387 20.9015 43.3041 21.138 42.79 21.4259L34.0613 19.5136C33.8249 19.0612 33.537 18.65 33.208 18.2798L44.4144 20.7267H44.4042Z" fill="#2F66F6"/>
<path d="M28.7666 35.9222C28.4788 36.2718 28.232 36.6625 28.047 37.0737L25.158 27.4814C25.5486 27.7488 25.9702 27.9749 26.4225 28.1292L28.7666 35.9222Z" fill="#2F66F6"/>
<path d="M47.0978 21.3437C42.6974 21.3437 39.1299 24.9112 39.1299 29.3115C39.1299 33.7119 42.6974 37.2897 47.0978 37.2897C51.4981 37.2897 55.0656 33.7119 55.0656 29.3115C55.0656 24.9112 51.4981 21.3437 47.0978 21.3437ZM47.0978 31.9024C45.6687 31.9024 44.5069 30.7406 44.5069 29.3115C44.5069 27.8825 45.6687 26.7207 47.0978 26.7207C48.5268 26.7207 49.6886 27.8825 49.6886 29.3115C49.6886 30.7406 48.5268 31.9024 47.0978 31.9024Z" fill="#618BF8"/>
<path d="M28.592 17.2312C25.7544 17.2312 23.4514 19.5341 23.4514 22.3717C23.4514 25.2093 25.7544 27.502 28.592 27.502C31.4296 27.502 33.7223 25.2093 33.7223 22.3717C33.7223 19.5341 31.4296 17.2312 28.592 17.2312ZM28.592 23.9345C27.7284 23.9345 27.0292 23.2353 27.0292 22.3717C27.0292 21.5081 27.7284 20.7987 28.592 20.7987C29.4556 20.7987 30.1547 21.5081 30.1547 22.3717C30.1547 23.2353 29.4556 23.9345 28.592 23.9345Z" fill="#618BF8"/>
<path d="M32.7865 35.0586C30.463 35.0586 28.5918 36.94 28.5918 39.2533C28.5918 41.5665 30.463 43.448 32.7865 43.448C35.11 43.448 36.9709 41.5665 36.9709 39.2533C36.9709 36.94 35.0997 35.0586 32.7865 35.0586ZM32.7865 40.5487C32.0668 40.5487 31.4911 39.9627 31.4911 39.2533C31.4911 38.5439 32.0668 37.9579 32.7865 37.9579C33.5062 37.9579 34.0716 38.5336 34.0716 39.2533C34.0716 39.973 33.4959 40.5487 32.7865 40.5487Z" fill="#618BF8"/>
<path d="M26.1553 0V7.37157H52.7114V0H26.1553ZM27.5535 6.76498H26.7619V0.688835H27.5535V6.76498ZM29.0031 6.76498H28.2012V0.688835H29.0031V6.76498ZM30.4425 6.76498H29.6509V0.688835H30.4425V6.76498ZM31.8921 6.76498H31.1005V0.688835H31.8921V6.76498ZM33.3418 6.76498H32.5501V0.688835H33.3418V6.76498ZM34.7811 6.76498H33.9895V0.688835H34.7811V6.76498ZM36.2308 6.76498H35.4391V0.688835H36.2308V6.76498ZM37.6804 6.76498H36.8888V0.688835H37.6804V6.76498ZM39.1301 6.76498H38.3281V0.688835H39.1301V6.76498ZM40.5694 6.76498H39.7778V0.688835H40.5694V6.76498ZM42.019 6.76498H41.2274V0.688835H42.019V6.76498ZM43.4687 6.76498H42.677V0.688835H43.4687V6.76498ZM44.9183 6.76498H44.1164V0.688835H44.9183V6.76498ZM46.3577 6.76498H45.566V0.688835H46.3577V6.76498ZM47.8073 6.76498H47.0157V0.688835H47.8073V6.76498ZM49.257 6.76498H48.4653V0.688835H49.257V6.76498ZM50.6963 6.76498H49.9047V0.688835H50.6963V6.76498ZM52.146 6.76498H51.3543V0.688835H52.146V6.76498Z" fill="#2F66F6"/>
<path d="M46.2649 8.18378H32.6116V10.1578H46.2649V8.18378Z" fill="#2F66F6"/>
<path d="M32.108 11.1036L31.8818 11.2578L16.7994 21.724L10.6101 26.0215L9.84932 26.5458L7.22763 22.7418C5.93221 20.8604 6.40514 18.3004 8.27631 17.0152L23.8111 6.31257C24.2223 6.0247 24.6747 5.82936 25.1271 5.71626V8.39964H30.2471L32.108 11.1036Z" fill="#2F66F6"/>
<path d="M20.6755 34.452H16.2032C14.99 34.452 14.5377 33.1052 14.5377 33.1052L11.1038 26.9159L16.306 23.3073L20.6755 34.452Z" fill="#2F66F6"/>
<path d="M71.6389 22.7418L69.0172 26.5458L68.2564 26.0215L62.0671 21.724L46.9847 11.2578L46.7585 11.1036L48.6194 8.39964H53.7394V5.71626C54.1918 5.82936 54.6442 6.0247 55.0554 6.31257L70.5902 17.0152C72.4614 18.3004 72.9343 20.8604 71.6389 22.7418Z" fill="#2F66F6"/>
<path d="M67.7526 26.9262L64.329 33.1052C64.329 33.1052 63.8766 34.452 62.6635 34.452H58.1912L62.5504 23.3176L67.7526 26.9262Z" fill="#2F66F6"/>
<g style="mix-blend-mode:multiply" opacity="0.36">
<path d="M69.0275 26.5459L68.2667 26.0215L62.0774 21.724L46.995 11.2578L46.7688 11.1036L48.6297 8.39968H53.7497V5.7163L52.7216 6.74442V7.37157H26.1655V0L11.0625 15.103L23.8214 6.31261C24.2326 6.02474 24.685 5.8294 25.1374 5.7163V8.39968H30.2574L32.1182 11.1036L31.8921 11.2578L16.8096 21.724L10.6204 26.0215L9.8596 26.5459L7.23791 22.7418C6.29205 21.3642 6.29205 19.6164 7.09398 18.2798L0 33.7529V63.3831L29.4863 64L49.6784 53.4104H29.1881L21.7754 34.452L17.1798 22.7007L24.1709 17.8583L24.2635 17.992C23.1223 19.1023 22.4231 20.6548 22.4231 22.3717C22.4231 23.7494 22.8755 25.0243 23.6569 26.0524L27.574 39.0786C27.574 39.1402 27.574 39.1916 27.574 39.2533C27.574 42.132 29.9181 44.4761 32.7968 44.4761C33.938 44.4761 35.0072 44.106 35.8606 43.4686L46.3782 39.2019L50.2027 37.7729L50.3981 37.7009C53.7394 36.3746 56.1041 33.1155 56.1041 29.3115C56.1041 24.4382 52.2281 20.4697 47.396 20.3258L31.2443 16.7994C30.4527 16.419 29.548 16.2031 28.6021 16.2031C27.5843 16.2031 26.6384 16.4498 25.7953 16.8816L25.7234 16.7788L32.4678 12.1112L33.5473 11.3709L33.4651 11.2578H45.422L45.3398 11.3709L46.1931 11.9467L61.697 22.7007L57.1014 34.452L53.1431 44.579L63.5476 34.1745C63.3112 34.339 63.0233 34.452 62.6737 34.452H58.2015L62.5606 23.3176L67.7629 26.9263L66.6628 28.9105L69.0275 26.5459ZM20.6856 34.452H16.2133C15.0002 34.452 14.5478 33.1052 14.5478 33.1052L11.1139 26.916L16.3161 23.3073L20.6856 34.452ZM25.1682 27.4814C25.5589 27.7488 25.9804 27.9749 26.4328 28.1292L28.7769 35.9222C28.489 36.2718 28.2423 36.6625 28.0572 37.0737L25.1682 27.4814ZM34.5137 20.6651L41.5872 22.2175C39.4692 23.8625 38.1121 26.4328 38.1121 29.3115C38.1121 32.7557 40.0553 35.7578 42.9031 37.2691L38.0093 39.2636C38.0093 36.3746 35.6755 34.0305 32.7968 34.0305C31.5939 34.0305 30.4938 34.4418 29.6096 35.1203L27.6048 28.4479C27.9235 28.4993 28.2628 28.5301 28.6021 28.5301C32.0051 28.5301 34.7605 25.7645 34.7605 22.3717C34.7605 21.7754 34.6782 21.21 34.5137 20.6651ZM32.7968 43.448C30.4733 43.448 28.6021 41.5666 28.6021 39.2533C28.6021 36.9401 30.4733 35.0586 32.7968 35.0586C35.1203 35.0586 36.9812 36.9401 36.9812 39.2533C36.9812 41.5666 35.11 43.448 32.7968 43.448ZM37.3822 41.7414C37.5981 41.3404 37.7626 40.9086 37.8654 40.4459L44.2397 37.8448C44.7949 38.0402 45.3809 38.1738 45.9875 38.2458L37.3822 41.7414ZM55.076 29.3115C55.076 33.7118 51.5084 37.2896 47.1081 37.2896C42.7078 37.2896 39.1402 33.7118 39.1402 29.3115C39.1402 24.9112 42.7078 21.3436 47.1081 21.3436C51.5084 21.3436 55.076 24.9112 55.076 29.3115ZM44.4145 20.7267C43.849 20.9015 43.3144 21.138 42.8003 21.4259L34.0716 19.5136C33.8352 19.0612 33.5473 18.65 33.2183 18.2798L44.4247 20.7267H44.4145ZM28.6021 17.2312C31.4397 17.2312 33.7324 19.5341 33.7324 22.3717C33.7324 25.2093 31.4397 27.502 28.6021 27.502C25.7645 27.502 23.4615 25.2093 23.4615 22.3717C23.4615 19.5341 25.7645 17.2312 28.6021 17.2312ZM46.2651 10.1578H32.622V8.18377H46.2651V10.1578Z" fill="white"/>
</g>
</svg>
