<svg width="13" height="12" viewBox="0 0 13 12" fill="none" xmlns="http://www.w3.org/2000/svg">
<path d="M6.6 10.2C6.6 9.354 6.9 8.58 7.38 7.968C7.302 7.782 7.218 7.59 7.116 7.404C7.356 7.2 7.542 6.954 7.662 6.666C7.956 6.726 8.268 6.834 8.55 7.002C9.07425 6.73094 9.65712 6.593 10.2472 6.60032C10.8374 6.60765 11.4166 6.76002 11.934 7.044C11.97 6.822 12 6.576 12 6.3C12 4.152 9.618 3.678 7.398 4.878C7.2 4.638 6.954 4.452 6.666 4.332C6.78 3.774 7.044 3.144 7.638 2.85C9.054 2.142 9 0 6.3 0C4.158 0 3.684 2.376 4.878 4.59C4.632 4.782 4.44 5.034 4.326 5.322C3.768 5.208 3.138 4.95 2.838 4.356C2.136 2.934 0 3 0 5.7C0 7.842 2.37 8.31 4.584 7.122C4.776 7.362 5.034 7.554 5.328 7.674C5.208 8.226 4.944 8.85 4.356 9.144C2.94 9.852 3 12 5.7 12C6.186 12 6.6 11.868 6.9 11.646C6.714 11.202 6.6 10.716 6.6 10.2ZM6 6.6C5.658 6.6 5.4 6.33 5.4 6C5.4 5.67 5.658 5.4 6 5.4C6.324 5.4 6.6 5.67 6.6 6C6.6 6.33 6.324 6.6 6 6.6ZM10.2 9.498L8.298 11.4L7.446 10.554L10.2 7.8L12.954 10.554L12.102 11.4L10.2 9.498Z" fill="#2F66F6"/>
</svg>
