<svg width="8" height="12" viewBox="0 0 8 12" fill="none" xmlns="http://www.w3.org/2000/svg">
<path d="M3.68804 7.57671V3.29583H2.11448V7.57592C1.56255 7.86231 1.18057 8.43352 1.18057 9.09835C1.18735 9.55035 1.37165 9.98155 1.69368 10.2988C2.0157 10.6161 2.4496 10.794 2.90166 10.794C3.35371 10.7941 3.78765 10.6163 4.10975 10.2991C4.43184 9.9819 4.61625 9.55075 4.62313 9.09874C4.62313 8.43391 4.24154 7.86271 3.68843 7.57711L3.68804 7.57671ZM4.86821 1.96696C4.86821 0.882769 3.98545 0 2.90126 0C1.81707 0 0.934305 0.883163 0.934305 1.96696V6.97364C0.639591 7.24344 0.404308 7.57166 0.243448 7.93741C0.0825877 8.30315 -0.000322256 8.6984 9.41275e-07 9.09795C9.41275e-07 10.6975 1.30213 12 2.90165 12C4.50118 12 5.80291 10.6979 5.80291 9.09795C5.80291 8.27734 5.45751 7.51259 4.86861 6.97286V1.96774L4.86821 1.96696ZM5.01574 9.09913C5.01501 9.6596 4.79196 10.1969 4.39554 10.5931C3.99913 10.9893 3.46172 11.212 2.90126 11.2124C2.3409 11.2117 1.8037 10.9888 1.40746 10.5925C1.01122 10.1963 0.788298 9.6591 0.78757 9.09874C0.78757 8.3926 1.14005 7.7443 1.72227 7.35287V1.96774C1.72227 1.31747 2.25059 0.787569 2.90126 0.787569C3.55193 0.787569 4.08143 1.31707 4.08143 1.96774V7.35327C4.36883 7.5448 4.60449 7.80434 4.76747 8.10884C4.93046 8.41333 5.01574 8.75376 5.01574 9.09913ZM5.49174 3.29583L7.262 4.31786V2.27459L5.49174 3.29583Z" fill="#2F66F6"/>
</svg>
