<svg width="79" height="65" viewBox="0 0 79 65" fill="none" xmlns="http://www.w3.org/2000/svg">
<path d="M72.9687 0.804932H15.9647C14.98 0.804932 14.177 1.54056 14.177 2.42905V36.2204C14.177 37.1184 14.98 37.8445 15.9647 37.8445H72.9687C73.9533 37.8445 74.7468 37.1184 74.7468 36.2204V2.42905C74.7468 1.54056 73.9533 0.804932 72.9687 0.804932ZM72.1752 34.6345H16.7581V3.87166H72.1752V34.6345Z" fill="#618BF8"/>
<path d="M78.6374 39.1343C78.6374 40.9972 77.2608 42.5163 75.5496 42.5163H13.3834C11.6818 42.5163 10.2957 41.0068 10.2957 39.1343H78.6278H78.6374Z" fill="#618BF8"/>
<path d="M54.9674 16.7977C53.6769 16.4251 51.8128 16.234 50.962 16.234C50.895 16.234 50.8186 16.234 50.723 16.234H50.1398L50.1589 16.3678C50.331 17.753 50.4075 18.8708 50.3979 19.8835V20.0173H50.5222C54.5086 19.7689 58.6574 19.444 58.8869 19.3485C58.9634 19.3198 59.0112 19.2625 59.0112 19.1765C59.0112 18.718 56.0477 17.1129 54.9674 16.8072V16.7977ZM50.6369 19.7498C50.6369 18.7944 50.57 17.7435 50.4075 16.4633H50.723C50.8186 16.4633 50.895 16.4633 50.962 16.4633C51.7936 16.4633 53.6291 16.6544 54.9005 17.0174C56.0859 17.3518 58.4185 18.7275 58.7435 19.1192C58.189 19.2052 54.7571 19.4918 50.6369 19.7402V19.7498ZM54.9674 16.7977C53.6769 16.4251 51.8128 16.234 50.962 16.234C50.895 16.234 50.8186 16.234 50.723 16.234H50.1398L50.1589 16.3678C50.331 17.753 50.4075 18.8708 50.3979 19.8835V20.0173H50.5222C54.5086 19.7689 58.6574 19.444 58.8869 19.3485C58.9634 19.3198 59.0112 19.2625 59.0112 19.1765C59.0112 18.718 56.0477 17.1129 54.9674 16.8072V16.7977ZM50.6369 19.7498C50.6369 18.7944 50.57 17.7435 50.4075 16.4633H50.723C50.8186 16.4633 50.895 16.4633 50.962 16.4633C51.7936 16.4633 53.6291 16.6544 54.9005 17.0174C56.0859 17.3518 58.4185 18.7275 58.7435 19.1192C58.189 19.2052 54.7571 19.4918 50.6369 19.7402V19.7498ZM54.9674 16.7977C53.6769 16.4251 51.8128 16.234 50.962 16.234C50.895 16.234 50.8186 16.234 50.723 16.234H50.1398L50.1589 16.3678C50.331 17.753 50.4075 18.8708 50.3979 19.8835V20.0173H50.5222C54.5086 19.7689 58.6574 19.444 58.8869 19.3485C58.9634 19.3198 59.0112 19.2625 59.0112 19.1765C59.0112 18.718 56.0477 17.1129 54.9674 16.8072V16.7977ZM50.6369 19.7498C50.6369 18.7944 50.57 17.7435 50.4075 16.4633H50.723C50.8186 16.4633 50.895 16.4633 50.962 16.4633C51.7936 16.4633 53.6291 16.6544 54.9005 17.0174C56.0859 17.3518 58.4185 18.7275 58.7435 19.1192C58.189 19.2052 54.7571 19.4918 50.6369 19.7402V19.7498ZM54.9674 16.7977C53.6769 16.4251 51.8128 16.234 50.962 16.234C50.895 16.234 50.8186 16.234 50.723 16.234H50.1398L50.1589 16.3678C50.331 17.753 50.4075 18.8708 50.3979 19.8835V20.0173H50.5222C54.5086 19.7689 58.6574 19.444 58.8869 19.3485C58.9634 19.3198 59.0112 19.2625 59.0112 19.1765C59.0112 18.718 56.0477 17.1129 54.9674 16.8072V16.7977ZM50.6369 19.7498C50.6369 18.7944 50.57 17.7435 50.4075 16.4633H50.723C50.8186 16.4633 50.895 16.4633 50.962 16.4633C51.7936 16.4633 53.6291 16.6544 54.9005 17.0174C56.0859 17.3518 58.4185 18.7275 58.7435 19.1192C58.189 19.2052 54.7571 19.4918 50.6369 19.7402V19.7498ZM54.9674 16.7977C53.6769 16.4251 51.8128 16.234 50.962 16.234C50.895 16.234 50.8186 16.234 50.723 16.234H50.1398L50.1589 16.3678C50.331 17.753 50.4075 18.8708 50.3979 19.8835V20.0173H50.5222C54.5086 19.7689 58.6574 19.444 58.8869 19.3485C58.9634 19.3198 59.0112 19.2625 59.0112 19.1765C59.0112 18.718 56.0477 17.1129 54.9674 16.8072V16.7977ZM50.6369 19.7498C50.6369 18.7944 50.57 17.7435 50.4075 16.4633H50.723C50.8186 16.4633 50.895 16.4633 50.962 16.4633C51.7936 16.4633 53.6291 16.6544 54.9005 17.0174C56.0859 17.3518 58.4185 18.7275 58.7435 19.1192C58.189 19.2052 54.7571 19.4918 50.6369 19.7402V19.7498ZM31.8905 23.0076L31.8236 22.7783C30.0073 23.2082 28.6594 24.8419 28.6594 26.7908C28.6594 27.0488 28.6785 27.2972 28.7263 27.5551H26.91C26.5658 27.5551 26.2089 27.5424 25.8393 27.5169L25.2848 27.4882C25.0363 27.4787 24.8355 27.4213 24.7017 27.3354C24.6539 27.2876 24.6252 27.2589 24.6061 27.2303L24.587 27.2016C24.587 27.2016 24.5678 27.1538 24.5583 27.1347C24.5392 27.0392 24.5583 26.9437 24.5678 26.8481C24.5678 26.829 24.587 26.8099 24.587 26.7908C24.587 26.7717 24.587 26.7621 24.587 26.7526C24.587 26.743 24.5965 26.7335 24.5965 26.7335V26.6953C24.6348 26.6475 24.6539 26.6188 24.6539 26.6188L24.6826 26.5997V26.5615C24.6826 26.5615 24.7112 26.5138 24.7208 26.4755C24.7208 26.4755 24.7208 26.4564 24.7399 26.4373C24.7399 26.4182 24.759 26.3896 24.759 26.3896C24.7877 26.3322 24.8068 26.2845 24.826 26.208C24.8355 26.1507 24.8451 26.0934 24.8451 26.0552C24.8451 25.7399 24.8451 25.4628 24.8642 25.1953V24.7177C24.8738 24.6508 24.8738 24.5744 24.8738 24.517V24.4119C24.8738 24.4119 24.8738 24.3451 24.8738 24.3069C24.8738 24.2591 24.8738 24.2018 24.8738 24.1253C24.8738 24.0776 24.8738 24.0298 24.8833 23.9629C24.8833 23.9438 24.8833 23.9152 24.8833 23.896V23.8196C24.8929 23.7336 24.9024 23.6572 24.912 23.5808C25.0076 22.8643 25.1892 22.6159 25.5525 22.1191C25.629 22.014 25.715 21.8993 25.801 21.7751C26.193 21.221 28.7358 20.8675 31.1449 20.6096L31.0779 20.3803C28.5064 20.6478 26.0591 21.0013 25.6098 21.6318C25.5142 21.7656 25.4378 21.8802 25.3613 21.9758C24.9885 22.4917 24.7782 22.7783 24.6826 23.5426C24.6826 23.6285 24.6539 23.705 24.6443 23.8005V23.8674C24.6443 23.8674 24.6443 23.9343 24.6443 23.9438C24.6348 24.0011 24.6348 24.068 24.6348 24.1062C24.6348 24.1827 24.6348 24.2495 24.6348 24.3069C24.6348 24.3355 24.6348 24.3642 24.6348 24.3928V24.517C24.6348 24.517 24.6348 24.6221 24.6252 24.6986V25.1953C24.6061 25.4533 24.6061 25.7399 24.6061 26.0552C24.6061 26.0838 24.6061 26.1221 24.6061 26.1698C24.5965 26.208 24.5774 26.2367 24.5487 26.294C24.5487 26.3131 24.5392 26.3227 24.5296 26.3418C24.52 26.3609 24.5105 26.38 24.4914 26.4278L24.4722 26.466C24.4722 26.466 24.4531 26.4946 24.4531 26.5042C24.4436 26.5233 24.4245 26.552 24.4053 26.5902C24.3958 26.5902 24.3958 26.6188 24.3767 26.6666L24.3384 26.7717C24.3193 26.8959 24.2906 27.0392 24.3384 27.1921C24.3384 27.2398 24.3767 27.278 24.3862 27.3163L24.4053 27.3449C24.4436 27.4022 24.4914 27.4596 24.5678 27.5169C24.7399 27.6506 24.9789 27.7175 25.2848 27.7271L25.8297 27.7557C26.2121 27.7812 26.5754 27.7939 26.9195 27.7939H29.0322L29.0035 27.6506C28.9366 27.364 28.9079 27.0774 28.9079 26.7908C28.9079 24.9565 30.1793 23.4088 31.9001 23.0076H31.8905ZM68.6186 23.3515C68.609 23.2846 68.5899 23.2273 68.5612 23.1509C68.5517 23.1318 68.5421 23.1126 68.5325 23.084C68.5134 23.0362 68.4943 22.9789 68.4656 22.9216C68.4561 22.8929 68.4369 22.8643 68.4274 22.8547C68.4083 22.8356 68.3891 22.8069 68.3796 22.7878C68.37 22.7783 68.3605 22.7592 68.3509 22.7401L68.2935 22.6636C68.2362 22.6063 68.198 22.5585 68.1788 22.5012L68.1597 22.4439C68.1406 22.3866 68.131 22.3292 68.131 22.2433C68.131 22.1955 68.131 22.1382 68.131 22.0713C68.131 22.0426 68.1215 22.0235 68.1215 22.0044V21.9758C68.1024 21.8993 68.0928 21.8229 68.0641 21.7369C68.0641 21.7178 68.0641 21.6987 68.0641 21.6892L67.9303 21.0968C67.9016 21.0299 67.8825 20.9631 67.8634 20.8866L67.8251 20.7433C67.8251 20.7433 67.7965 20.6669 67.7869 20.6382C67.7104 20.3516 67.6339 20.1032 67.5766 19.9313C67.5575 19.874 67.5383 19.8262 67.5288 19.7975C67.5192 19.7784 67.5097 19.7689 67.5097 19.7689V19.7211C67.4427 19.5873 67.2515 19.5587 66.286 19.4345C65.4543 19.3294 64.3072 19.1861 63.5711 18.909C63.4181 18.8517 63.2078 18.7657 62.9402 18.6511C61.0569 17.8486 56.6595 15.9665 50.245 15.7659C50.1112 15.7659 49.9678 15.7659 49.8244 15.7659C49.6427 15.7659 49.4515 15.7659 49.2699 15.7659C45.4652 15.7468 45.2453 15.8136 44.4041 16.0716C43.2378 16.4251 40.2839 17.925 38.3337 18.9186C37.5785 19.2912 36.9954 19.5969 36.7946 19.6733C36.46 19.8166 35.5996 19.9408 34.5194 20.0555L34.4907 20.2943C35.6283 20.1701 36.5174 20.0555 36.8902 19.8931C37.0909 19.8071 37.655 19.5205 38.4389 19.1288C40.2647 18.2021 43.3238 16.6544 44.4805 16.3009C45.2931 16.0429 45.5034 15.9856 49.2699 16.0047C49.4515 16.0047 49.6332 16.0047 49.8244 16.0047C49.9486 16.0047 50.092 16.0047 50.2259 16.0047C56.6021 16.2053 60.9804 18.0683 62.8446 18.8708C63.1122 18.9855 63.3321 19.0714 63.4851 19.1383C64.2498 19.4249 65.4065 19.5682 66.2573 19.6733C66.6875 19.7307 67.1655 19.788 67.2898 19.8357C67.2898 19.8453 67.2898 19.8644 67.2898 19.874C67.3089 19.9122 67.3185 19.9504 67.3376 20.0077C67.3949 20.1701 67.481 20.4281 67.5479 20.7051C67.567 20.7338 67.5766 20.772 67.5861 20.8102L67.6244 20.944C67.6435 21.0299 67.6626 21.1064 67.6913 21.1733L67.8156 21.67C67.8156 21.67 67.8156 21.7083 67.8156 21.756V21.8038C67.8538 21.8707 67.8634 21.9375 67.8729 22.0044C67.8729 22.0331 67.8729 22.0522 67.8825 22.0904C67.8825 22.1573 67.8825 22.205 67.8825 22.2433C67.8825 22.3579 67.892 22.4439 67.9303 22.549C67.9398 22.549 67.9398 22.5681 67.9398 22.5776C67.9781 22.6827 68.045 22.7496 68.1024 22.826H68.1119L68.1406 22.8738L68.1693 22.912C68.1693 22.912 68.1884 22.9598 68.2171 22.9884L68.2362 23.0267C68.2362 23.0267 68.284 23.1222 68.3127 23.1891V23.2273C68.3509 23.2846 68.3605 23.3419 68.3796 23.3993C68.5421 24.0107 68.4847 25.7304 68.3318 26.1125C68.3222 26.1316 68.3127 26.1507 68.3127 26.1507C68.2075 26.1794 68.0928 26.2558 67.9398 26.3704C67.892 26.4087 67.8442 26.4469 67.7678 26.4946C67.7678 26.5138 67.7391 26.5233 67.7104 26.5329C67.6913 26.552 67.6817 26.5615 67.6626 26.5711L67.567 26.6379C67.567 26.6379 67.4905 26.6857 67.4523 26.7144C67.4141 26.7335 67.3758 26.7621 67.3471 26.7813C67.2707 26.8195 67.2038 26.8672 67.1177 26.9055L66.9361 27.0105C66.7544 27.1061 66.4581 27.1921 66.114 27.278C66.0757 27.278 66.0375 27.2876 65.9992 27.2972C65.9706 27.2972 65.9323 27.3163 65.875 27.3258H65.8463C65.8463 27.3258 65.7985 27.3258 65.7889 27.3449C65.3874 27.4309 64.9764 27.4882 64.7087 27.5264C64.7565 27.2972 64.7756 27.0488 64.7756 26.7908C64.7756 24.517 62.9306 22.6636 60.6554 22.6636C58.3802 22.6636 56.5448 24.517 56.5448 26.7908C56.5448 27.0488 56.5639 27.2972 56.6117 27.5551H36.8042C36.852 27.2685 36.8806 27.0296 36.8806 26.7908C36.8806 25.0329 35.7717 23.5235 34.2135 22.9311L34.1848 23.1795C35.6188 23.7432 36.6416 25.1571 36.6416 26.7908C36.6416 27.0488 36.613 27.3258 36.5365 27.6506L36.5078 27.7939H56.908L56.8794 27.6506C56.8124 27.364 56.7838 27.0774 56.7838 26.7908C56.7838 24.6508 58.5236 22.9025 60.6554 22.9025C62.7872 22.9025 64.5366 24.6508 64.5366 26.7908C64.5366 27.0965 64.5079 27.3736 64.4315 27.6315V27.7844H64.5749C64.833 27.7557 65.3396 27.6889 65.8558 27.5742C65.8654 27.5742 65.875 27.5742 65.8845 27.5742C65.9036 27.5742 65.9323 27.5647 65.9323 27.5647C65.9706 27.5647 66.0088 27.5455 66.0566 27.536C66.0853 27.536 66.114 27.5264 66.1618 27.5169C66.525 27.4309 66.85 27.3354 67.0412 27.2303L67.2324 27.1252C67.3185 27.087 67.3949 27.0392 67.481 26.9914C67.5097 26.9628 67.5479 26.9437 67.5861 26.9246C67.6244 26.8959 67.6626 26.8672 67.72 26.829L67.8442 26.743C67.8442 26.743 67.9112 26.7048 67.9207 26.6857C67.9781 26.6475 68.0354 26.6093 68.0832 26.5711C68.2075 26.4851 68.3222 26.3991 68.3605 26.3991H68.4274L68.4656 26.3513C68.4943 26.3227 68.523 26.2654 68.5517 26.2271C68.7237 25.7877 68.7811 24.0202 68.609 23.361L68.6186 23.3515Z" fill="#2F66F6"/>
<path d="M44.7104 20.0652C45.5421 20.0366 46.4503 19.9983 47.4254 19.941C46.5363 19.9792 45.6186 20.027 44.7104 20.0652ZM49.4616 16.4444C49.5667 16.4444 49.6623 16.4444 49.7579 16.4444H49.4616Z" fill="#2F66F6"/>
<path d="M50.207 18.9186C50.207 18.7084 50.1879 18.4982 50.1783 18.269C50.1401 17.6671 50.0731 17.0174 49.9871 16.32L49.968 16.2149H49.8628C49.3179 16.2149 48.6583 16.1958 47.9891 16.1958C46.5361 16.1958 45.5992 16.234 45.1308 16.3104C44.9683 16.3391 44.4712 16.5206 43.802 16.7881C43.5917 16.8741 43.3527 16.9697 43.1042 17.0747C41.1731 17.8964 38.5251 19.1574 37.9324 19.8549C37.8751 19.9313 37.8751 19.9982 37.8846 20.0364C37.8942 20.0937 37.9324 20.1319 37.9802 20.1606C38.0185 20.1892 38.0567 20.2083 38.0758 20.2083C38.0949 20.2083 38.1236 20.2275 38.1523 20.237C38.4104 20.3134 38.9075 20.3612 39.7105 20.3803C39.9782 20.3803 40.265 20.3994 40.5804 20.3994H40.7621C43.3432 20.3994 47.2722 20.1988 50.1114 20.0268H50.2261V19.9026C50.2261 19.5874 50.2261 19.2625 50.207 18.9186ZM40.4657 19.7975C40.3223 19.7307 40.2076 19.6924 40.1216 19.7498C40.0451 19.7975 40.0355 19.8644 40.0451 19.9026C40.0451 19.9982 40.1311 20.0746 40.2554 20.151C40.0642 20.151 39.8826 20.151 39.7201 20.151C39.0987 20.151 38.6494 20.1033 38.3817 20.0555C38.4008 20.0268 38.4295 20.0077 38.4486 19.9886C38.8406 19.6638 39.2421 19.3199 39.7583 19.0237C39.8921 18.9473 40.0069 18.8899 40.112 18.8326C40.265 18.7657 40.3988 18.718 40.6091 18.6989C40.6091 18.6989 40.8863 18.6989 40.8863 18.8517C40.8863 19.167 40.8385 19.5587 40.8194 19.7116C40.8003 19.9026 40.7429 19.9026 40.7238 19.9026C40.6473 19.9026 40.5422 19.8549 40.4657 19.8071V19.7975ZM48.8782 19.8644C48.6966 19.8644 48.4958 19.8835 48.3046 19.8931C48.0083 19.9122 47.7119 19.9313 47.4251 19.9408C46.45 19.9982 45.5419 20.0364 44.7102 20.065C44.519 20.065 44.3374 20.065 44.1462 20.0841C43.9072 20.0841 43.6777 20.1033 43.4579 20.1128C43.1615 20.1224 42.8747 20.1319 42.588 20.1415C42.3107 20.1415 42.0335 20.1415 41.7754 20.1415C41.4217 20.151 41.0775 20.151 40.7621 20.151H40.6951C40.6951 20.151 40.676 20.1319 40.6665 20.1224H40.7238C40.829 20.1224 41.0202 20.0746 41.0584 19.7211C41.0775 19.5587 41.1253 19.1574 41.1253 18.8326C41.1253 18.5842 40.9055 18.46 40.6665 18.4409L41.3834 18.097C41.5173 18.0301 41.6511 17.9632 41.7849 17.9059C41.9857 17.8199 42.1769 17.7339 42.3681 17.648C42.521 17.5715 42.674 17.5047 42.8269 17.4473C43.6108 17.1034 44.2991 16.8263 44.7389 16.6735C44.7867 16.6544 44.8345 16.6353 44.8823 16.6257C44.9587 16.5971 45.0257 16.578 45.083 16.5588C45.1213 16.5588 45.1499 16.5397 45.1691 16.5397C45.236 16.5397 45.322 16.5206 45.4176 16.5015C45.6375 16.4824 45.9147 16.4633 46.211 16.4538C46.689 16.4346 47.2817 16.4251 47.9891 16.4251C48.4958 16.4251 49.012 16.4251 49.4613 16.4251H49.7577C49.9202 17.6862 49.9871 18.7848 49.9871 19.7784C49.6047 19.7975 49.2414 19.8262 48.8782 19.8453V19.8644Z" fill="#2F66F6"/>
<path d="M25.639 23.705C25.4478 23.705 25.2471 23.705 25.0463 23.6955H24.6926L24.7117 23.5522C24.8169 22.7879 25.0272 22.4917 25.3905 22.0045L25.4861 21.8803H25.6677C25.8876 21.8803 26.1075 21.8803 26.3178 21.8803C26.7193 21.8803 27.245 21.8803 27.7708 21.928H27.9142L27.876 22.0809C27.6848 22.7974 27.4554 23.4471 26.6428 23.6381C26.3656 23.6955 26.0501 23.7241 25.6486 23.7241L25.639 23.705ZM24.9603 23.4566H25.0463C25.2375 23.4566 25.4383 23.4757 25.6295 23.4757C26.0119 23.4757 26.3082 23.4471 26.5759 23.3993C27.2164 23.2464 27.4267 22.7497 27.5988 22.1478C27.1303 22.1191 26.6715 22.1096 26.3082 22.1096C26.0883 22.1096 25.878 22.1096 25.6581 22.1096H25.6008L25.5817 22.1382C25.2471 22.5968 25.075 22.8356 24.9699 23.4471L24.9603 23.4566Z" fill="#2F66F6"/>
<path d="M30.3425 26.2557L30.3138 26.3895C30.2947 26.5137 30.2756 26.6474 30.2756 26.7907C30.2756 27.4499 30.5337 28.0709 31.0117 28.5391L31.1073 28.6346L31.8721 27.5741L32.1493 27.2016L32.35 26.9054L30.3425 26.2557ZM31.0786 28.262C30.7154 27.8512 30.5146 27.3353 30.5146 26.7907C30.5146 26.7143 30.5242 26.6379 30.5337 26.571L31.5088 26.8863L31.9772 27.0391L31.0786 28.262ZM32.3787 24.3259C31.6235 24.431 30.9448 24.9182 30.5624 25.6252L30.4955 25.7494L31.7382 26.1506L32.1875 26.3035L32.5221 26.4086V24.3068L32.3787 24.3259ZM32.2831 26.0838L30.8492 25.6156C31.1742 25.0806 31.7 24.708 32.2831 24.5838V26.0838ZM32.7802 26.4277C32.5795 26.4277 32.4265 26.5901 32.4265 26.7907C32.4265 26.9723 32.589 27.1347 32.7802 27.1347C32.9714 27.1347 33.1339 26.9723 33.1339 26.7907C33.1339 26.5901 32.981 26.4277 32.7802 26.4277ZM33.2678 27.8799L32.7802 27.2207L31.5279 28.9499L31.6522 29.0167C32.0059 29.1983 32.3787 29.2843 32.7802 29.2843C33.1817 29.2843 33.545 29.1887 33.9083 29.0167L34.0325 28.9499L33.2678 27.8799ZM31.8912 28.8639L32.7802 27.6315L33.6693 28.8543C33.0861 29.1123 32.4361 29.1027 31.8912 28.8543V28.8639ZM34.9981 25.6252C34.6348 24.9373 33.9561 24.4501 33.1913 24.3259L33.0479 24.2972V26.4086L35.065 25.7494L34.9981 25.6252ZM33.2869 26.0838V24.5838C33.8796 24.7176 34.3958 25.0902 34.7113 25.6156L33.2869 26.0838ZM35.2466 26.399L35.2179 26.2653L33.22 26.9054L34.4627 28.6346L34.5679 28.5391C35.0267 28.0614 35.2753 27.4404 35.2753 26.7907C35.2753 26.657 35.2753 26.5232 35.2466 26.399ZM34.4914 28.262L33.6119 27.0678L33.5928 27.0391L35.0267 26.5806C35.0267 26.6474 35.0267 26.7143 35.0267 26.7907C35.0267 27.3449 34.8451 27.8512 34.4818 28.262H34.4914ZM30.3425 26.2557L30.3138 26.3895C30.2947 26.5137 30.2756 26.6474 30.2756 26.7907C30.2756 27.4499 30.5337 28.0709 31.0117 28.5391L31.1073 28.6346L31.8721 27.5741L32.1493 27.2016L32.35 26.9054L30.3425 26.2557ZM31.0786 28.262C30.7154 27.8512 30.5146 27.3353 30.5146 26.7907C30.5146 26.7143 30.5242 26.6379 30.5337 26.571L31.5088 26.8863L31.9772 27.0391L31.0786 28.262ZM32.3787 24.3259C31.6235 24.431 30.9448 24.9182 30.5624 25.6252L30.4955 25.7494L31.7382 26.1506L32.1875 26.3035L32.5221 26.4086V24.3068L32.3787 24.3259ZM32.2831 26.0838L30.8492 25.6156C31.1742 25.0806 31.7 24.708 32.2831 24.5838V26.0838ZM32.7802 26.4277C32.5795 26.4277 32.4265 26.5901 32.4265 26.7907C32.4265 26.9723 32.589 27.1347 32.7802 27.1347C32.9714 27.1347 33.1339 26.9723 33.1339 26.7907C33.1339 26.5901 32.981 26.4277 32.7802 26.4277ZM33.2678 27.8799L32.7802 27.2207L31.5279 28.9499L31.6522 29.0167C32.0059 29.1983 32.3787 29.2843 32.7802 29.2843C33.1817 29.2843 33.545 29.1887 33.9083 29.0167L34.0325 28.9499L33.2678 27.8799ZM31.8912 28.8639L32.7802 27.6315L33.6693 28.8543C33.0861 29.1123 32.4361 29.1027 31.8912 28.8543V28.8639ZM34.9981 25.6252C34.6348 24.9373 33.9561 24.4501 33.1913 24.3259L33.0479 24.2972V26.4086L35.065 25.7494L34.9981 25.6252ZM33.2869 26.0838V24.5838C33.8796 24.7176 34.3958 25.0902 34.7113 25.6156L33.2869 26.0838ZM35.2466 26.399L35.2179 26.2653L33.22 26.9054L34.4627 28.6346L34.5679 28.5391C35.0267 28.0614 35.2753 27.4404 35.2753 26.7907C35.2753 26.657 35.2753 26.5232 35.2466 26.399ZM34.4914 28.262L33.6119 27.0678L33.5928 27.0391L35.0267 26.5806C35.0267 26.6474 35.0267 26.7143 35.0267 26.7907C35.0267 27.3449 34.8451 27.8512 34.4818 28.262H34.4914ZM30.3425 26.2557L30.3138 26.3895C30.2947 26.5137 30.2756 26.6474 30.2756 26.7907C30.2756 27.4499 30.5337 28.0709 31.0117 28.5391L31.1073 28.6346L31.8721 27.5741L32.1493 27.2016L32.35 26.9054L30.3425 26.2557ZM31.0786 28.262C30.7154 27.8512 30.5146 27.3353 30.5146 26.7907C30.5146 26.7143 30.5242 26.6379 30.5337 26.571L31.5088 26.8863L31.9772 27.0391L31.0786 28.262ZM32.3787 24.3259C31.6235 24.431 30.9448 24.9182 30.5624 25.6252L30.4955 25.7494L31.7382 26.1506L32.1875 26.3035L32.5221 26.4086V24.3068L32.3787 24.3259ZM32.2831 26.0838L30.8492 25.6156C31.1742 25.0806 31.7 24.708 32.2831 24.5838V26.0838ZM32.7802 26.4277C32.5795 26.4277 32.4265 26.5901 32.4265 26.7907C32.4265 26.9723 32.589 27.1347 32.7802 27.1347C32.9714 27.1347 33.1339 26.9723 33.1339 26.7907C33.1339 26.5901 32.981 26.4277 32.7802 26.4277ZM33.2678 27.8799L32.7802 27.2207L31.5279 28.9499L31.6522 29.0167C32.0059 29.1983 32.3787 29.2843 32.7802 29.2843C33.1817 29.2843 33.545 29.1887 33.9083 29.0167L34.0325 28.9499L33.2678 27.8799ZM31.8912 28.8639L32.7802 27.6315L33.6693 28.8543C33.0861 29.1123 32.4361 29.1027 31.8912 28.8543V28.8639ZM34.9981 25.6252C34.6348 24.9373 33.9561 24.4501 33.1913 24.3259L33.0479 24.2972V26.4086L35.065 25.7494L34.9981 25.6252ZM33.2869 26.0838V24.5838C33.8796 24.7176 34.3958 25.0902 34.7113 25.6156L33.2869 26.0838ZM35.2466 26.399L35.2179 26.2653L33.22 26.9054L34.4627 28.6346L34.5679 28.5391C35.0267 28.0614 35.2753 27.4404 35.2753 26.7907C35.2753 26.657 35.2753 26.5232 35.2466 26.399ZM34.4914 28.262L33.6119 27.0678L33.5928 27.0391L35.0267 26.5806C35.0267 26.6474 35.0267 26.7143 35.0267 26.7907C35.0267 27.3449 34.8451 27.8512 34.4818 28.262H34.4914ZM34.1473 23.7145L34.1186 23.9724C35.1701 24.4692 35.9062 25.5392 35.9062 26.7907C35.9062 28.5009 34.501 29.9052 32.7802 29.9052C31.0595 29.9052 29.6638 28.5009 29.6638 26.7907C29.6638 25.2908 30.7154 24.0393 32.1111 23.7431L32.0441 23.5138C30.5433 23.8482 29.4248 25.1857 29.4248 26.7907C29.4248 28.6346 30.9257 30.1441 32.7802 30.1441C34.6348 30.1441 36.1452 28.6346 36.1452 26.7907C36.1452 25.415 35.3231 24.2399 34.1473 23.7145ZM34.5679 28.5391C35.0267 28.0614 35.2753 27.4404 35.2753 26.7907C35.2753 26.657 35.2753 26.5232 35.2466 26.399L35.2179 26.2653L33.22 26.9054L34.4627 28.6346L34.5679 28.5391ZM33.5928 27.0391L35.0267 26.5806C35.0267 26.6474 35.0267 26.7143 35.0267 26.7907C35.0267 27.3449 34.8451 27.8512 34.4818 28.262L33.6024 27.0678L33.5832 27.0391H33.5928ZM34.9981 25.6252C34.6348 24.9373 33.9561 24.4501 33.1913 24.3259L33.0479 24.2972V26.4086L35.065 25.7494L34.9981 25.6252ZM33.2869 26.0838V24.5838C33.8796 24.7176 34.3958 25.0902 34.7113 25.6156L33.2869 26.0838ZM32.7802 29.2843C33.1626 29.2843 33.545 29.1887 33.9083 29.0167L34.0325 28.9499L33.2678 27.8799L32.7802 27.2207L31.5279 28.9499L31.6522 29.0167C32.0059 29.1983 32.3787 29.2843 32.7802 29.2843ZM32.7802 27.6315L33.6693 28.8543C33.0861 29.1123 32.4361 29.1027 31.8912 28.8543L32.7802 27.6219V27.6315ZM32.7802 27.1347C32.9714 27.1347 33.1339 26.9723 33.1339 26.7907C33.1339 26.5901 32.981 26.4277 32.7802 26.4277C32.5795 26.4277 32.4265 26.5901 32.4265 26.7907C32.4265 26.9723 32.589 27.1347 32.7802 27.1347ZM30.5624 25.6252L30.4955 25.7494L31.7382 26.1506L32.1875 26.3035L32.5221 26.4086V24.3068L32.3787 24.3259C31.6235 24.431 30.9448 24.9182 30.5624 25.6252ZM32.2831 24.5838V26.0838L30.8492 25.6156C31.1742 25.0806 31.7 24.708 32.2831 24.5838ZM32.35 26.9054L30.3425 26.2557L30.3138 26.3895C30.2947 26.5137 30.2756 26.6474 30.2756 26.7907C30.2756 27.4499 30.5337 28.0709 31.0117 28.5391L31.1073 28.6346L31.8721 27.5741L32.1493 27.2016L32.35 26.9054ZM31.0786 28.262C30.7154 27.8512 30.5146 27.3353 30.5146 26.7907C30.5146 26.7143 30.5242 26.6379 30.5337 26.571L31.5088 26.8863L31.9772 27.0391L31.0786 28.262ZM35.2466 26.399L35.2179 26.2653L33.22 26.9054L34.4627 28.6346L34.5679 28.5391C35.0267 28.0614 35.2753 27.4404 35.2753 26.7907C35.2753 26.657 35.2753 26.5232 35.2466 26.399ZM34.4914 28.262L33.6119 27.0678L33.5928 27.0391L35.0267 26.5806C35.0267 26.6474 35.0267 26.7143 35.0267 26.7907C35.0267 27.3449 34.8451 27.8512 34.4818 28.262H34.4914ZM34.9981 25.6252C34.6348 24.9373 33.9561 24.4501 33.1913 24.3259L33.0479 24.2972V26.4086L35.065 25.7494L34.9981 25.6252ZM33.2869 26.0838V24.5838C33.8796 24.7176 34.3958 25.0902 34.7113 25.6156L33.2869 26.0838ZM33.2678 27.8799L32.7802 27.2207L31.5279 28.9499L31.6522 29.0167C32.0059 29.1983 32.3787 29.2843 32.7802 29.2843C33.1817 29.2843 33.545 29.1887 33.9083 29.0167L34.0325 28.9499L33.2678 27.8799ZM31.8912 28.8639L32.7802 27.6315L33.6693 28.8543C33.0861 29.1123 32.4361 29.1027 31.8912 28.8543V28.8639ZM32.7802 26.4277C32.5795 26.4277 32.4265 26.5901 32.4265 26.7907C32.4265 26.9723 32.589 27.1347 32.7802 27.1347C32.9714 27.1347 33.1339 26.9723 33.1339 26.7907C33.1339 26.5901 32.981 26.4277 32.7802 26.4277ZM32.3787 24.3259C31.6235 24.431 30.9448 24.9182 30.5624 25.6252L30.4955 25.7494L31.7382 26.1506L32.1875 26.3035L32.5221 26.4086V24.3068L32.3787 24.3259ZM32.2831 26.0838L30.8492 25.6156C31.1742 25.0806 31.7 24.708 32.2831 24.5838V26.0838ZM30.3425 26.2557L30.3138 26.3895C30.2947 26.5137 30.2756 26.6474 30.2756 26.7907C30.2756 27.4499 30.5337 28.0709 31.0117 28.5391L31.1073 28.6346L31.8721 27.5741L32.1493 27.2016L32.35 26.9054L30.3425 26.2557ZM31.0786 28.262C30.7154 27.8512 30.5146 27.3353 30.5146 26.7907C30.5146 26.7143 30.5242 26.6379 30.5337 26.571L31.5088 26.8863L31.9772 27.0391L31.0786 28.262ZM35.2466 26.399L35.2179 26.2653L33.22 26.9054L34.4627 28.6346L34.5679 28.5391C35.0267 28.0614 35.2753 27.4404 35.2753 26.7907C35.2753 26.657 35.2753 26.5232 35.2466 26.399ZM34.4914 28.262L33.6119 27.0678L33.5928 27.0391L35.0267 26.5806C35.0267 26.6474 35.0267 26.7143 35.0267 26.7907C35.0267 27.3449 34.8451 27.8512 34.4818 28.262H34.4914ZM34.9981 25.6252C34.6348 24.9373 33.9561 24.4501 33.1913 24.3259L33.0479 24.2972V26.4086L35.065 25.7494L34.9981 25.6252ZM33.2869 26.0838V24.5838C33.8796 24.7176 34.3958 25.0902 34.7113 25.6156L33.2869 26.0838ZM33.2678 27.8799L32.7802 27.2207L31.5279 28.9499L31.6522 29.0167C32.0059 29.1983 32.3787 29.2843 32.7802 29.2843C33.1817 29.2843 33.545 29.1887 33.9083 29.0167L34.0325 28.9499L33.2678 27.8799ZM31.8912 28.8639L32.7802 27.6315L33.6693 28.8543C33.0861 29.1123 32.4361 29.1027 31.8912 28.8543V28.8639ZM32.7802 26.4277C32.5795 26.4277 32.4265 26.5901 32.4265 26.7907C32.4265 26.9723 32.589 27.1347 32.7802 27.1347C32.9714 27.1347 33.1339 26.9723 33.1339 26.7907C33.1339 26.5901 32.981 26.4277 32.7802 26.4277ZM32.3787 24.3259C31.6235 24.431 30.9448 24.9182 30.5624 25.6252L30.4955 25.7494L31.7382 26.1506L32.1875 26.3035L32.5221 26.4086V24.3068L32.3787 24.3259ZM32.2831 26.0838L30.8492 25.6156C31.1742 25.0806 31.7 24.708 32.2831 24.5838V26.0838ZM30.3425 26.2557L30.3138 26.3895C30.2947 26.5137 30.2756 26.6474 30.2756 26.7907C30.2756 27.4499 30.5337 28.0709 31.0117 28.5391L31.1073 28.6346L31.8721 27.5741L32.1493 27.2016L32.35 26.9054L30.3425 26.2557ZM31.0786 28.262C30.7154 27.8512 30.5146 27.3353 30.5146 26.7907C30.5146 26.7143 30.5242 26.6379 30.5337 26.571L31.5088 26.8863L31.9772 27.0391L31.0786 28.262ZM35.2466 26.399L35.2179 26.2653L33.22 26.9054L34.4627 28.6346L34.5679 28.5391C35.0267 28.0614 35.2753 27.4404 35.2753 26.7907C35.2753 26.657 35.2753 26.5232 35.2466 26.399ZM34.4914 28.262L33.6119 27.0678L33.5928 27.0391L35.0267 26.5806C35.0267 26.6474 35.0267 26.7143 35.0267 26.7907C35.0267 27.3449 34.8451 27.8512 34.4818 28.262H34.4914ZM34.9981 25.6252C34.6348 24.9373 33.9561 24.4501 33.1913 24.3259L33.0479 24.2972V26.4086L35.065 25.7494L34.9981 25.6252ZM33.2869 26.0838V24.5838C33.8796 24.7176 34.3958 25.0902 34.7113 25.6156L33.2869 26.0838ZM33.2678 27.8799L32.7802 27.2207L31.5279 28.9499L31.6522 29.0167C32.0059 29.1983 32.3787 29.2843 32.7802 29.2843C33.1817 29.2843 33.545 29.1887 33.9083 29.0167L34.0325 28.9499L33.2678 27.8799ZM31.8912 28.8639L32.7802 27.6315L33.6693 28.8543C33.0861 29.1123 32.4361 29.1027 31.8912 28.8543V28.8639ZM32.7802 26.4277C32.5795 26.4277 32.4265 26.5901 32.4265 26.7907C32.4265 26.9723 32.589 27.1347 32.7802 27.1347C32.9714 27.1347 33.1339 26.9723 33.1339 26.7907C33.1339 26.5901 32.981 26.4277 32.7802 26.4277ZM32.3787 24.3259C31.6235 24.431 30.9448 24.9182 30.5624 25.6252L30.4955 25.7494L31.7382 26.1506L32.1875 26.3035L32.5221 26.4086V24.3068L32.3787 24.3259ZM32.2831 26.0838L30.8492 25.6156C31.1742 25.0806 31.7 24.708 32.2831 24.5838V26.0838ZM30.3425 26.2557L30.3138 26.3895C30.2947 26.5137 30.2756 26.6474 30.2756 26.7907C30.2756 27.4499 30.5337 28.0709 31.0117 28.5391L31.1073 28.6346L31.8721 27.5741L32.1493 27.2016L32.35 26.9054L30.3425 26.2557ZM31.0786 28.262C30.7154 27.8512 30.5146 27.3353 30.5146 26.7907C30.5146 26.7143 30.5242 26.6379 30.5337 26.571L31.5088 26.8863L31.9772 27.0391L31.0786 28.262ZM30.3425 26.2557L30.3138 26.3895C30.2947 26.5137 30.2756 26.6474 30.2756 26.7907C30.2756 27.4499 30.5337 28.0709 31.0117 28.5391L31.1073 28.6346L31.8721 27.5741L32.1493 27.2016L32.35 26.9054L30.3425 26.2557ZM31.0786 28.262C30.7154 27.8512 30.5146 27.3353 30.5146 26.7907C30.5146 26.7143 30.5242 26.6379 30.5337 26.571L31.5088 26.8863L31.9772 27.0391L31.0786 28.262ZM32.3787 24.3259C31.6235 24.431 30.9448 24.9182 30.5624 25.6252L30.4955 25.7494L31.7382 26.1506L32.1875 26.3035L32.5221 26.4086V24.3068L32.3787 24.3259ZM32.2831 26.0838L30.8492 25.6156C31.1742 25.0806 31.7 24.708 32.2831 24.5838V26.0838ZM32.7802 26.4277C32.5795 26.4277 32.4265 26.5901 32.4265 26.7907C32.4265 26.9723 32.589 27.1347 32.7802 27.1347C32.9714 27.1347 33.1339 26.9723 33.1339 26.7907C33.1339 26.5901 32.981 26.4277 32.7802 26.4277ZM33.2678 27.8799L32.7802 27.2207L31.5279 28.9499L31.6522 29.0167C32.0059 29.1983 32.3787 29.2843 32.7802 29.2843C33.1817 29.2843 33.545 29.1887 33.9083 29.0167L34.0325 28.9499L33.2678 27.8799ZM31.8912 28.8639L32.7802 27.6315L33.6693 28.8543C33.0861 29.1123 32.4361 29.1027 31.8912 28.8543V28.8639ZM34.9981 25.6252C34.6348 24.9373 33.9561 24.4501 33.1913 24.3259L33.0479 24.2972V26.4086L35.065 25.7494L34.9981 25.6252ZM33.2869 26.0838V24.5838C33.8796 24.7176 34.3958 25.0902 34.7113 25.6156L33.2869 26.0838ZM35.2466 26.399L35.2179 26.2653L33.22 26.9054L34.4627 28.6346L34.5679 28.5391C35.0267 28.0614 35.2753 27.4404 35.2753 26.7907C35.2753 26.657 35.2753 26.5232 35.2466 26.399ZM34.4914 28.262L33.6119 27.0678L33.5928 27.0391L35.0267 26.5806C35.0267 26.6474 35.0267 26.7143 35.0267 26.7907C35.0267 27.3449 34.8451 27.8512 34.4818 28.262H34.4914ZM35.2466 26.399L35.2179 26.2653L33.22 26.9054L34.4627 28.6346L34.5679 28.5391C35.0267 28.0614 35.2753 27.4404 35.2753 26.7907C35.2753 26.657 35.2753 26.5232 35.2466 26.399ZM34.4914 28.262L33.6119 27.0678L33.5928 27.0391L35.0267 26.5806C35.0267 26.6474 35.0267 26.7143 35.0267 26.7907C35.0267 27.3449 34.8451 27.8512 34.4818 28.262H34.4914ZM34.9981 25.6252C34.6348 24.9373 33.9561 24.4501 33.1913 24.3259L33.0479 24.2972V26.4086L35.065 25.7494L34.9981 25.6252ZM33.2869 26.0838V24.5838C33.8796 24.7176 34.3958 25.0902 34.7113 25.6156L33.2869 26.0838ZM33.2678 27.8799L32.7802 27.2207L31.5279 28.9499L31.6522 29.0167C32.0059 29.1983 32.3787 29.2843 32.7802 29.2843C33.1817 29.2843 33.545 29.1887 33.9083 29.0167L34.0325 28.9499L33.2678 27.8799ZM31.8912 28.8639L32.7802 27.6315L33.6693 28.8543C33.0861 29.1123 32.4361 29.1027 31.8912 28.8543V28.8639ZM32.7802 26.4277C32.5795 26.4277 32.4265 26.5901 32.4265 26.7907C32.4265 26.9723 32.589 27.1347 32.7802 27.1347C32.9714 27.1347 33.1339 26.9723 33.1339 26.7907C33.1339 26.5901 32.981 26.4277 32.7802 26.4277ZM32.3787 24.3259C31.6235 24.431 30.9448 24.9182 30.5624 25.6252L30.4955 25.7494L31.7382 26.1506L32.1875 26.3035L32.5221 26.4086V24.3068L32.3787 24.3259ZM32.2831 26.0838L30.8492 25.6156C31.1742 25.0806 31.7 24.708 32.2831 24.5838V26.0838ZM30.3425 26.2557L30.3138 26.3895C30.2947 26.5137 30.2756 26.6474 30.2756 26.7907C30.2756 27.4499 30.5337 28.0709 31.0117 28.5391L31.1073 28.6346L31.8721 27.5741L32.1493 27.2016L32.35 26.9054L30.3425 26.2557ZM31.0786 28.262C30.7154 27.8512 30.5146 27.3353 30.5146 26.7907C30.5146 26.7143 30.5242 26.6379 30.5337 26.571L31.5088 26.8863L31.9772 27.0391L31.0786 28.262ZM30.3425 26.2557L30.3138 26.3895C30.2947 26.5137 30.2756 26.6474 30.2756 26.7907C30.2756 27.4499 30.5337 28.0709 31.0117 28.5391L31.1073 28.6346L31.8721 27.5741L32.1493 27.2016L32.35 26.9054L30.3425 26.2557ZM31.0786 28.262C30.7154 27.8512 30.5146 27.3353 30.5146 26.7907C30.5146 26.7143 30.5242 26.6379 30.5337 26.571L31.5088 26.8863L31.9772 27.0391L31.0786 28.262ZM32.3787 24.3259C31.6235 24.431 30.9448 24.9182 30.5624 25.6252L30.4955 25.7494L31.7382 26.1506L32.1875 26.3035L32.5221 26.4086V24.3068L32.3787 24.3259ZM32.2831 26.0838L30.8492 25.6156C31.1742 25.0806 31.7 24.708 32.2831 24.5838V26.0838ZM32.7802 26.4277C32.5795 26.4277 32.4265 26.5901 32.4265 26.7907C32.4265 26.9723 32.589 27.1347 32.7802 27.1347C32.9714 27.1347 33.1339 26.9723 33.1339 26.7907C33.1339 26.5901 32.981 26.4277 32.7802 26.4277ZM33.2678 27.8799L32.7802 27.2207L31.5279 28.9499L31.6522 29.0167C32.0059 29.1983 32.3787 29.2843 32.7802 29.2843C33.1817 29.2843 33.545 29.1887 33.9083 29.0167L34.0325 28.9499L33.2678 27.8799ZM31.8912 28.8639L32.7802 27.6315L33.6693 28.8543C33.0861 29.1123 32.4361 29.1027 31.8912 28.8543V28.8639ZM34.9981 25.6252C34.6348 24.9373 33.9561 24.4501 33.1913 24.3259L33.0479 24.2972V26.4086L35.065 25.7494L34.9981 25.6252ZM33.2869 26.0838V24.5838C33.8796 24.7176 34.3958 25.0902 34.7113 25.6156L33.2869 26.0838ZM35.2466 26.399L35.2179 26.2653L33.22 26.9054L34.4627 28.6346L34.5679 28.5391C35.0267 28.0614 35.2753 27.4404 35.2753 26.7907C35.2753 26.657 35.2753 26.5232 35.2466 26.399ZM34.4914 28.262L33.6119 27.0678L33.5928 27.0391L35.0267 26.5806C35.0267 26.6474 35.0267 26.7143 35.0267 26.7907C35.0267 27.3449 34.8451 27.8512 34.4818 28.262H34.4914ZM35.2466 26.399L35.2179 26.2653L33.22 26.9054L34.4627 28.6346L34.5679 28.5391C35.0267 28.0614 35.2753 27.4404 35.2753 26.7907C35.2753 26.657 35.2753 26.5232 35.2466 26.399ZM34.4914 28.262L33.6119 27.0678L33.5928 27.0391L35.0267 26.5806C35.0267 26.6474 35.0267 26.7143 35.0267 26.7907C35.0267 27.3449 34.8451 27.8512 34.4818 28.262H34.4914ZM34.9981 25.6252C34.6348 24.9373 33.9561 24.4501 33.1913 24.3259L33.0479 24.2972V26.4086L35.065 25.7494L34.9981 25.6252ZM33.2869 26.0838V24.5838C33.8796 24.7176 34.3958 25.0902 34.7113 25.6156L33.2869 26.0838ZM33.2678 27.8799L32.7802 27.2207L31.5279 28.9499L31.6522 29.0167C32.0059 29.1983 32.3787 29.2843 32.7802 29.2843C33.1817 29.2843 33.545 29.1887 33.9083 29.0167L34.0325 28.9499L33.2678 27.8799ZM31.8912 28.8639L32.7802 27.6315L33.6693 28.8543C33.0861 29.1123 32.4361 29.1027 31.8912 28.8543V28.8639ZM32.7802 26.4277C32.5795 26.4277 32.4265 26.5901 32.4265 26.7907C32.4265 26.9723 32.589 27.1347 32.7802 27.1347C32.9714 27.1347 33.1339 26.9723 33.1339 26.7907C33.1339 26.5901 32.981 26.4277 32.7802 26.4277ZM32.3787 24.3259C31.6235 24.431 30.9448 24.9182 30.5624 25.6252L30.4955 25.7494L31.7382 26.1506L32.1875 26.3035L32.5221 26.4086V24.3068L32.3787 24.3259ZM32.2831 26.0838L30.8492 25.6156C31.1742 25.0806 31.7 24.708 32.2831 24.5838V26.0838ZM30.3425 26.2557L30.3138 26.3895C30.2947 26.5137 30.2756 26.6474 30.2756 26.7907C30.2756 27.4499 30.5337 28.0709 31.0117 28.5391L31.1073 28.6346L31.8721 27.5741L32.1493 27.2016L32.35 26.9054L30.3425 26.2557ZM31.0786 28.262C30.7154 27.8512 30.5146 27.3353 30.5146 26.7907C30.5146 26.7143 30.5242 26.6379 30.5337 26.571L31.5088 26.8863L31.9772 27.0391L31.0786 28.262ZM30.3425 26.2557L30.3138 26.3895C30.2947 26.5137 30.2756 26.6474 30.2756 26.7907C30.2756 27.4499 30.5337 28.0709 31.0117 28.5391L31.1073 28.6346L31.8721 27.5741L32.1493 27.2016L32.35 26.9054L30.3425 26.2557ZM31.0786 28.262C30.7154 27.8512 30.5146 27.3353 30.5146 26.7907C30.5146 26.7143 30.5242 26.6379 30.5337 26.571L31.5088 26.8863L31.9772 27.0391L31.0786 28.262ZM32.3787 24.3259C31.6235 24.431 30.9448 24.9182 30.5624 25.6252L30.4955 25.7494L31.7382 26.1506L32.1875 26.3035L32.5221 26.4086V24.3068L32.3787 24.3259ZM32.2831 26.0838L30.8492 25.6156C31.1742 25.0806 31.7 24.708 32.2831 24.5838V26.0838ZM32.7802 26.4277C32.5795 26.4277 32.4265 26.5901 32.4265 26.7907C32.4265 26.9723 32.589 27.1347 32.7802 27.1347C32.9714 27.1347 33.1339 26.9723 33.1339 26.7907C33.1339 26.5901 32.981 26.4277 32.7802 26.4277ZM33.2678 27.8799L32.7802 27.2207L31.5279 28.9499L31.6522 29.0167C32.0059 29.1983 32.3787 29.2843 32.7802 29.2843C33.1817 29.2843 33.545 29.1887 33.9083 29.0167L34.0325 28.9499L33.2678 27.8799ZM31.8912 28.8639L32.7802 27.6315L33.6693 28.8543C33.0861 29.1123 32.4361 29.1027 31.8912 28.8543V28.8639ZM34.9981 25.6252C34.6348 24.9373 33.9561 24.4501 33.1913 24.3259L33.0479 24.2972V26.4086L35.065 25.7494L34.9981 25.6252ZM33.2869 26.0838V24.5838C33.8796 24.7176 34.3958 25.0902 34.7113 25.6156L33.2869 26.0838ZM35.2466 26.399L35.2179 26.2653L33.22 26.9054L34.4627 28.6346L34.5679 28.5391C35.0267 28.0614 35.2753 27.4404 35.2753 26.7907C35.2753 26.657 35.2753 26.5232 35.2466 26.399ZM34.4914 28.262L33.6119 27.0678L33.5928 27.0391L35.0267 26.5806C35.0267 26.6474 35.0267 26.7143 35.0267 26.7907C35.0267 27.3449 34.8451 27.8512 34.4818 28.262H34.4914ZM35.2466 26.399L35.2179 26.2653L33.22 26.9054L34.4627 28.6346L34.5679 28.5391C35.0267 28.0614 35.2753 27.4404 35.2753 26.7907C35.2753 26.657 35.2753 26.5232 35.2466 26.399ZM34.4914 28.262L33.6119 27.0678L33.5928 27.0391L35.0267 26.5806C35.0267 26.6474 35.0267 26.7143 35.0267 26.7907C35.0267 27.3449 34.8451 27.8512 34.4818 28.262H34.4914ZM34.9981 25.6252C34.6348 24.9373 33.9561 24.4501 33.1913 24.3259L33.0479 24.2972V26.4086L35.065 25.7494L34.9981 25.6252ZM33.2869 26.0838V24.5838C33.8796 24.7176 34.3958 25.0902 34.7113 25.6156L33.2869 26.0838ZM33.2678 27.8799L32.7802 27.2207L31.5279 28.9499L31.6522 29.0167C32.0059 29.1983 32.3787 29.2843 32.7802 29.2843C33.1817 29.2843 33.545 29.1887 33.9083 29.0167L34.0325 28.9499L33.2678 27.8799ZM31.8912 28.8639L32.7802 27.6315L33.6693 28.8543C33.0861 29.1123 32.4361 29.1027 31.8912 28.8543V28.8639ZM32.7802 26.4277C32.5795 26.4277 32.4265 26.5901 32.4265 26.7907C32.4265 26.9723 32.589 27.1347 32.7802 27.1347C32.9714 27.1347 33.1339 26.9723 33.1339 26.7907C33.1339 26.5901 32.981 26.4277 32.7802 26.4277ZM32.3787 24.3259C31.6235 24.431 30.9448 24.9182 30.5624 25.6252L30.4955 25.7494L31.7382 26.1506L32.1875 26.3035L32.5221 26.4086V24.3068L32.3787 24.3259ZM32.2831 26.0838L30.8492 25.6156C31.1742 25.0806 31.7 24.708 32.2831 24.5838V26.0838ZM30.3425 26.2557L30.3138 26.3895C30.2947 26.5137 30.2756 26.6474 30.2756 26.7907C30.2756 27.4499 30.5337 28.0709 31.0117 28.5391L31.1073 28.6346L31.8721 27.5741L32.1493 27.2016L32.35 26.9054L30.3425 26.2557ZM31.0786 28.262C30.7154 27.8512 30.5146 27.3353 30.5146 26.7907C30.5146 26.7143 30.5242 26.6379 30.5337 26.571L31.5088 26.8863L31.9772 27.0391L31.0786 28.262ZM30.3425 26.2557L30.3138 26.3895C30.2947 26.5137 30.2756 26.6474 30.2756 26.7907C30.2756 27.4499 30.5337 28.0709 31.0117 28.5391L31.1073 28.6346L31.8721 27.5741L32.1493 27.2016L32.35 26.9054L30.3425 26.2557ZM31.0786 28.262C30.7154 27.8512 30.5146 27.3353 30.5146 26.7907C30.5146 26.7143 30.5242 26.6379 30.5337 26.571L31.5088 26.8863L31.9772 27.0391L31.0786 28.262ZM32.3787 24.3259C31.6235 24.431 30.9448 24.9182 30.5624 25.6252L30.4955 25.7494L31.7382 26.1506L32.1875 26.3035L32.5221 26.4086V24.3068L32.3787 24.3259ZM32.2831 26.0838L30.8492 25.6156C31.1742 25.0806 31.7 24.708 32.2831 24.5838V26.0838ZM32.7802 26.4277C32.5795 26.4277 32.4265 26.5901 32.4265 26.7907C32.4265 26.9723 32.589 27.1347 32.7802 27.1347C32.9714 27.1347 33.1339 26.9723 33.1339 26.7907C33.1339 26.5901 32.981 26.4277 32.7802 26.4277ZM33.2678 27.8799L32.7802 27.2207L31.5279 28.9499L31.6522 29.0167C32.0059 29.1983 32.3787 29.2843 32.7802 29.2843C33.1817 29.2843 33.545 29.1887 33.9083 29.0167L34.0325 28.9499L33.2678 27.8799ZM31.8912 28.8639L32.7802 27.6315L33.6693 28.8543C33.0861 29.1123 32.4361 29.1027 31.8912 28.8543V28.8639ZM34.9981 25.6252C34.6348 24.9373 33.9561 24.4501 33.1913 24.3259L33.0479 24.2972V26.4086L35.065 25.7494L34.9981 25.6252ZM33.2869 26.0838V24.5838C33.8796 24.7176 34.3958 25.0902 34.7113 25.6156L33.2869 26.0838ZM35.2466 26.399L35.2179 26.2653L33.22 26.9054L34.4627 28.6346L34.5679 28.5391C35.0267 28.0614 35.2753 27.4404 35.2753 26.7907C35.2753 26.657 35.2753 26.5232 35.2466 26.399ZM34.4914 28.262L33.6119 27.0678L33.5928 27.0391L35.0267 26.5806C35.0267 26.6474 35.0267 26.7143 35.0267 26.7907C35.0267 27.3449 34.8451 27.8512 34.4818 28.262H34.4914ZM35.2466 26.399L35.2179 26.2653L33.22 26.9054L34.4627 28.6346L34.5679 28.5391C35.0267 28.0614 35.2753 27.4404 35.2753 26.7907C35.2753 26.657 35.2753 26.5232 35.2466 26.399ZM34.4914 28.262L33.6119 27.0678L33.5928 27.0391L35.0267 26.5806C35.0267 26.6474 35.0267 26.7143 35.0267 26.7907C35.0267 27.3449 34.8451 27.8512 34.4818 28.262H34.4914ZM34.9981 25.6252C34.6348 24.9373 33.9561 24.4501 33.1913 24.3259L33.0479 24.2972V26.4086L35.065 25.7494L34.9981 25.6252ZM33.2869 26.0838V24.5838C33.8796 24.7176 34.3958 25.0902 34.7113 25.6156L33.2869 26.0838ZM33.2678 27.8799L32.7802 27.2207L31.5279 28.9499L31.6522 29.0167C32.0059 29.1983 32.3787 29.2843 32.7802 29.2843C33.1817 29.2843 33.545 29.1887 33.9083 29.0167L34.0325 28.9499L33.2678 27.8799ZM31.8912 28.8639L32.7802 27.6315L33.6693 28.8543C33.0861 29.1123 32.4361 29.1027 31.8912 28.8543V28.8639ZM32.7802 26.4277C32.5795 26.4277 32.4265 26.5901 32.4265 26.7907C32.4265 26.9723 32.589 27.1347 32.7802 27.1347C32.9714 27.1347 33.1339 26.9723 33.1339 26.7907C33.1339 26.5901 32.981 26.4277 32.7802 26.4277ZM32.3787 24.3259C31.6235 24.431 30.9448 24.9182 30.5624 25.6252L30.4955 25.7494L31.7382 26.1506L32.1875 26.3035L32.5221 26.4086V24.3068L32.3787 24.3259ZM32.2831 26.0838L30.8492 25.6156C31.1742 25.0806 31.7 24.708 32.2831 24.5838V26.0838ZM30.3425 26.2557L30.3138 26.3895C30.2947 26.5137 30.2756 26.6474 30.2756 26.7907C30.2756 27.4499 30.5337 28.0709 31.0117 28.5391L31.1073 28.6346L31.8721 27.5741L32.1493 27.2016L32.35 26.9054L30.3425 26.2557ZM31.0786 28.262C30.7154 27.8512 30.5146 27.3353 30.5146 26.7907C30.5146 26.7143 30.5242 26.6379 30.5337 26.571L31.5088 26.8863L31.9772 27.0391L31.0786 28.262ZM30.3425 26.2557L30.3138 26.3895C30.2947 26.5137 30.2756 26.6474 30.2756 26.7907C30.2756 27.4499 30.5337 28.0709 31.0117 28.5391L31.1073 28.6346L31.8721 27.5741L32.1493 27.2016L32.35 26.9054L30.3425 26.2557ZM31.0786 28.262C30.7154 27.8512 30.5146 27.3353 30.5146 26.7907C30.5146 26.7143 30.5242 26.6379 30.5337 26.571L31.5088 26.8863L31.9772 27.0391L31.0786 28.262ZM32.3787 24.3259C31.6235 24.431 30.9448 24.9182 30.5624 25.6252L30.4955 25.7494L31.7382 26.1506L32.1875 26.3035L32.5221 26.4086V24.3068L32.3787 24.3259ZM32.2831 26.0838L30.8492 25.6156C31.1742 25.0806 31.7 24.708 32.2831 24.5838V26.0838ZM32.7802 26.4277C32.5795 26.4277 32.4265 26.5901 32.4265 26.7907C32.4265 26.9723 32.589 27.1347 32.7802 27.1347C32.9714 27.1347 33.1339 26.9723 33.1339 26.7907C33.1339 26.5901 32.981 26.4277 32.7802 26.4277ZM33.2678 27.8799L32.7802 27.2207L31.5279 28.9499L31.6522 29.0167C32.0059 29.1983 32.3787 29.2843 32.7802 29.2843C33.1817 29.2843 33.545 29.1887 33.9083 29.0167L34.0325 28.9499L33.2678 27.8799ZM31.8912 28.8639L32.7802 27.6315L33.6693 28.8543C33.0861 29.1123 32.4361 29.1027 31.8912 28.8543V28.8639ZM34.9981 25.6252C34.6348 24.9373 33.9561 24.4501 33.1913 24.3259L33.0479 24.2972V26.4086L35.065 25.7494L34.9981 25.6252ZM33.2869 26.0838V24.5838C33.8796 24.7176 34.3958 25.0902 34.7113 25.6156L33.2869 26.0838ZM35.2466 26.399L35.2179 26.2653L33.22 26.9054L34.4627 28.6346L34.5679 28.5391C35.0267 28.0614 35.2753 27.4404 35.2753 26.7907C35.2753 26.657 35.2753 26.5232 35.2466 26.399ZM34.4914 28.262L33.6119 27.0678L33.5928 27.0391L35.0267 26.5806C35.0267 26.6474 35.0267 26.7143 35.0267 26.7907C35.0267 27.3449 34.8451 27.8512 34.4818 28.262H34.4914ZM35.2466 26.399L35.2179 26.2653L33.22 26.9054L34.4627 28.6346L34.5679 28.5391C35.0267 28.0614 35.2753 27.4404 35.2753 26.7907C35.2753 26.657 35.2753 26.5232 35.2466 26.399ZM34.4914 28.262L33.6119 27.0678L33.5928 27.0391L35.0267 26.5806C35.0267 26.6474 35.0267 26.7143 35.0267 26.7907C35.0267 27.3449 34.8451 27.8512 34.4818 28.262H34.4914ZM34.9981 25.6252C34.6348 24.9373 33.9561 24.4501 33.1913 24.3259L33.0479 24.2972V26.4086L35.065 25.7494L34.9981 25.6252ZM33.2869 26.0838V24.5838C33.8796 24.7176 34.3958 25.0902 34.7113 25.6156L33.2869 26.0838ZM33.2678 27.8799L32.7802 27.2207L31.5279 28.9499L31.6522 29.0167C32.0059 29.1983 32.3787 29.2843 32.7802 29.2843C33.1817 29.2843 33.545 29.1887 33.9083 29.0167L34.0325 28.9499L33.2678 27.8799ZM31.8912 28.8639L32.7802 27.6315L33.6693 28.8543C33.0861 29.1123 32.4361 29.1027 31.8912 28.8543V28.8639ZM32.7802 26.4277C32.5795 26.4277 32.4265 26.5901 32.4265 26.7907C32.4265 26.9723 32.589 27.1347 32.7802 27.1347C32.9714 27.1347 33.1339 26.9723 33.1339 26.7907C33.1339 26.5901 32.981 26.4277 32.7802 26.4277ZM32.3787 24.3259C31.6235 24.431 30.9448 24.9182 30.5624 25.6252L30.4955 25.7494L31.7382 26.1506L32.1875 26.3035L32.5221 26.4086V24.3068L32.3787 24.3259ZM32.2831 26.0838L30.8492 25.6156C31.1742 25.0806 31.7 24.708 32.2831 24.5838V26.0838ZM30.3425 26.2557L30.3138 26.3895C30.2947 26.5137 30.2756 26.6474 30.2756 26.7907C30.2756 27.4499 30.5337 28.0709 31.0117 28.5391L31.1073 28.6346L31.8721 27.5741L32.1493 27.2016L32.35 26.9054L30.3425 26.2557ZM31.0786 28.262C30.7154 27.8512 30.5146 27.3353 30.5146 26.7907C30.5146 26.7143 30.5242 26.6379 30.5337 26.571L31.5088 26.8863L31.9772 27.0391L31.0786 28.262ZM30.3425 26.2557L30.3138 26.3895C30.2947 26.5137 30.2756 26.6474 30.2756 26.7907C30.2756 27.4499 30.5337 28.0709 31.0117 28.5391L31.1073 28.6346L31.8721 27.5741L32.1493 27.2016L32.35 26.9054L30.3425 26.2557ZM31.0786 28.262C30.7154 27.8512 30.5146 27.3353 30.5146 26.7907C30.5146 26.7143 30.5242 26.6379 30.5337 26.571L31.5088 26.8863L31.9772 27.0391L31.0786 28.262ZM32.3787 24.3259C31.6235 24.431 30.9448 24.9182 30.5624 25.6252L30.4955 25.7494L31.7382 26.1506L32.1875 26.3035L32.5221 26.4086V24.3068L32.3787 24.3259ZM32.2831 26.0838L30.8492 25.6156C31.1742 25.0806 31.7 24.708 32.2831 24.5838V26.0838ZM32.7802 26.4277C32.5795 26.4277 32.4265 26.5901 32.4265 26.7907C32.4265 26.9723 32.589 27.1347 32.7802 27.1347C32.9714 27.1347 33.1339 26.9723 33.1339 26.7907C33.1339 26.5901 32.981 26.4277 32.7802 26.4277ZM33.2678 27.8799L32.7802 27.2207L31.5279 28.9499L31.6522 29.0167C32.0059 29.1983 32.3787 29.2843 32.7802 29.2843C33.1817 29.2843 33.545 29.1887 33.9083 29.0167L34.0325 28.9499L33.2678 27.8799ZM31.8912 28.8639L32.7802 27.6315L33.6693 28.8543C33.0861 29.1123 32.4361 29.1027 31.8912 28.8543V28.8639ZM34.9981 25.6252C34.6348 24.9373 33.9561 24.4501 33.1913 24.3259L33.0479 24.2972V26.4086L35.065 25.7494L34.9981 25.6252ZM33.2869 26.0838V24.5838C33.8796 24.7176 34.3958 25.0902 34.7113 25.6156L33.2869 26.0838ZM35.2466 26.399L35.2179 26.2653L33.22 26.9054L34.4627 28.6346L34.5679 28.5391C35.0267 28.0614 35.2753 27.4404 35.2753 26.7907C35.2753 26.657 35.2753 26.5232 35.2466 26.399ZM34.4914 28.262L33.6119 27.0678L33.5928 27.0391L35.0267 26.5806C35.0267 26.6474 35.0267 26.7143 35.0267 26.7907C35.0267 27.3449 34.8451 27.8512 34.4818 28.262H34.4914ZM33.2678 27.8799L32.7802 27.2207L31.5279 28.9499L31.6522 29.0167C32.0059 29.1983 32.3787 29.2843 32.7802 29.2843C33.1817 29.2843 33.545 29.1887 33.9083 29.0167L34.0325 28.9499L33.2678 27.8799ZM31.8912 28.8639L32.7802 27.6315L33.6693 28.8543C33.0861 29.1123 32.4361 29.1027 31.8912 28.8543V28.8639ZM35.2466 26.399L35.2179 26.2653L33.22 26.9054L34.4627 28.6346L34.5679 28.5391C35.0267 28.0614 35.2753 27.4404 35.2753 26.7907C35.2753 26.657 35.2753 26.5232 35.2466 26.399ZM34.4914 28.262L33.6119 27.0678L33.5928 27.0391L35.0267 26.5806C35.0267 26.6474 35.0267 26.7143 35.0267 26.7907C35.0267 27.3449 34.8451 27.8512 34.4818 28.262H34.4914ZM30.3425 26.2557L30.3138 26.3895C30.2947 26.5137 30.2756 26.6474 30.2756 26.7907C30.2756 27.4499 30.5337 28.0709 31.0117 28.5391L31.1073 28.6346L31.8721 27.5741L32.1493 27.2016L32.35 26.9054L30.3425 26.2557ZM31.0786 28.262C30.7154 27.8512 30.5146 27.3353 30.5146 26.7907C30.5146 26.7143 30.5242 26.6379 30.5337 26.571L31.5088 26.8863L31.9772 27.0391L31.0786 28.262ZM32.7802 26.4277C32.5795 26.4277 32.4265 26.5901 32.4265 26.7907C32.4265 26.9723 32.589 27.1347 32.7802 27.1347C32.9714 27.1347 33.1339 26.9723 33.1339 26.7907C33.1339 26.5901 32.981 26.4277 32.7802 26.4277ZM34.9981 25.6252C34.6348 24.9373 33.9561 24.4501 33.1913 24.3259L33.0479 24.2972V26.4086L35.065 25.7494L34.9981 25.6252ZM33.2869 26.0838V24.5838C33.8796 24.7176 34.3958 25.0902 34.7113 25.6156L33.2869 26.0838ZM32.3787 24.3259C31.6235 24.431 30.9448 24.9182 30.5624 25.6252L30.4955 25.7494L31.7382 26.1506L32.1875 26.3035L32.5221 26.4086V24.3068L32.3787 24.3259ZM32.2831 26.0838L30.8492 25.6156C31.1742 25.0806 31.7 24.708 32.2831 24.5838V26.0838Z" fill="#2F66F6"/>
<path d="M31.107 28.6346L31.0114 28.539C30.543 28.0709 30.2849 27.4499 30.2849 26.7907C30.2849 26.6474 30.2945 26.5137 30.3231 26.3895L30.3518 26.2557L32.3593 26.9054L32.1586 27.2015L31.8718 27.5741L31.107 28.6346ZM30.5335 26.571C30.5335 26.6378 30.5239 26.7143 30.5239 26.7907C30.5239 27.3353 30.7247 27.8607 31.0879 28.2715L31.9865 27.0391L31.5181 26.8958L30.5335 26.571Z" fill="#2F66F6"/>
<path d="M32.522 26.4087L32.1874 26.3131L31.7381 26.1603L30.4954 25.759L30.5623 25.6348C30.9447 24.9279 31.6234 24.4406 32.3786 24.326L32.5124 24.3069V26.4087H32.522ZM30.8491 25.6157L32.283 26.0839V24.5839C31.6999 24.7081 31.1837 25.0807 30.8491 25.6157Z" fill="#2F66F6"/>
<path d="M32.7799 29.2844C32.388 29.2844 32.0056 29.1889 31.6519 29.0073L31.5276 28.9405L32.7799 27.2113L33.2674 27.8705L34.0322 28.9405L33.9079 29.0073C33.5542 29.1889 33.1623 29.2844 32.7799 29.2844ZM31.8909 28.864C32.4358 29.1029 33.0858 29.1124 33.6689 28.864L32.7799 27.6316L31.8909 28.864Z" fill="#2F66F6"/>
<path d="M33.0569 26.4088V24.2974L33.2003 24.3166C33.965 24.4407 34.6438 24.928 35.007 25.6254L35.074 25.7496L33.0664 26.4088H33.0569ZM33.2959 24.5841V26.084L34.7203 25.6158C34.4048 25.0904 33.8886 24.7178 33.2959 24.5841Z" fill="#2F66F6"/>
<path d="M34.472 28.6348L33.2292 26.9056L35.2272 26.2655L35.2559 26.3992C35.275 26.5234 35.2941 26.6572 35.2941 26.7909C35.2941 27.4501 35.036 28.0711 34.5772 28.5392L34.4816 28.6443L34.472 28.6348ZM33.6021 27.0393L33.6212 27.068L34.4911 28.2622C34.8544 27.8514 35.0456 27.3355 35.0456 26.7814C35.0456 26.7049 35.0456 26.6381 35.036 26.5712L33.6021 27.0298V27.0393Z" fill="#2F66F6"/>
<path d="M31.107 28.6346L31.0114 28.539C30.543 28.0709 30.2849 27.4499 30.2849 26.7907C30.2849 26.6474 30.2945 26.5137 30.3231 26.3895L30.3518 26.2557L32.3593 26.9054L32.1586 27.2015L31.8718 27.5741L31.107 28.6346ZM30.5335 26.571C30.5335 26.6378 30.5239 26.7143 30.5239 26.7907C30.5239 27.3353 30.7247 27.8607 31.0879 28.2715L31.9865 27.0391L31.5181 26.8958L30.5335 26.571Z" fill="#2F66F6"/>
<path d="M32.522 26.4087L32.1874 26.3131L31.7381 26.1603L30.4954 25.759L30.5623 25.6348C30.9447 24.9279 31.6234 24.4406 32.3786 24.326L32.5124 24.3069V26.4087H32.522ZM30.8491 25.6157L32.283 26.0839V24.5839C31.6999 24.7081 31.1837 25.0807 30.8491 25.6157Z" fill="#2F66F6"/>
<path d="M32.7799 29.2844C32.388 29.2844 32.0056 29.1889 31.6519 29.0073L31.5276 28.9405L32.7799 27.2113L33.2674 27.8705L34.0322 28.9405L33.9079 29.0073C33.5542 29.1889 33.1623 29.2844 32.7799 29.2844ZM31.8909 28.864C32.4358 29.1029 33.0858 29.1124 33.6689 28.864L32.7799 27.6316L31.8909 28.864Z" fill="#2F66F6"/>
<path d="M33.0569 26.4088V24.2974L33.2003 24.3166C33.965 24.4407 34.6438 24.928 35.007 25.6254L35.074 25.7496L33.0664 26.4088H33.0569ZM33.2959 24.5841V26.084L34.7203 25.6158C34.4048 25.0904 33.8886 24.7178 33.2959 24.5841Z" fill="#2F66F6"/>
<path d="M34.472 28.6348L33.2292 26.9056L35.2272 26.2655L35.2559 26.3992C35.275 26.5234 35.2941 26.6572 35.2941 26.7909C35.2941 27.4501 35.036 28.0711 34.5772 28.5392L34.4816 28.6443L34.472 28.6348ZM33.6021 27.0393L33.6212 27.068L34.4911 28.2622C34.8544 27.8514 35.0456 27.3355 35.0456 26.7814C35.0456 26.7049 35.0456 26.6381 35.036 26.5712L33.6021 27.0298V27.0393Z" fill="#2F66F6"/>
<path d="M60.6367 30.1442C58.7821 30.1442 57.2812 28.6443 57.2812 26.7908C57.2812 24.9374 58.7821 23.4279 60.6367 23.4279C62.4912 23.4279 64.0017 24.9374 64.0017 26.7908C64.0017 28.6443 62.4912 30.1442 60.6367 30.1442ZM60.6367 23.6668C58.9159 23.6668 57.5202 25.0712 57.5202 26.7908C57.5202 28.5105 58.9159 29.9053 60.6367 29.9053C62.3574 29.9053 63.7627 28.5105 63.7627 26.7908C63.7627 25.0712 62.3574 23.6668 60.6367 23.6668ZM60.6367 29.2843C60.2352 29.2843 59.8623 29.1888 59.5086 29.0073L59.3844 28.9404L60.6367 27.2112L61.1242 27.8704L61.889 28.9404L61.7647 29.0073C61.411 29.1888 61.0191 29.2843 60.6367 29.2843ZM59.7476 28.864C60.2925 29.1028 60.9426 29.1124 61.5257 28.864L60.6367 27.6316L59.7476 28.864ZM62.3287 28.6347L61.086 26.9055L63.0839 26.2654L63.1126 26.3991C63.1317 26.5233 63.1509 26.6571 63.1509 26.7908C63.1509 27.45 62.8927 28.071 62.4339 28.5392L62.3383 28.6443L62.3287 28.6347ZM61.4588 27.0392L61.4779 27.0679L62.3479 28.2621C62.7111 27.8513 62.9023 27.3354 62.9023 26.7813C62.9023 26.7049 62.9023 26.638 62.8927 26.5711L61.4588 27.0297V27.0392ZM58.9637 28.6347L58.8682 28.5392C58.3997 28.071 58.1416 27.45 58.1416 26.7908C58.1416 26.6475 58.1512 26.5138 58.1799 26.3896L58.2085 26.2558L60.2256 26.9055L60.0249 27.2016L59.7381 27.5742L58.9733 28.6347H58.9637ZM58.3902 26.5711C58.3902 26.638 58.3806 26.7144 58.3806 26.7908C58.3806 27.3354 58.5814 27.8609 58.9446 28.2717L59.8432 27.0392L59.3748 26.8959L58.3902 26.5711ZM60.6367 27.1348C60.4455 27.1348 60.283 26.9724 60.283 26.7908C60.283 26.6093 60.4455 26.4374 60.6367 26.4374C60.8279 26.4374 60.9904 26.5998 60.9904 26.7908C60.9904 26.9819 60.8279 27.1348 60.6367 27.1348ZM60.9139 26.4087V24.2973L61.0477 24.3164C61.8125 24.4406 62.4912 24.9279 62.8545 25.6253L62.9214 25.7495L60.9139 26.4087ZM61.1529 24.5839V26.0839L62.5773 25.6157C62.2618 25.0903 61.7456 24.7177 61.1529 24.5839ZM60.3786 26.4087L60.044 26.3132L59.5947 26.1603L58.3519 25.759L58.4188 25.6348C58.8012 24.9279 59.48 24.4406 60.2352 24.326L60.369 24.3069V26.4087H60.3786ZM58.7056 25.6157L60.1396 26.0839V24.5839C59.5564 24.7081 59.0402 25.0807 58.7056 25.6157Z" fill="#2F66F6"/>
<path d="M58.9637 28.6346L58.8681 28.539C58.3997 28.0709 58.1416 27.4499 58.1416 26.7907C58.1416 26.6474 58.1512 26.5137 58.1798 26.3895L58.2085 26.2557L60.2256 26.9054L60.0248 27.2015L59.7381 27.5741L58.9733 28.6346H58.9637ZM58.3902 26.571C58.3902 26.6378 58.3806 26.7143 58.3806 26.7907C58.3806 27.3353 58.5813 27.8607 58.9446 28.2715L59.8432 27.0391L59.3748 26.8958L58.3902 26.571Z" fill="#2F66F6"/>
<path d="M60.3787 26.4087L60.0441 26.3131L59.5948 26.1603L58.3521 25.759L58.419 25.6348C58.8014 24.9279 59.4801 24.4406 60.2353 24.326L60.3691 24.3069V26.4087H60.3787ZM58.7058 25.6157L60.1397 26.0839V24.5839C59.5566 24.7081 59.0403 25.0807 58.7058 25.6157Z" fill="#2F66F6"/>
<path d="M60.6368 29.2844C60.2353 29.2844 59.8625 29.1889 59.5088 29.0073L59.3845 28.9405L60.6368 27.2113L61.1244 27.8705L61.8891 28.9405L61.7649 29.0073C61.4112 29.1889 61.0192 29.2844 60.6368 29.2844ZM59.7478 28.864C60.2927 29.1029 60.9427 29.1124 61.5259 28.864L60.6368 27.6316L59.7478 28.864Z" fill="#2F66F6"/>
<path d="M60.9138 26.4088V24.2974L61.0477 24.3166C61.8124 24.4407 62.4912 24.928 62.8544 25.6254L62.9213 25.7496L60.9138 26.4088ZM61.1528 24.5841V26.084L62.5772 25.6158C62.2617 25.0904 61.7455 24.7178 61.1528 24.5841Z" fill="#2F66F6"/>
<path d="M62.3289 28.6348L61.0862 26.9056L63.0841 26.2655L63.1128 26.3992C63.1319 26.5234 63.1511 26.6572 63.1511 26.7909C63.1511 27.4501 62.8929 28.0711 62.4341 28.5392L62.3385 28.6443L62.3289 28.6348ZM61.459 27.0393L61.4781 27.068L62.3481 28.2622C62.7113 27.8514 62.9025 27.3355 62.9025 26.7814C62.9025 26.7049 62.9025 26.6381 62.8929 26.5712L61.459 27.0298V27.0393Z" fill="#2F66F6"/>
<path d="M58.9637 28.6346L58.8681 28.539C58.3997 28.0709 58.1416 27.4499 58.1416 26.7907C58.1416 26.6474 58.1512 26.5137 58.1798 26.3895L58.2085 26.2557L60.2256 26.9054L60.0248 27.2015L59.7381 27.5741L58.9733 28.6346H58.9637ZM58.3902 26.571C58.3902 26.6378 58.3806 26.7143 58.3806 26.7907C58.3806 27.3353 58.5813 27.8607 58.9446 28.2715L59.8432 27.0391L59.3748 26.8958L58.3902 26.571Z" fill="#2F66F6"/>
<path d="M60.3787 26.4087L60.0441 26.3131L59.5948 26.1603L58.3521 25.759L58.419 25.6348C58.8014 24.9279 59.4801 24.4406 60.2353 24.326L60.3691 24.3069V26.4087H60.3787ZM58.7058 25.6157L60.1397 26.0839V24.5839C59.5566 24.7081 59.0403 25.0807 58.7058 25.6157Z" fill="#2F66F6"/>
<path d="M60.6368 29.2844C60.2353 29.2844 59.8625 29.1889 59.5088 29.0073L59.3845 28.9405L60.6368 27.2113L61.1244 27.8705L61.8891 28.9405L61.7649 29.0073C61.4112 29.1889 61.0192 29.2844 60.6368 29.2844ZM59.7478 28.864C60.2927 29.1029 60.9427 29.1124 61.5259 28.864L60.6368 27.6316L59.7478 28.864Z" fill="#2F66F6"/>
<path d="M60.9138 26.4088V24.2974L61.0477 24.3166C61.8124 24.4407 62.4912 24.928 62.8544 25.6254L62.9213 25.7496L60.9138 26.4088ZM61.1528 24.5841V26.084L62.5772 25.6158C62.2617 25.0904 61.7455 24.7178 61.1528 24.5841Z" fill="#2F66F6"/>
<path d="M62.3289 28.6348L61.0862 26.9056L63.0841 26.2655L63.1128 26.3992C63.1319 26.5234 63.1511 26.6572 63.1511 26.7909C63.1511 27.4501 62.8929 28.0711 62.4341 28.5392L62.3385 28.6443L62.3289 28.6348ZM61.459 27.0393L61.4781 27.068L62.3481 28.2622C62.7113 27.8514 62.9025 27.3355 62.9025 26.7814C62.9025 26.7049 62.9025 26.6381 62.8929 26.5712L61.459 27.0298V27.0393Z" fill="#2F66F6"/>
<path d="M21.5571 7.62633V16.8265H31.069L33.1625 23.9344L33.8412 16.8265H36.9768V7.62633H21.5571ZM22.819 10.8746H31.3462V11.8299H22.819V10.8746ZM32.2926 15.1737H22.819V14.2184H32.2926V15.1737ZM33.1338 13.5018H22.819V12.5465H33.1338V13.5018ZM34.3575 10.158H22.819V9.20268H34.3575V10.158Z" fill="#618BF8"/>
<path d="M57.3388 9.33635H54.8438V13.6259H57.3388V9.33635Z" fill="#2F66F6"/>
<path d="M61.0861 8.78212H58.5911V13.6163H61.0861V8.78212Z" fill="#2F66F6"/>
<path d="M64.8332 10.0337H62.3381V13.6164H64.8332V10.0337Z" fill="#2F66F6"/>
<path d="M68.5808 7.5401H66.0857V13.6258H68.5808V7.5401Z" fill="#2F66F6"/>
<path d="M63.5908 9.25994C63.5239 9.25994 63.457 9.24084 63.3901 9.21217L59.7957 7.54028L56.2108 8.40011C56.1248 8.41922 56.0387 8.41922 55.9527 8.39056L54.7004 7.98931C54.4518 7.91288 54.3084 7.63582 54.3945 7.38742C54.4709 7.13903 54.7482 6.99572 54.9967 7.08171L56.1152 7.44475L59.7287 6.57536C59.8339 6.5467 59.9391 6.55626 60.0442 6.60402L63.5143 8.21859L67.0323 5.29517C67.1183 5.2283 67.2235 5.18053 67.3382 5.18053H68.5905C68.8582 5.18053 69.0685 5.39071 69.0685 5.65821C69.0685 5.92571 68.8582 6.13589 68.5905 6.13589H67.5103L63.8967 9.13575C63.8107 9.21217 63.7055 9.25039 63.5908 9.25039V9.25994Z" fill="#2F66F6"/>
<g style="mix-blend-mode:multiply" opacity="0.36">
<path d="M77.5094 41.7424L54.4325 64.805H0V15.9858L14.4828 1.52151C14.2916 1.77946 14.1769 2.09473 14.1769 2.42911V36.2204C14.1769 37.1185 14.9799 37.8445 15.9646 37.8445H72.9686C73.4561 37.8445 73.8863 37.6726 74.2113 37.386L72.4619 39.1343H10.2957C10.2957 41.0068 11.6819 42.5163 13.3835 42.5163H75.5401C76.2953 42.5163 76.9741 42.2201 77.5094 41.7424Z" fill="white"/>
</g>
</svg>
