<svg width="12" height="12" viewBox="0 0 12 12" fill="none" xmlns="http://www.w3.org/2000/svg">
<path d="M8.5 11C7.80833 11 7.21883 10.7562 6.7315 10.2685C6.24417 9.78083 6.00033 9.19133 6 8.5C6 7.80833 6.24383 7.21883 6.7315 6.7315C7.21917 6.24417 7.80867 6.00033 8.5 6C9.19167 6 9.78133 6.24383 10.269 6.7315C10.7567 7.21917 11.0003 7.80867 11 8.5C11 9.19167 10.7562 9.78133 10.2685 10.269C9.78083 10.7567 9.19133 11.0003 8.5 11ZM8.6 8.75L9.7375 7.6125L9.3875 7.2625L8.25 8.4L8.6 8.75ZM1 5.5V2H11V6.05C10.6667 5.70833 10.2855 5.448 9.8565 5.269C9.4275 5.09 8.97533 5.00033 8.5 5C8.18333 5 7.88133 5.03967 7.594 5.119C7.30667 5.19833 7.03367 5.30867 6.775 5.45L5.95 3.775C5.90833 3.69167 5.84583 3.62917 5.7625 3.5875C5.67917 3.54583 5.59167 3.525 5.5 3.525C5.40833 3.525 5.32083 3.54583 5.2375 3.5875C5.15417 3.62917 5.09167 3.69167 5.05 3.775L3.5 6.8875L2.9375 5.775C2.89583 5.69167 2.83533 5.625 2.756 5.575C2.67667 5.525 2.59133 5.5 2.5 5.5H1ZM1 10V6.5H2.1875L3.05 8.225C3.09167 8.31667 3.15217 8.3855 3.2315 8.4315C3.31083 8.4775 3.40033 8.50033 3.5 8.5C3.59167 8.5 3.67717 8.47717 3.7565 8.4315C3.83583 8.38583 3.89617 8.317 3.9375 8.225L5.5 5.125L5.975 6.075C5.675 6.39167 5.4375 6.75633 5.2625 7.169C5.0875 7.58167 5 8.02533 5 8.5C5 8.75833 5.02717 9.01467 5.0815 9.269C5.13583 9.52333 5.22117 9.767 5.3375 10H1Z" fill="#2F66F6"/>
</svg>
