<svg width="13" height="12" viewBox="0 0 13 12" fill="none" xmlns="http://www.w3.org/2000/svg">
<g clip-path="url(#clip0_155_530)">
<path d="M3.43535 5.98151C3.43535 4.576 4.57474 3.43666 5.9802 3.43666C7.38572 3.43666 8.5251 4.57605 8.5251 5.98151C8.5251 7.38702 7.38572 8.52636 5.9802 8.52636C4.57469 8.52636 3.43535 7.38702 3.43535 5.98151ZM0 5.98151C0 9.28354 2.6768 11.9603 5.97883 11.9603C9.28082 11.9603 11.9576 9.28349 11.9576 5.98151C11.9576 2.67957 9.28082 0.00272369 5.97883 0.00272369C2.67874 0.00735362 0.00462992 2.68151 0 5.98151Z" fill="url(#paint0_linear_155_530)"/>
<path d="M7.20282 1.83865L5.97613 3.43819C7.35717 3.47065 8.45975 4.5995 8.45975 5.98091C8.45975 7.36233 7.35717 8.49118 5.97613 8.52368L4.43994 10.2694L5.97613 11.9576C8.11411 12.0069 10.1158 10.9108 11.2257 9.08287C12.3357 7.25494 12.3851 4.97339 11.3552 3.09912C10.3254 1.2249 8.37311 0.0432283 6.23493 0H5.97613L7.20282 1.83865Z" fill="url(#paint1_linear_155_530)"/>
</g>
<defs>
<linearGradient id="paint0_linear_155_530" x1="730.013" y1="986.674" x2="459.771" y2="337.088" gradientUnits="userSpaceOnUse">
<stop stop-color="#477CD8"/>
<stop offset="0.16" stop-color="#4573D2"/>
<stop offset="0.43" stop-color="#3F5BC2"/>
<stop offset="0.76" stop-color="#3633A7"/>
<stop offset="1" stop-color="#2F1391"/>
</linearGradient>
<linearGradient id="paint1_linear_155_530" x1="485.571" y1="235.691" x2="298.841" y2="914.177" gradientUnits="userSpaceOnUse">
<stop stop-color="#2055DA"/>
<stop offset="0.11" stop-color="#2055DA"/>
<stop offset="1" stop-color="#00BFF6"/>
</linearGradient>
<clipPath id="clip0_155_530">
<rect width="12.0945" height="12" fill="white"/>
</clipPath>
</defs>
</svg>
