<svg width="12" height="12" viewBox="0 0 12 12" fill="none" xmlns="http://www.w3.org/2000/svg">
<path d="M10.1901 4.285L9.57509 5.21C9.87167 5.80154 10.0169 6.45741 9.99768 7.11886C9.97848 7.78031 9.79548 8.42666 9.46509 9H2.53509C2.10567 8.25505 1.92773 7.39156 2.02766 6.53753C2.12758 5.68351 2.50004 4.88441 3.08983 4.25871C3.67961 3.63301 4.45532 3.21402 5.30196 3.06385C6.14859 2.91367 7.02108 3.04032 7.79009 3.425L8.71509 2.81C7.77333 2.20611 6.65625 1.9355 5.54253 2.04147C4.42881 2.14743 3.38281 2.62385 2.57183 3.39451C1.76086 4.16516 1.23177 5.18554 1.06919 6.29241C0.906623 7.39928 1.11996 8.5287 1.67509 9.5C1.76234 9.65114 1.88763 9.77681 2.0385 9.86453C2.18937 9.95224 2.36057 9.99895 2.53509 10H9.46009C9.6363 10.0007 9.80956 9.95482 9.96234 9.86702C10.1151 9.77922 10.242 9.6526 10.3301 9.5C10.7908 8.70196 11.022 7.79213 10.9981 6.87098C10.9743 5.94982 10.6964 5.05316 10.1951 4.28L10.1901 4.285ZM5.29509 7.705C5.38796 7.79798 5.49825 7.87173 5.61965 7.92206C5.74104 7.97238 5.87117 7.99829 6.00259 7.99829C6.134 7.99829 6.26413 7.97238 6.38553 7.92206C6.50692 7.87173 6.61721 7.79798 6.71009 7.705L9.54009 3.46L5.29509 6.29C5.20211 6.38287 5.12835 6.49316 5.07803 6.61456C5.0277 6.73596 5.0018 6.86608 5.0018 6.9975C5.0018 7.12891 5.0277 7.25904 5.07803 7.38044C5.12835 7.50184 5.20211 7.61213 5.29509 7.705Z" fill="#2F66F6"/>
</svg>
