<svg width="6" height="11" viewBox="0 0 6 11" fill="none" xmlns="http://www.w3.org/2000/svg">
<path d="M5.5 11H0.5C0.225 11 0 10.7525 0 10.45V1.1C0 0.797497 0.225 0.549997 0.5 0.549997H5.5C5.775 0.549997 6 0.797497 6 1.1V10.45C6 10.7525 5.775 11 5.5 11Z" fill="#CFD8DC"/>
<path d="M4.00049 2.475H2.00049C1.85049 2.475 1.75049 2.365 1.75049 2.2V0.275C1.75049 0.11 1.85049 0 2.00049 0H4.00049C4.15049 0 4.25049 0.11 4.25049 0.275V2.2C4.25049 2.365 4.15049 2.475 4.00049 2.475Z" fill="#CFD8DC"/>
<path d="M5.5 11H0.5C0.225 11 0 10.7545 0 10.4545V8H6V10.4545C6 10.7545 5.775 11 5.5 11Z" fill="#2F66F6"/>
</svg>
