<svg width="12" height="12" viewBox="0 0 12 12" fill="none" xmlns="http://www.w3.org/2000/svg">
<path d="M6.50014 7.64V2.75C6.50014 2.61739 6.44746 2.49021 6.35369 2.39645C6.25992 2.30268 6.13274 2.25 6.00014 2.25C5.86753 2.25 5.74035 2.30268 5.64658 2.39645C5.55281 2.49021 5.50014 2.61739 5.50014 2.75V7.64C5.349 7.72726 5.22333 7.85254 5.13561 8.00342C5.04789 8.15429 5.00119 8.32549 5.00014 8.5C5.00014 8.76522 5.10549 9.01957 5.29303 9.20711C5.48057 9.39464 5.73492 9.5 6.00014 9.5C6.26535 9.5 6.51971 9.39464 6.70724 9.20711C6.89478 9.01957 7.00014 8.76522 7.00014 8.5C6.99908 8.32549 6.95238 8.15429 6.86466 8.00342C6.77695 7.85254 6.65127 7.72726 6.50014 7.64ZM8.25014 6.5V2.75C8.25014 2.15326 8.01308 1.58097 7.59113 1.15901C7.16917 0.737053 6.59687 0.5 6.00014 0.5C5.4034 0.5 4.8311 0.737053 4.40915 1.15901C3.98719 1.58097 3.75014 2.15326 3.75014 2.75V6.5C3.40456 6.8916 3.1672 7.36664 3.06154 7.87812C2.95588 8.3896 2.98559 8.9198 3.14771 9.41628C3.30984 9.91276 3.59877 10.3583 3.98593 10.7089C4.37308 11.0594 4.84505 11.3028 5.35514 11.415C5.56703 11.4633 5.78296 11.4918 6.00014 11.5C6.58045 11.5027 7.14909 11.337 7.63714 11.0231C8.1252 10.7091 8.51172 10.2603 8.74986 9.73113C8.988 9.20192 9.06755 8.61501 8.97885 8.0415C8.89015 7.468 8.63702 6.93254 8.25014 6.5ZM7.25014 10.035C6.98679 10.2491 6.67328 10.3927 6.33912 10.4522C6.00497 10.5117 5.66117 10.4852 5.34009 10.3752C5.01901 10.2652 4.73121 10.0752 4.50379 9.82327C4.27637 9.57132 4.11681 9.26564 4.04014 8.935C3.96289 8.60077 3.97291 8.2523 4.06923 7.92306C4.16554 7.59382 4.34493 7.29489 4.59014 7.055C4.63738 7.00869 4.67496 6.95347 4.70071 6.89253C4.72646 6.83159 4.73986 6.76615 4.74014 6.7V2.75C4.74014 2.41848 4.87183 2.10054 5.10625 1.86612C5.34067 1.6317 5.65862 1.5 5.99014 1.5C6.32166 1.5 6.6396 1.6317 6.87402 1.86612C7.10844 2.10054 7.24014 2.41848 7.24014 2.75V6.72C7.24041 6.78615 7.25381 6.85159 7.27956 6.91253C7.30531 6.97347 7.34289 7.02869 7.39014 7.075C7.59451 7.27244 7.75447 7.51116 7.85935 7.77527C7.96423 8.03937 8.01162 8.32279 7.99838 8.60665C7.98513 8.89051 7.91154 9.16829 7.78252 9.42148C7.6535 9.67467 7.47201 9.89745 7.25014 10.075V10.035Z" fill="#2F66F6"/>
</svg>
