<svg width="30" height="29" viewBox="0 0 30 29" fill="none" xmlns="http://www.w3.org/2000/svg">
<path d="M13.7598 24.1C12.1598 24.1 10.6598 23.8 9.35981 23.3C8.05981 22.8 6.75981 22 5.75981 21C5.45981 20.7 5.35981 20.4 5.35981 20C5.35981 19.6 5.55981 19.3 5.85981 19C6.15981 18.7 6.55981 18.6 6.95981 18.6C7.35981 18.6 7.75981 18.8 8.05981 19C8.85981 19.7 9.75981 20.2 10.6598 20.5C11.5598 20.9 12.6598 21 13.7598 21C16.2598 21 18.3598 20.1 20.1598 18.4C21.9598 16.6 22.7598 14.5 22.7598 12C22.7598 9.5 21.8598 7.4 20.1598 5.6C18.3598 3.8 16.2598 3 13.7598 3C11.6598 3 9.85981 3.6 8.25981 4.9C6.65981 6.2 5.55981 7.8 5.05981 9.7C4.95981 10.1 4.65981 10.5 4.35981 10.8C4.05981 11.1 3.65981 11.3 3.25981 11.3C2.85981 11.3 2.45981 11.1 2.25981 10.8C1.95981 10.5 1.95981 10.1 2.05981 9.6C2.65981 6.8 4.05981 4.5 6.15981 2.7C8.25981 0.9 10.8598 0 13.7598 0C17.1598 0 19.9598 1.2 22.3598 3.5C24.6598 5.8 25.8598 8.7 25.8598 12.1C25.8598 13.5 25.6598 14.8 25.1598 16.1C24.6598 17.3 24.0598 18.5 23.2598 19.5L29.2598 25.5C29.5598 25.8 29.6598 26.1 29.6598 26.6C29.6598 27.1 29.5598 27.4 29.2598 27.7C28.9598 28 28.6598 28.1 28.1598 28.1C27.6598 28.1 27.3598 28 27.0598 27.7L21.0598 21.7C20.0598 22.5 18.8598 23.1 17.6598 23.6C16.5598 23.9 15.1598 24.1 13.7598 24.1Z" fill="black"/>
<path d="M13.1 14.8L14.5 10.5C14.6 10.3 14.7 10.1 14.9 10C15.1 9.90001 15.3 9.80001 15.5 9.80001H16.4C16.6 9.80001 16.8 9.90001 16.9 10C17.1 10.1 17.2 10.2 17.3 10.4L19.3 14.4C19.6 14.4 19.9 14.5 20.1 14.7C20.3 14.9 20.4 15.2 20.4 15.5C20.4 15.8 20.3 16.1 20.1 16.3C19.9 16.5 19.6 16.6 19.3 16.6H18.6C18.4 16.6 18.2 16.5 18 16.4C17.8 16.3 17.7 16.1 17.6 15.9L16.1 13L14.4 18.1C14.3 18.3 14.2 18.5 14 18.6C13.8 18.7 13.6 18.8 13.4 18.8H12.7C12.5 18.8 12.3 18.7 12.1 18.6C11.9 18.5 11.8 18.3 11.7 18.1L9.6 11L7.9 15.8C7.8 16 7.7 16.2 7.5 16.3C7.3 16.4 7.1 16.5 6.8 16.5H1.1C0.8 16.5 0.5 16.4 0.3 16.2C0.1 16 0 15.7 0 15.4C0 15.1 0.1 14.8 0.3 14.6C0.5 14.4 0.8 14.3 1.1 14.3H6L8.2 7.90001C8.3 7.70001 8.4 7.50001 8.6 7.40001C8.8 7.30001 9 7.20001 9.2 7.20001H9.9C10.2 7.20001 10.4 7.30001 10.5 7.40001C10.7 7.60001 10.8 7.70001 10.9 8.00001L13.1 14.8Z" fill="#2F66F6"/>
</svg>
