<svg width="73" height="64" viewBox="0 0 73 64" fill="none" xmlns="http://www.w3.org/2000/svg">
<path d="M61.2671 31.0017C61.1414 31.131 61.1863 31.2361 61.3749 31.325C61.4018 31.3493 61.4557 31.3574 61.5006 31.3816C62.6412 30.5247 63.8446 29.5304 65.4342 28.7139C65.7485 28.5523 66.0449 28.3987 66.3412 28.2774C66.7454 28.1077 67.1405 27.9864 67.6255 27.946C67.9937 27.9217 68.6852 28.043 68.6852 28.5604C68.6852 29.1666 68.6044 29.9427 68.5326 30.5247C68.3619 31.9637 66.9699 30.6137 66.6646 30.8077C66.2604 31.0744 67.5626 31.4948 67.7872 31.7858C69.3139 31.7858 71.0562 31.7616 72.9421 31.7211V48.4548H57.8454V48.4386C58.0071 47.7919 58.0969 47.129 58.0969 46.4419C58.0969 41.4784 53.6154 37.4365 48.1012 37.4365C42.587 37.4365 38.0966 41.4784 38.0966 46.4419C38.0966 47.129 38.1774 47.7919 38.3571 48.4305C38.3571 48.4305 38.3571 48.4305 38.3571 48.4467H33.4535C32.5375 48.4467 32.2681 48.4467 31.6933 48.4063C31.4329 48.4063 31.1185 48.382 30.6605 48.3578C30.427 48.3578 30.1666 48.3335 29.8522 48.3254C29.7085 48.3093 29.5289 48.3093 29.3493 48.3012C28.9452 48.2769 28.6039 48.2284 28.3255 48.1395C28.2716 48.1233 28.2357 48.1153 28.1908 48.0991C28.1369 48.0748 28.083 48.0667 28.0291 48.0263C27.9214 47.994 27.8226 47.9455 27.7417 47.8808C27.5891 47.7838 27.4993 47.6868 27.4184 47.5575C27.3645 47.4766 27.3196 47.3796 27.2927 47.2907C27.2119 47.0078 27.2388 46.7167 27.3196 46.4742C27.3196 46.4338 27.3376 46.4096 27.3466 46.3691C27.3466 46.3449 27.3645 46.3206 27.3735 46.2964C27.3915 46.2398 27.4184 46.1751 27.4454 46.1266C27.4813 46.0539 27.5082 45.9892 27.5352 45.9407C27.5711 45.9164 27.5801 45.8922 27.5801 45.8922C27.5801 45.8922 27.5801 45.8679 27.625 45.8356V45.8194C27.625 45.8194 27.6789 45.7224 27.7148 45.6578C27.7417 45.585 27.7956 45.5042 27.8405 45.4152C27.8765 45.3263 27.9214 45.2293 27.9483 45.1485C27.9932 45.011 28.0201 44.8898 28.0201 44.7766C28.0201 44.0814 28.0201 43.4428 28.0201 42.8769C28.0201 42.6829 28.0381 42.497 28.0381 42.311V42.1332C28.0381 42.0038 28.0381 41.9068 28.0471 41.7937V41.7452C28.0471 41.5996 28.065 41.4541 28.065 41.3167C28.065 41.1631 28.065 41.0095 28.092 40.864C28.092 40.7347 28.092 40.5811 28.1189 40.4598C28.1189 40.3305 28.1279 40.1931 28.1459 40.0718C28.1459 39.9586 28.1728 39.8374 28.1728 39.7242C28.1998 39.5302 28.2087 39.3685 28.2357 39.1907C29.7265 39.2311 31.2532 39.3119 32.6542 39.0532C34.5402 38.649 35.0791 37.2667 35.5281 35.7308C33.723 35.6095 31.8549 35.6257 30.0139 35.6418C30.1755 35.4478 30.3372 35.2376 30.5258 34.987C30.6515 34.8334 30.4899 34.9304 30.6874 34.8415L30.7683 34.793L35.3664 34.5586H35.573L35.8514 34.5343H35.8694L56.1031 33.5077L57.3964 33.4349L56.0941 33.4996L40.5304 20.6867L40.0993 20.3229L35.564 16.5962C39.1653 16.483 52.8251 28.1804 57.4143 30.8481H57.3964V30.9047L57.4143 30.8481C57.7556 30.7753 58.025 30.6945 58.2316 30.6217C59.5248 30.1367 67.401 26.3858 72.9332 24.1142V25.2379C68.2991 27.0568 62.5513 29.5951 61.2402 31.0017H61.2671Z" fill="#2F66F6"/>
<path d="M57.4399 30.848L57.4232 30.9031V30.848H57.4399Z" fill="#4D4D4D"/>
<path d="M29.4749 38.5439C29.1247 38.5439 28.7744 38.5439 28.4242 38.5278C28.6757 37.6547 29.0708 37.1373 29.7174 36.3289C30.2563 36.3289 30.8041 36.3289 31.343 36.3289C32.3937 36.3289 33.2738 36.3451 34.0641 36.3775C33.6241 37.5092 33.0673 38.1317 31.9447 38.3661C31.2801 38.4873 30.4898 38.552 29.4749 38.552V38.5439Z" fill="white"/>
<path d="M48.1462 39.134C43.6737 39.134 40.0365 42.408 40.0365 46.4338C40.0365 50.4595 43.6737 53.7335 48.1462 53.7335C52.6186 53.7335 56.2558 50.4595 56.2558 46.4338C56.2558 42.408 52.6096 39.134 48.1462 39.134ZM53.0138 50.8718L52.457 51.3245L52.4031 51.3488C52.3133 51.4215 52.1516 51.5185 51.9989 51.6155L51.3703 51.947C50.3554 52.432 49.2777 52.6745 48.1372 52.6745C46.9966 52.6745 45.9279 52.432 44.94 51.9631C44.7245 51.8742 44.5089 51.7529 44.3024 51.6317C44.1407 51.5347 43.9791 51.4296 43.8174 51.3164L43.2965 50.888C42.5332 50.217 41.9764 49.441 41.6261 48.5598C41.3477 47.8646 41.204 47.1532 41.204 46.4338C41.204 46.0862 41.2399 45.7305 41.3118 45.3748C41.3387 45.1727 41.3926 44.9463 41.4824 44.7119C41.5183 44.5664 41.5812 44.3885 41.6441 44.2269C41.7339 44.0167 41.8416 43.8065 41.9584 43.6125C42.9732 41.8098 44.9041 40.5487 47.1224 40.2577C47.3648 40.2173 47.6073 40.2011 47.8498 40.193C47.9396 40.1849 48.0294 40.1849 48.1372 40.1849C48.2629 40.1849 48.3617 40.1849 48.4785 40.193C48.694 40.193 48.9365 40.2173 49.179 40.2577C51.4062 40.5568 53.3281 41.8179 54.3339 43.6287C54.4327 43.7903 54.5405 43.9843 54.6393 44.2349C54.7022 44.3966 54.774 44.5745 54.8279 44.7523C54.8908 44.9463 54.9446 45.1646 54.9806 45.3829C55.0434 45.7143 55.0794 46.0619 55.0794 46.4338C55.0794 47.1694 54.9446 47.8808 54.6662 48.5598C54.307 49.4329 53.7412 50.2332 53.0138 50.8718Z" fill="#2F66F6"/>
<path d="M54.5404 45.4476C54.5045 45.2455 54.4506 45.0434 54.3877 44.8494C54.3428 44.6877 54.28 44.526 54.2171 44.3724C54.1363 44.1784 54.0465 43.9925 53.9297 43.8066C53.0137 42.1494 51.2175 40.9368 49.107 40.6538C48.8825 40.6215 48.658 40.6053 48.4335 40.5973C48.3347 40.5892 48.2449 40.5892 48.1371 40.5892C48.0473 40.5892 47.9665 40.5892 47.8677 40.5973C47.6432 40.5973 47.4186 40.6215 47.1851 40.6538C45.0657 40.9368 43.2875 42.1413 42.3535 43.8066C42.2457 43.9844 42.1469 44.1784 42.0661 44.3724C42.0032 44.5179 41.9493 44.6796 41.9044 44.8413C41.8326 45.0353 41.7787 45.2374 41.7517 45.4476C41.6889 45.7629 41.653 46.0943 41.653 46.4338C41.653 47.129 41.7966 47.8 42.0481 48.4225C42.3804 49.247 42.9103 49.9826 43.5928 50.5889L44.1047 51.0012C44.2484 51.1063 44.3921 51.2033 44.5538 51.2922C44.7424 51.4054 44.9399 51.5186 45.1465 51.6075C46.0446 52.0359 47.0594 52.2704 48.1371 52.2704C49.2148 52.2704 50.2476 52.0279 51.1457 51.5994L51.7474 51.2841C51.8911 51.1952 52.0437 51.0982 52.1874 50.9931H52.2054L52.6724 50.6051L52.6993 50.5808C53.3819 49.9826 53.9118 49.2389 54.244 48.4225C54.4955 47.8 54.6302 47.129 54.6302 46.4338C54.6302 46.0943 54.6033 45.7709 54.5404 45.4476ZM53.7142 44.5503C53.7681 44.6877 53.8309 44.8332 53.8668 44.9706C53.8668 44.9868 53.8668 44.9868 53.8668 44.9949L50.1398 46.0862L49.4573 46.2883C49.4573 46.2883 49.4573 46.2641 49.4573 46.256C49.4393 46.1024 49.3764 45.9569 49.3046 45.8356C49.2866 45.8356 49.2866 45.8194 49.2866 45.8114L49.9782 45.6173L53.7052 44.526C53.7052 44.526 53.7052 44.5422 53.7142 44.5503ZM49.107 41.147C50.9481 41.4137 52.5467 42.4646 53.4178 43.9602L50.6697 44.7685L49.5561 45.0919L49.107 45.2212V41.147ZM47.8677 41.0823H47.8856C47.9844 41.0823 48.0473 41.0823 48.1102 41.0823H48.3706C48.3706 41.0823 48.4155 41.0823 48.4335 41.0823V45.2697H48.4155C48.3347 45.2536 48.2449 45.2455 48.164 45.2455C48.0742 45.2455 47.9754 45.2455 47.8856 45.2697H47.8677V41.0823ZM48.1371 45.9003C48.4694 45.9003 48.7298 46.1347 48.7298 46.4257C48.7298 46.7168 48.4694 46.9593 48.1371 46.9593C47.8048 46.9593 47.5533 46.7168 47.5533 46.4257C47.5533 46.1347 47.8138 45.9003 48.1371 45.9003ZM47.1851 41.147V45.2212L46.7451 45.0919L45.6404 44.7685L42.8654 43.9521C43.7455 42.4565 45.3441 41.4056 47.1851 41.147ZM42.4073 44.9868C42.4612 44.8494 42.5061 44.6958 42.569 44.5584C42.569 44.5584 42.569 44.5341 42.587 44.5179L46.314 45.6173L47.0325 45.8194C46.9426 45.9569 46.8888 46.1105 46.8618 46.2721V46.2883L46.1613 46.0781L42.4163 44.9868H42.4073ZM43.9161 50.1928C43.3503 49.6755 42.9103 49.0772 42.6229 48.4225C42.3445 47.8 42.1918 47.1209 42.1918 46.4338C42.1918 46.1509 42.2098 45.8679 42.2726 45.5931L45.0477 46.4096L46.1523 46.7329L46.5924 46.8623L46.314 47.2099L45.6404 48.0506L45.3351 48.4225L43.9161 50.1928ZM44.8681 50.9042C44.7064 50.7991 44.5807 50.7102 44.437 50.6213C44.437 50.6213 44.434 50.6159 44.428 50.6051L46.1883 48.4225L46.7541 47.7272L47.1761 47.2018C47.1761 47.2018 47.1941 47.218 47.1941 47.226C47.3019 47.3311 47.4276 47.4281 47.5803 47.4847C47.5803 47.4847 47.6072 47.5009 47.6162 47.5009L47.1941 48.0263L46.8708 48.4225L44.8771 50.9042H44.8681ZM48.1371 51.7853C47.1941 51.7853 46.287 51.5913 45.4608 51.2114L47.1851 49.0692L47.706 48.4225L47.8677 48.2204L48.1551 47.8808L48.4335 48.2284L48.5861 48.4225L49.107 49.0692L50.8224 51.2033C50.0051 51.5913 49.098 51.7853 48.1371 51.7853ZM51.8372 50.6213C51.7294 50.7021 51.5947 50.791 51.442 50.8719V50.888L49.4303 48.4225L49.107 48.0183L48.7029 47.509C48.7029 47.509 48.7208 47.4928 48.7388 47.4847C48.8735 47.4281 49.0082 47.3473 49.116 47.2422C49.116 47.2422 49.134 47.218 49.1429 47.2099L49.5561 47.7272L50.1129 48.4225L51.8641 50.6051L51.8372 50.6213ZM53.6693 48.4225C53.3819 49.0692 52.9508 49.6674 52.376 50.1847L50.9661 48.4225L50.6697 48.0506L49.9782 47.2099L49.7087 46.8623L50.1488 46.7329L51.2624 46.4096L54.0195 45.6012C54.0644 45.8841 54.1004 46.1509 54.1004 46.4338C54.1004 47.1209 53.9477 47.7919 53.6693 48.4225Z" fill="#F2F2F2"/>
<path d="M36.7583 27.081C36.8122 27.081 36.8661 27.0648 36.929 27.0567L35.6447 30.8562C35.2765 30.5571 35.034 30.169 34.9083 29.7487C34.7107 29.8376 34.5131 29.9104 34.2886 29.975C32.6451 30.4439 31.307 29.9023 30.4897 28.9726C29.6994 29.0696 28.9091 29.0211 28.1278 28.8433C27.8314 28.7705 27.553 28.6816 27.2656 28.5846C26.8615 28.4633 26.4573 28.334 26.0622 28.1723C24.6252 27.5579 23.5296 26.2888 23.0536 24.9469C22.7662 24.1223 22.7123 23.2492 22.865 22.4085C20.1708 22.0367 18.4195 19.757 18.2668 17.445C16.5425 16.8226 15.0607 15.6908 14.1087 14.2034C10.0225 12.821 8.94476 6.51561 14.2794 5.00393C14.917 4.82608 15.5277 4.74524 16.0935 4.75333C16.8838 4.16321 17.8088 3.69434 18.8416 3.40332C23.1524 2.17457 27.8943 4.39764 29.2504 8.2779C29.4479 8.84377 29.5647 9.41773 29.6096 9.9836C31.3788 11.4468 31.5225 14.5348 28.7654 15.5534C29.0797 16.2729 29.2414 17.0489 29.2055 17.8169C29.5916 17.8411 29.9688 17.8977 30.346 17.9866C30.6244 17.4693 31.1273 17.0489 31.9087 16.8226C34.6209 16.0546 36.1925 19.0375 34.8274 20.6462C35.0969 21.0423 35.3214 21.4546 35.4741 21.8831C35.7614 22.7238 35.8243 23.613 35.6627 24.4699C36.3811 25.157 36.7853 26.1271 36.7673 27.081H36.7583Z" fill="#878787"/>
<path d="M39.2372 33.4107C38.4559 33.6371 37.8003 33.4269 37.3602 33.0146L39.1384 27.7116C39.8749 28.3583 40.1173 29.3769 39.6683 30.2418C40.8358 30.9613 41.0154 32.9095 39.2372 33.4107Z" fill="#878787"/>
<path d="M32.3579 7.88174C30.6965 8.35061 31.5137 10.6707 33.1752 10.1937C34.8366 9.72487 34.0194 7.40479 32.3579 7.88174Z" fill="#878787"/>
<path d="M13.3185 0.0889358C10.9924 0.751814 12.133 3.99345 14.4501 3.33057C16.7761 2.66769 15.6355 -0.573942 13.3185 0.0889358Z" fill="#878787"/>
<path d="M57.4399 30.848L57.4232 30.9031V30.848H57.4399Z" fill="#4D4D4D"/>
<path d="M40.2699 21.5436L36.1837 33.7098L35.6089 33.7422L39.8388 21.1879L39.9556 21.2849L40.2699 21.5436Z" fill="#2F66F6"/>
<g style="mix-blend-mode:multiply" opacity="0.36">
<path d="M57.8544 48.4467V48.4305C58.016 47.7838 58.1058 47.1209 58.1058 46.4338C58.1058 41.4703 53.6244 37.4284 48.1102 37.4284C42.596 37.4284 38.1056 41.4703 38.1056 46.4338C38.1056 47.1209 38.1864 47.7838 38.366 48.4224C38.366 48.4224 38.366 48.4224 38.366 48.4386H33.4625C32.5464 48.4386 32.277 48.4386 31.7022 48.3982C31.4418 48.3982 31.1275 48.3739 30.6695 48.3497C30.436 48.3497 30.1755 48.3254 29.8612 48.3173C29.7175 48.3012 29.5379 48.3012 29.3583 48.2931C28.9541 48.2688 28.6128 48.2203 28.3344 48.1314C28.2806 48.1152 28.2446 48.1072 28.1997 48.091C28.1458 48.0667 28.092 48.0587 28.0381 48.0182C27.9303 47.9859 27.8315 47.9374 27.7507 47.8727C27.598 47.7757 27.5082 47.6787 27.4274 47.5494C27.3735 47.4685 27.3286 47.3715 27.3017 47.2826C27.2208 46.9997 27.2478 46.7086 27.3286 46.4661C27.3286 46.4257 27.3466 46.4015 27.3555 46.361C27.3555 46.3368 27.3735 46.3125 27.3825 46.2883C27.4004 46.2317 27.4274 46.167 27.4543 46.1185C27.4902 46.0458 27.5172 45.9811 27.5441 45.9326C27.5801 45.9083 27.589 45.8841 27.589 45.8841C27.589 45.8841 27.589 45.8598 27.6339 45.8275V45.8113C27.6339 45.8113 27.6878 45.7143 27.7238 45.6497C27.7507 45.5769 27.8046 45.4961 27.8495 45.4071C27.8854 45.3182 27.9303 45.2212 27.9573 45.1404C28.0022 45.0029 28.0291 44.8817 28.0291 44.7685C28.0291 44.0733 28.0291 43.4347 28.0291 42.8688C28.0291 42.6748 28.0471 42.4889 28.0471 42.3029V42.1251C28.0471 41.9957 28.0471 41.8987 28.0471 41.7856V41.7371C28.0471 41.5916 28.065 41.446 28.065 41.3086C28.065 41.155 28.065 41.0014 28.092 40.8559C28.092 40.7266 28.092 40.573 28.1189 40.4517C28.1189 40.3224 28.1189 40.185 28.1458 40.0637C28.1458 39.9505 28.1728 39.8293 28.1728 39.7161C28.1997 39.5221 28.2087 39.3604 28.2357 39.1826C29.7265 39.223 31.2532 39.3038 32.6542 39.0451C34.5402 38.6409 35.079 37.2586 35.5281 35.7227C33.7229 35.6014 31.8549 35.6176 30.0139 35.6337C30.1755 35.4397 30.3372 35.2295 30.5258 34.9789C30.6515 34.8253 30.4898 34.9224 30.6874 34.8334L30.7682 34.7849L35.3664 34.5505H35.573L35.8514 34.5262H35.8693L56.1031 33.4996L57.3963 33.4268L56.0941 33.4915L40.5304 20.6786L40.0993 20.3148L35.564 16.5881L34.5761 17.4773C35.3934 18.3342 35.573 19.7166 34.7916 20.6381C35.0611 21.0343 35.2856 21.4465 35.4383 21.875C35.7256 22.7157 35.7885 23.6049 35.6269 24.4618C36.3453 25.1489 36.7495 26.119 36.7315 27.0729C36.7854 27.0729 36.8393 27.0567 36.9021 27.0487L35.6179 30.8481C35.2497 30.549 35.0072 30.161 34.8815 29.7406C34.6839 29.8295 34.4863 29.9023 34.2618 29.9669C32.6183 30.4358 31.2801 29.8942 30.4629 28.9645C29.6726 29.0615 28.8823 29.013 28.1009 28.8352C27.8046 28.7624 27.5262 28.6735 27.2388 28.5765C26.8347 28.4552 26.4305 28.3259 26.0354 28.1642C24.5984 27.5499 23.5028 26.2807 23.0268 24.9388C22.7394 24.1142 22.6855 23.2411 22.8382 22.4004C20.1439 22.0286 18.3927 19.7489 18.24 17.4369C16.5157 16.8145 15.0339 15.6827 14.0819 14.1953C10.9386 13.1363 9.57354 9.15903 11.5403 6.69345L0 17.0974V64.0001H55.681L72.9511 48.4467H57.8544ZM39.2282 33.4107C38.4468 33.637 37.7912 33.4268 37.3512 33.0146L39.1294 27.7115C39.8658 28.3582 40.1083 29.3768 39.6592 30.2418C40.8267 30.9613 41.0064 32.9095 39.2282 33.4107ZM39.8299 21.1878L39.9466 21.2849L40.261 21.5435L36.1747 33.7098L35.5999 33.7421L39.8299 21.1878ZM29.7175 36.337C30.2563 36.337 30.8042 36.337 31.343 36.337C32.3938 36.337 33.2739 36.3532 34.0642 36.3775C33.6241 37.5173 33.0673 38.1317 31.9447 38.3742C31.2891 38.4954 30.4898 38.552 29.475 38.552C29.1248 38.552 28.7745 38.552 28.4243 38.5358C28.6757 37.6709 29.0709 37.1535 29.7175 36.3451V36.337ZM48.1371 53.7335C43.6647 53.7335 40.0275 50.4596 40.0275 46.4338C40.0275 42.408 43.6647 39.1341 48.1371 39.1341C52.6096 39.1341 56.2468 42.408 56.2468 46.4338C56.2468 50.4596 52.6006 53.7335 48.1371 53.7335Z" fill="white"/>
</g>
</svg>
